<?xml version="1.0" encoding="utf-8"?>
<!-- Generator: Adobe Illustrator 24.0.1, SVG Export Plug-In . SVG Version: 6.00 Build 0)  -->
<svg version="1.1" id="Capa_1" xmlns="http://www.w3.org/2000/svg" xmlns:xlink="http://www.w3.org/1999/xlink" x="0px" y="0px"
	 viewBox="0 0 129 105" style="enable-background:new 0 0 129 105;" xml:space="preserve">
<path id="Icon_material-timer" d="M71.3,29.3H57.6v4.5h13.6V29.3z M62.2,58.8h4.5V45.2h-4.5V58.8z M80.4,43.8l3.2-3.2
	c-1-1.2-2-2.2-3.2-3.2l-3.2,3.2c-8.8-7.1-21.7-5.6-28.8,3.2s-5.6,21.7,3.2,28.8c8.8,7.1,21.7,5.6,28.8-3.2
	C86.4,61.9,86.4,51.2,80.4,43.8z M64.4,72.4c-8.8,0-15.9-7.1-15.9-15.9s7.1-15.9,15.9-15.9s15.9,7.1,15.9,15.9c0,0,0,0,0,0
	C80.4,65.3,73.3,72.4,64.4,72.4C64.5,72.4,64.5,72.4,64.4,72.4z"/>
</svg>
