<?xml version="1.0" encoding="utf-8"?>
<!-- Generator: Adobe Illustrator 24.0.1, SVG Export Plug-In . SVG Version: 6.00 Build 0)  -->
<svg version="1.1" id="Capa_1" xmlns="http://www.w3.org/2000/svg" xmlns:xlink="http://www.w3.org/1999/xlink" x="0px" y="0px"
	 viewBox="0 0 129 105" style="enable-background:new 0 0 129 105;" xml:space="preserve">
<style type="text/css">
	.st0{fill:#00D8FF;}
</style>
<g id="Icon_material-golf-course" transform="translate(-6 -3)">
	<path id="Trazado_401" class="st0" d="M100.9,84.8c0,2.9-2.4,5.3-5.3,5.3c-2.9,0-5.3-2.4-5.3-5.3c0-2.9,2.4-5.3,5.3-5.3
		C98.5,79.5,100.8,81.9,100.9,84.8C100.9,84.8,100.9,84.8,100.9,84.8z"/>
	<path id="Trazado_402" class="st0" d="M86.7,36.8L58.4,22.9v63.6h-7.1v-6.1C45,81.7,40.7,84,40.7,86.6c0,3.9,9.5,7.1,21.2,7.1
		s21.2-3.2,21.2-7.1c0-3.5-7.6-6.4-17.7-7v-32L86.7,36.8z"/>
</g>
</svg>
