<?xml version="1.0" encoding="utf-8"?>
<!-- Generator: Adobe Illustrator 24.0.1, SVG Export Plug-In . SVG Version: 6.00 Build 0)  -->
<svg version="1.1" id="Capa_1" xmlns="http://www.w3.org/2000/svg" xmlns:xlink="http://www.w3.org/1999/xlink" x="0px" y="0px"
	 viewBox="0 0 129 105" style="enable-background:new 0 0 129 105;" xml:space="preserve">
<path id="Icon_material-laptop-mac" d="M82.4,69.6c2.4,0,4.4-2,4.4-4.4l0-24.2c0-2.4-2-4.4-4.4-4.4H47.2c-2.4,0-4.4,2-4.4,4.4v24.2
	c0,2.4,2,4.4,4.4,4.4h-8.8c0,2.4,2,4.4,4.4,4.4h44c2.4,0,4.4-2,4.4-4.4H82.4z M47.2,41h35.2v24.2H47.2V41z M64.8,71.8
	c-1.2,0-2.2-1-2.2-2.2s1-2.2,2.2-2.2c1.2,0,2.2,1,2.2,2.2C67,70.8,66,71.8,64.8,71.8z"/>
</svg>
