<?xml version="1.0" encoding="utf-8"?>
<!-- Generator: Adobe Illustrator 24.0.1, SVG Export Plug-In . SVG Version: 6.00 Build 0)  -->
<svg version="1.1" id="Capa_1" xmlns="http://www.w3.org/2000/svg" xmlns:xlink="http://www.w3.org/1999/xlink" x="0px" y="0px"
	 viewBox="0 0 1280 1024" style="enable-background:new 0 0 1280 1024;" xml:space="preserve">
<style type="text/css">
	.st0{fill:#FFFFFF;}
	.st1{fill:#37C1A5;}
	.st2{fill:#A49EAD;}
	.st3{fill:#F8F6FA;}
	.st4{fill:#E0DBE1;}
	.st5{fill:#C0B9C8;}
	.st6{fill:#FFFEFB;}
	.st7{fill:url(#Trazado_291_1_);}
	.st8{fill:url(#Trazado_293_1_);}
	.st9{fill:url(#Trazado_295_1_);}
	.st10{fill:url(#Trazado_297_1_);}
	.st11{fill:#046DC9;}
	.st12{opacity:0.85;fill:#FAF7FB;enable-background:new    ;}
	.st13{fill:#0094EF;}
	.st14{fill:#FFC522;}
	.st15{fill:#95CC09;}
	.st16{fill:#748E9D;}
	.st17{fill:#6FAF00;}
	.st18{fill:#DB3E3E;}
	.st19{opacity:0.2;}
	.st20{fill:#FF4343;}
</style>
<g id="Grupo_127" transform="translate(-169 -2892.817)">
	<g transform="matrix(1, 0, 0, 1, 169, 2892.82)">
		<path id="Trazado_386-2" class="st0" d="M612,736.1c0.9,0.9,1.8,0.9,3.5,0.9h7.1l116.4-67c0.9-0.9,0.9-4.4,0-6.2v-0.9
			c0,0-91.7,52.9-112,64.4l0,0l112-65.3l-48.5-28.2l-63.5,37l0,0l63.5-37c-2-1.2-3.8-2.7-5.3-4.4c-2-2-3.5-4.4-4.4-7.1
			c-0.9-1.8-0.9-3.5-1.8-5.3l133.2-76.7h-18.5l146.4-83.8v-292l0,0v-24.7L890.8,168v-59.1l-8.8-5.3L398.6,382.4V737l-96.2,56.5
			l17.6,4.4h47.6l154.4-89.1l8.8-1.8c14.1-3.5,29.1-0.9,42.3,6.2L612,736.1z"/>
	</g>
	<g transform="matrix(1, 0, 0, 1, 169, 2892.82)">
		<path id="Trazado_385-2" class="st0" d="M1010.8,695.5L1010.8,695.5c1.8-0.9,1.8-4.4,0.9-6.2v-0.9c-6.2-4.4-120.9-81.2-120.9-81.2
			c-1.8-0.9-4.4-1.8-5.3-0.9L562.6,794.3l0,0c-1.8,0.9-2.6,2.6-2.6,5.3c0.1,3.1,1,6.2,2.6,8.8l-4.4,2.6L687,885.2l260.3-149.9l66-38
			L1010.8,695.5z"/>
	</g>
	<g id="Grupo_106" transform="translate(449.421 3418.402)">
		<path id="Trazado_283" class="st1" d="M730.9,172.4L406.5,359.2l-128-73.7L602.9,97.9L730.9,172.4z"/>
		<g id="Grupo_105" transform="translate(1.754)">
			<g id="Grupo_104">
				<path id="Trazado_284" class="st2" d="M615.2,95.3l-321,185.9v1.8c0,2.6-0.9,4.4-2.6,5.3l321-185.9c1.8-0.9,2.6-2.6,2.6-5.3
					C615.2,96.1,615.2,95.3,615.2,95.3z"/>
				<path id="Trazado_285" class="st3" d="M727.4,164.6c-6.1-4.4-120.1-80.7-120.1-80.7c-1.8-0.9-4.4-1.8-5.3-0.9L281,268.9
					c1.7-1,4-0.7,5.3,0.9c0.9,0,114,76.3,120.1,80.7c0,0.5,0.4,0.9,0.8,0.9c0,0,0,0,0,0L727.4,164.6L727.4,164.6z"/>
				<path id="Trazado_286" class="st4" d="M728.3,165.4l-321,185.9c0.9,1.8,0,4.4,0,5.3l321-185.9
					C728.3,169.8,729.2,166.3,728.3,165.4z"/>
				<path id="Trazado_287" class="st5" d="M406.5,350.5c-6.1-4.4-119.3-80.7-120.1-80.7c-4.4-2.6-7.9-0.9-7.9,4.4s3.5,10.5,7.9,13.2
					c4.4,2.6,7.9,0.9,7.9-4.4v-1.8l112.3,75.4C407.3,357.5,408.2,351.4,406.5,350.5z"/>
			</g>
			<path id="Trazado_288" class="st4" d="M586.2,104v-1.8c0,0.9,0,0.9,0.9,1.8l12.3,7.9c1.6,0.9,3.6,0.9,5.3,0l14-7.9
				c0.9,0,0.9-0.9,0.9-1.8v1.8c0,0.9,0,0.9-0.9,1.8l-14,7.9c-1.6,0.9-3.6,0.9-5.3,0l-12.3-7.9C586.2,105.8,586.2,104.9,586.2,104z
				 M565.2,119l12.3,7.9c1.6,0.9,3.6,0.9,5.3,0l14-7.9c0.9,0,0.9-0.9,0.9-1.8v-1.8c0,0.9,0,0.9-0.9,1.8l-14,7.9
				c-1.6,0.9-3.6,0.9-5.3,0l-12.3-7.9c-0.9-0.9-0.9-0.9-0.9-1.8v1.8C564.3,118.1,564.3,118.1,565.2,119z M543.3,131.2l12.3,7.9
				c1.6,0.9,3.6,0.9,5.3,0l14-7.9c0.9,0,0.9-0.9,0.9-1.8v-1.8c0,0.9,0,0.9-0.9,1.8l-14,7.9c-1.6,0.9-3.6,0.9-5.3,0l-12.3-7.9
				c-0.9-0.9-0.9-0.9-0.9-1.8v1.8C542.4,130.4,542.4,131.2,543.3,131.2z M608.2,116.3v1.8c0,0.9,0,0.9,0.9,1.8l12.3,7.9
				c1.6,0.9,3.6,0.9,5.3,0l14-7.9c0.9,0,0.9-0.9,0.9-1.8v-1.8c0,0.9,0,0.9-0.9,1.8l-14,7.9c-1.6,0.9-3.6,0.9-5.3,0l-12.3-7.9
				C608.2,117.2,608.2,117.2,608.2,116.3L608.2,116.3z M597.6,165.4l-32.5-21l-1.8-1.8v1.8c0,0.9,0,1.8,1.8,1.8l32.4,21
				c1.8,0.9,4.4,1.8,6.1,0l57-33.3c0.9-0.9,0.9-0.9,0.9-1.8v-1.8c0,0.9,0,0.9-0.9,1.8l-57,33.3C601.8,166.3,599.6,166.3,597.6,165.4
				L597.6,165.4z M651.1,144.4v1.8c0,0.9,0,0.9,0.9,1.8l12.3,7.9c1.6,0.9,3.6,0.9,5.3,0l14-7.9c0.9,0,0.9-0.9,0.9-1.8v-1.8
				c0,0.9,0,0.9-0.9,1.8l-14,7.9c-1.6,0.9-3.6,0.9-5.3,0l-12.3-7.9C651.1,145.3,651.1,145.3,651.1,144.4L651.1,144.4z M704.6,160.2
				l-14,7.9c-1.6,0.9-3.6,0.9-5.3,0l-12.3-7.9c-0.9-0.9-0.9-0.9-0.9-1.8v1.8c0,0.9,0,0.9,0.9,1.8l12.3,7.9c1.6,0.9,3.6,0.9,5.3,0
				l14-7.9C704.6,162.8,705.5,161.9,704.6,160.2l0.9-1.8C705.5,160.2,705.5,160.2,704.6,160.2L704.6,160.2z M646.8,168.9l14-7.9
				c0.9,0,0.9-0.9,0.9-1.8v-1.8c0,0.9,0,0.9-0.9,1.8l-14,7.9c-1.6,0.9-3.6,0.9-5.3,0l-12.3-7.9c-0.9-0.9-0.9-0.9-0.9-1.8v1.8
				c0,0.9,0,0.9,0.9,1.8l12.3,7.9C643.2,169.8,645.9,169.8,646.8,168.9L646.8,168.9z M682.7,173.3l-14,7.9c-1.6,0.9-3.6,0.9-5.3,0
				l-12.3-7.9c-0.9-0.9-0.9-0.9-0.9-1.8v1.8c0,0.9,0,0.9,0.9,1.8l12.3,7.9c1.6,0.9,3.6,0.9,5.3,0l14-7.9
				C682.7,175.1,683.6,175.1,682.7,173.3l0.9-1.8C683.5,172.2,683.2,172.9,682.7,173.3L682.7,173.3z M624.8,180.3
				c-1.6,0.9-3.6,0.9-5.3,0l-12.3-7.9c-0.9-0.9-0.9-0.9-0.9-1.8v1.8c0,0.9,0,0.9,0.9,1.8l12.3,7.9c1.6,0.9,3.6,0.9,5.3,0l14-7.9
				c0.9,0,0.9-0.9,0.9-1.8v-1.8c0,0.9,0,0.9-0.9,1.8L624.8,180.3z M660.8,186.5l-14,7.9c-1.6,0.9-3.6,0.9-5.3,0l-12.3-7.9
				c-0.9-0.9-0.9-0.9-0.9-1.8v1.8c0,0.9,0,0.9,0.9,1.8l12.3,7.9c1.6,0.9,3.6,0.9,5.3,0l14-7.9V186.5l0.9-1.8
				C661.7,185.6,660.8,185.6,660.8,186.5L660.8,186.5z M502,155.8l12.3,7.9c1.6,0.9,3.6,0.9,5.3,0l21-12.3c0.9,0,0.9-0.9,0.9-1.8
				v-1.8c0,0.9,0,0.9-0.9,1.8l-21,12.3c-1.6,0.9-3.6,0.9-5.3,0L502,154c-0.9-0.9-0.9-0.9-0.9-1.8v1.8
				C500.3,154,501.2,154.9,502,155.8z M561.7,163.7l-13.2,7.9c-1.6,0.9-3.6,0.9-5.3,0l-12.3-7.9c-0.9-0.9-0.9-0.9-0.9-1.8v1.8
				c0,0.9,0,0.9,0.9,1.8l12.3,7.9c1.6,0.9,3.6,0.9,5.3,0l14-7.9C562.5,164.8,562.2,164.1,561.7,163.7l0.9-1.8
				C562.6,162.8,562.6,163.7,561.7,163.7L561.7,163.7z M480.1,168.1l12.3,7.9c1.6,0.9,3.6,0.9,5.3,0l14-7.9c0.9,0,0.9-0.9,0.9-1.8
				v-1.8c0,0.9,0,0.9-0.9,1.8l-14,7.9c-1.6,0.9-3.6,0.9-5.3,0l-12.3-7.9c-0.9-0.9-0.9-0.9-0.9-1.8v1.8
				C478.4,167.2,479.2,168.1,480.1,168.1L480.1,168.1z M521.3,183.9l-12.3-7.9c-0.9-0.9-0.9-0.9-0.9-1.8v1.8c0,0.9,0,0.9,0.9,1.8
				l12.3,7.9c1.6,0.9,3.6,0.9,5.3,0l13.2-7c0.9,0,0.9-0.9,0.9-1.8v-1.8c0,0.9,0,0.9-0.9,1.8l-14,7.9
				C524.8,185.6,523.1,184.7,521.3,183.9L521.3,183.9z M561.7,191.7l21-12.3c0.5,0,0.9-0.4,0.9-0.8c0,0,0,0,0,0v-1.8
				c0,0.9,0,0.9-0.9,1.8l-21,12.3c-1.6,0.9-3.6,0.9-5.3,0l-12.3-7.9c-0.9-0.9-0.9-0.9-0.9-1.8v1.8c0,0.9,0,0.9,0.9,1.8l12.3,7.9
				C558.2,192.6,560.8,192.6,561.7,191.7L561.7,191.7z M590.6,201.4l14-7.9c0.9,0,0.9-0.9,0.9-1.8V190c0,0.9,0,0.9-0.9,1.8l-14,7.9
				c-1.6,0.9-3.6,0.9-5.3,0l-12.3-7.9c-0.9-0.9-0.9-0.9-0.9-1.8v1.8c0,0.9,0,0.9,0.9,1.8l12.3,7.9
				C587.1,202.3,589.7,202.3,590.6,201.4L590.6,201.4z M458.2,181.2l12.3,7.9c1.6,0.9,3.6,0.9,5.3,0l14-7.9c0.9,0,0.9-0.9,0.9-1.8
				v-1.8c0,0.9,0,0.9-0.9,1.8l-14.9,7.9c-1.6,0.9-3.6,0.9-5.3,0l-12.3-7.9c-0.9-0.9-0.9-0.9-0.9-1.8v1.8
				C456.4,180.3,457.3,180.3,458.2,181.2z M499.4,197l-12.3-7.9c-0.9-0.9-0.9-0.9-0.9-1.8v1.8c0,0.9,0,0.9,0.9,1.8l12.3,7.9
				c1.6,0.9,3.6,0.9,5.3,0l14-7.9c0.9,0,0.9-0.9,0.9-1.8v-1.8c0,0.9,0,0.9-0.9,1.8l-14,7.9C502.9,197.9,500.3,197.9,499.4,197
				L499.4,197z M539.8,204.9l14-7.9c0.9,0,0.9-0.9,0.9-1.8v-1.8c0,0.9,0,0.9-0.9,1.8l-14,7c-1.6,0.9-3.6,0.9-5.3,0l-12.3-7.9
				c-0.9-0.9-0.9-0.9-0.9-1.8v1.8c0,0.9,0,0.9,0.9,1.8l12.3,7.9C536.2,205.8,538.9,205.8,539.8,204.9L539.8,204.9z M568.7,214.5
				l14-7.9c0.9,0,0.9-0.9,0.9-1.8v-1.8c0,0.9,0,0.9-0.9,1.8l-14,7.9c-1.6,0.9-3.6,0.9-5.3,0l-12.3-7.9c-0.9-0.9-0.9-0.9-0.9-1.8v1.8
				c0,0.9,0,0.9,0.9,1.8l12.3,7.9C565.2,215.4,567.8,215.4,568.7,214.5L568.7,214.5z M435.4,194.4l12.3,7.9c1.6,0.9,3.6,0.9,5.3,0
				l14-7.9c0.9,0,0.9-0.9,0.9-1.8v-1.8c0,0.9,0,0.9-0.9,1.8l-14,7.9c-0.9,0.9-3.5,0.9-5.3,0l-12.3-7.9c-0.9-0.9-0.9-0.9-0.9-1.8v1.8
				C435,193.1,435.3,193.7,435.4,194.4z M477.5,210.2l-12.3-7.9c-0.9-0.9-0.9-0.9-0.9-1.8v1.8c0,0.9,0,0.9,0.9,1.8l12.3,7.9
				c1.6,0.9,3.6,0.9,5.3,0l14-7.9c0.9,0,0.9-0.9,0.9-1.8v-1.8c0,0.9,0,0.9-0.9,1.8l-14,7.9C481,211,478.4,211,477.5,210.2
				L477.5,210.2z M517.8,217.2l14-7.9c0.9,0,0.9-0.9,0.9-1.8v-1.8c0,0.9,0,0.9-0.9,1.8l-14,7.9c-1.6,0.9-3.6,0.9-5.3,0l-12.3-7.9
				c-0.9-0.9-0.9-0.9-0.9-1.8v1.8c0,0.9,0,0.9,0.9,1.8l12.3,7.9C514.3,218.1,517,218.1,517.8,217.2L517.8,217.2z M546.8,227.7
				l14-7.9c0.9,0,0.9-0.9,0.9-1.8v-1.8c0,0.9,0,0.9-0.9,1.8l-14,7.9c-1.6,0.9-3.6,0.9-5.3,0l-12.3-7.9c-0.9-0.9-0.9-0.9-0.9-1.8v1.8
				c0,0.9,0,0.9,0.9,1.8l12.3,7.9C543.3,227.7,545.9,228.6,546.8,227.7L546.8,227.7z M413.5,206.7l12.3,7.9c1.6,0.9,3.6,0.9,5.3,0
				l14-7.9c0.9,0,0.9-0.9,0.9-1.8v-1.8c0,0.9,0,0.9-0.9,1.8l-14,7.9c-0.9,0.9-3.5,0.9-5.3,0l-12.3-7.9c-0.9-0.9-0.9-0.9-0.9-1.8v1.8
				C412.6,205.8,412.6,206.7,413.5,206.7L413.5,206.7z M455.6,222.4l-12.3-7.9c-0.9-0.9-0.9-0.9-0.9-1.8v1.8c0,0.9,0,0.9,0.9,1.8
				l12.3,7.9c1.6,0.9,3.6,0.9,5.3,0l14-7.9c0.9,0,0.9-0.9,0.9-1.8v-1.8c0,0.9,0,0.9-0.9,1.8l-14,7.9
				C459.1,223.3,456.4,223.3,455.6,222.4L455.6,222.4z M495.9,230.3l14-7.9c0.9,0,0.9-0.9,0.9-1.8v-1.8c0,0.9,0,0.9-0.9,1.8l-14,7.9
				c-0.9,0.9-3.5,0.9-5.3,0l-12.3-8.8c-0.9-0.9-0.9-0.9-0.9-1.8v1.8c0,0.9,0,0.9,0.9,1.8l12.3,7.9C492,231,494.2,231.4,495.9,230.3
				L495.9,230.3z M524.9,240l14-7.9c0.9,0,0.9-0.9,0.9-1.8v-1.8c0,0.9,0,0.9-0.9,1.8l-14,7.9c-1.6,0.9-3.6,0.9-5.3,0l-12.3-7.9
				c-0.9-0.9-0.9-0.9-0.9-1.8v1.8c0,0.9,0,0.9,0.9,1.8l12.3,7.9C521.3,240.9,524,240.9,524.9,240L524.9,240z M391.6,219.8l12.3,7.9
				c1.6,0.9,3.6,0.9,5.3,0l14-7.9c0.9,0,0.9-0.9,0.9-1.8v-1.8c0,0.9,0,0.9-0.9,1.8l-14,7.9c-0.9,0.9-3.5,0.9-5.3,0l-12.3-7.9
				c-0.7-0.7-1-1.7-0.9-2.6v1.8C390.7,218.9,390.7,218.9,391.6,219.8L391.6,219.8z M432.8,235.6l-12.3-7.9c-0.9-0.9-0.9-0.9-0.9-1.8
				v1.8c0,0.9,0,0.9,0.9,1.8l12.3,7.9c1.6,0.9,3.6,0.9,5.3,0l14-7.9c0.9,0,0.9-0.9,0.9-1.8v-1.8c0,0.9,0,0.9-0.9,1.8l-14,7.9
				C437.1,236.5,434.5,236.5,432.8,235.6z M474,243.5l14-7.9c0.9,0,0.9-0.9,0.9-1.8v-1.7c0,0.9,0,0.9-0.9,1.8l-14,7.9
				c-0.9,0.9-3.5,0.9-5.3,0l-12.3-7.9c-0.9-0.9-0.9-0.9-0.9-1.8v1.8c0,0.9,0,0.9,0.9,1.8l12.3,7.9
				C470.5,243.5,472.2,244.4,474,243.5L474,243.5z M502.9,253.1l14-7.9c0.9,0,0.9-0.9,0.9-1.8v-1.8c0,0.9,0,0.9-0.9,1.8l-14,7.9
				c-0.9,0.9-3.5,0.9-5.3,0l-12.3-7.9c-0.9-0.9-0.9-0.9-0.9-1.8v1.8c0,0.9,0,0.9,0.9,1.8l12.3,7.9C499.3,254,501.3,254,502.9,253.1
				L502.9,253.1z M369.6,232.1l12.3,7.9c1.6,0.9,3.6,0.9,5.3,0l14-7.9c0.9,0,0.9-0.9,0.9-1.8v-1.8c0,0.9,0,0.9-0.9,1.8l-14,7.9
				c-0.9,0.9-3.5,0.9-5.3,0l-12.3-7.9c-0.9-0.9-0.9-0.9-0.9-1.8v1.8C368.7,231.2,368.7,232.1,369.6,232.1z M410.8,247.9l-12.3-7.9
				c-0.9-0.9-0.9-0.9-0.9-1.8v1.8c0,0.9,0,0.9,0.9,1.8l12.3,7.9c1.6,0.9,3.6,0.9,5.3,0l14-7.9c0.9,0,0.9-0.9,0.9-1.8v-1.8
				c0,0.9,0,0.9-0.9,1.8l-14,8.8C414.4,249.8,412.1,249.4,410.8,247.9L410.8,247.9z M452.1,255.8l14-7.9c0.9,0,0.9-0.9,0.9-1.8v-1.8
				c0,0.9,0,0.9-0.9,1.8l-14,7.9c-0.9,0.9-3.5,0.9-5.3,0l-12.3-8.8c-0.9-0.9-0.9-0.9-0.9-1.8v1.8c0,0.9,0,0.9,0.9,1.8l12.3,7.9
				C448.1,256.4,450.3,256.8,452.1,255.8L452.1,255.8z M481,266.3l14-7.9c0.9,0,0.9-0.9,0.9-1.8v-1.8c0,0.9,0,0.9-0.9,1.8l-14,7.9
				c-0.9,0.9-3.5,0.9-5.3,0l-12.3-7.9c-0.9-0.9-0.9-0.9-0.9-1.8v1.8c0,0.9,0,0.9,0.9,1.8l12.3,7.9L481,266.3z M347.7,245.2l12.3,7.9
				c1.6,0.9,3.6,0.9,5.3,0l14-7.9c0.9,0,0.9-0.9,0.9-1.8v-1.8c0,0.9,0,0.9-0.9,1.8l-14,7.9c-1.6,0.9-3.6,0.9-5.3,0l-12.3-7.9
				c-0.5-0.5-0.8-1.1-0.9-1.8v1.8C346.8,244.4,346.8,245.2,347.7,245.2z M388.9,261l-12.3-7.9c-0.9-0.9-0.9-0.9-0.9-1.8v1.8
				c0,0.9,0,0.9,0.9,1.8l12.3,7.9c1.6,0.9,3.6,0.9,5.3,0l14-7.9c0.9,0,0.9-0.9,0.9-1.8v-1.8c0,0.9,0,0.9-0.9,1.8l-14,7.9
				C392.5,261.9,390.6,261.9,388.9,261L388.9,261z M430.1,268.9l14-7.9c0.9,0,0.9-0.9,0.9-1.8v-1.8c0,0.9,0,0.9-0.9,1.8l-14,7.9
				c-0.9,0.9-3.5,0.9-5.3,0l-12.3-7.9c-0.9-0.9-0.9-0.9-0.9-1.8v1.8c0,0.9,0,0.9,0.9,1.8l12.3,7.9
				C425.7,269.8,428.4,269.8,430.1,268.9L430.1,268.9z M459.1,278.6l14-7.9c0.9,0,0.9-0.9,0.9-1.8v-1.8c0,0.9,0,0.9-0.9,1.8l-14,7.9
				c-0.9,0.9-3.5,0.9-5.3,0l-12.3-7.9c-0.9-0.9-0.9-0.9-0.9-1.8v1.8c0,0.9,0,0.9,0.9,1.8l12.3,7.9
				C455.4,279.4,457.4,279.4,459.1,278.6L459.1,278.6z M625.7,205.8l-21,12.3c-1.6,0.9-3.6,0.9-5.3,0l-12.3-7.9
				c-0.9-0.9-0.9-0.9-0.9-1.8v1.8c0,0.9,0,0.9,0.9,1.8l12.3,7.9c1.6,0.9,3.6,0.9,5.3,0l21-12.3C626.2,207.1,626.2,206.3,625.7,205.8
				C625.7,205.8,625.7,205.8,625.7,205.8l0.9-1.8C626.5,204.7,626.2,205.3,625.7,205.8L625.7,205.8z M596.8,222.4L495,282.1
				c-0.9,0.9-3.5,0.9-5.3,0l-12.3-7.9c-0.9-0.9-0.9-0.9-0.9-1.8v1.8c0,0.9,0,0.9,0.9,1.8l12.3,7.9c1.6,0.9,3.6,0.9,5.3,0l101.7-59.6
				C597.6,224.2,597.6,224.2,596.8,222.4l0.9-1.8C597.6,221.6,597.6,222.4,596.8,222.4L596.8,222.4z M325.8,258.4l12.3,7.9
				c1.6,0.9,3.6,0.9,5.3,0l14-7.9c0.9,0,0.9-0.9,0.9-1.8v-1.8c0,0.9,0,0.9-0.9,1.8l-14,7.9c-1.6,0.9-3.6,0.9-5.3,0l-12.3-7.9
				c-0.9-0.9-0.9-0.9-0.9-1.8v1.8C324,256.6,324.9,257.5,325.8,258.4z M367,274.2l-12.3-7.9c-0.9-0.9-0.9-0.9-0.9-1.8v1.8
				c0,0.9,0,0.9,0.9,1.8l12.3,7.9c1.6,0.9,3.6,0.9,5.3,0l14-7.9c0.9,0,0.9-0.9,0.9-1.8v-1.8c0,0.9,0,0.9-0.9,1.8l-14,7.9
				C370.6,275.1,368.6,275.1,367,274.2z M408.2,279.4c-1.6,0.9-3.6,0.9-5.3,0l-12.3-7.9c-0.9-0.9-0.9-0.9-0.9-1.8v1.8
				c0,0.9,0,0.9,0.9,1.8l12.3,7.9c1.6,0.9,3.6,0.9,5.3,0l14-7.9c0.9,0,0.9-0.9,0.9-1.8v-1.8c0,0.9,0,0.9-0.9,1.8L408.2,279.4z
				 M437.1,291.7l14-7.9c0.9,0,0.9-0.9,0.9-1.8v-1.8c0,0.9,0,0.9-0.9,1.8l-14,7.9c-1.6,0.9-3.6,0.9-5.3,0l-12.3-7.9
				c-0.9-0.9-0.9-0.9-0.9-1.8v1.8c0,0.9,0,0.9,0.9,1.8l12.3,7.9C432.8,292.6,435.4,292.6,437.1,291.7L437.1,291.7z M486.3,286.5
				l-14,7.9c-0.9,0.9-3.5,0.9-5.3,0l-12.3-7.9c-0.9-0.9-0.9-0.9-0.9-1.8v1.8c0,0.9,0,0.9,0.9,1.8l12.3,7.9c1.6,0.9,3.6,0.9,5.3,0
				l14-7.9C487.1,288.2,487.1,288.2,486.3,286.5l0.9-1.8C487.1,285.6,487.1,286.5,486.3,286.5L486.3,286.5z M335.4,269.8
				L335.4,269.8l-14.9,7c-1.6,0.9-3.6,0.9-5.3,0l-12.3-7.9c-0.9-0.9-0.9-0.9-0.9-1.8v1.8c0,0.9,0,0.9,0.9,1.8l12.3,7.9
				c1.6,0.9,3.6,0.9,5.3,0l14-7.9C335.4,270.7,335.4,270.7,335.4,269.8z M364.4,279.4L364.4,279.4l-21.9,11.4
				c-1.6,0.9-3.6,0.9-5.3,0l-12.3-7.9c-0.9-0.9-0.9-0.9-0.9-1.8v1.8c0,0.9,0,0.9,0.9,1.8l13.2,7.9c1.6,0.9,3.6,0.9,5.3,0l21-12.3
				L364.4,279.4z M368.7,286.5l12.3,7.9c1.6,0.9,3.6,0.9,5.3,0l14-7.9c0.9,0,0.9-0.9,0.9-1.8V283c0,0.9,0,0.9-0.9,1.8l-14.9,7.9
				c-1.6,0.9-3.6,0.9-5.3,0l-11.4-8.8c-0.9-0.9-0.9-0.9-0.9-1.8v1.8C367,284.7,367.9,285.6,368.7,286.5L368.7,286.5z M397.7,296.1
				L410,304c1.6,0.9,3.6,0.9,5.3,0l14-7.9c0.9,0,0.9-0.9,0.9-1.8v-1.8c0,0.9,0,0.9-0.9,1.8l-14,7.9c-1.6,0.9-3.6,0.9-5.3,0
				l-12.3-7.9c-0.9-0.9-0.9-0.9-0.9-1.8v1.8C395.9,295.2,396.8,295.2,397.7,296.1L397.7,296.1z M464.3,299.6l-14,7.9
				c-1.6,0.9-3.6,0.9-5.3,0l-12.3-7.9c-0.9-0.9-0.9-0.9-0.9-1.8v1.8c0,0.9,0,0.9,0.9,1.8l12.3,7.9c1.6,0.9,3.6,0.9,5.3,0l14-7.9
				C464.8,300.9,464.8,300.1,464.3,299.6C464.4,299.6,464.3,299.6,464.3,299.6l0.9-1.8C465.2,298.7,465.2,299.6,464.3,299.6
				L464.3,299.6z M378.4,297.9L378.4,297.9l-14.9,7c-1.6,0.9-3.6,0.9-5.3,0l-11.4-7.9c-0.9-0.9-0.9-0.9-0.9-1.8v1.8
				c0,0.9,0,0.9,0.9,1.8l12.3,7.9c1.6,0.9,3.6,0.9,5.3,0l14-7.9C377.5,298.7,378.4,298.7,378.4,297.9z M407.3,307.5L407.3,307.5
				l-21.9,11.4c-1.6,0.9-3.6,0.9-5.3,0l-12.3-7.9c-0.9-0.9-0.9-0.9-0.9-1.8v1.8c0,0.9,0,0.9,0.9,1.8l12.3,7.9c1.6,0.9,3.6,0.9,5.3,0
				l21-12.3C407.3,309.3,407.3,308.4,407.3,307.5L407.3,307.5z M442.4,312.8l-14,7.9c-1.6,0.9-3.6,0.9-5.3,0l-12.3-7.9
				c-0.9-0.9-0.9-0.9-0.9-1.8v1.8c0,0.9,0,0.9,0.9,1.8l12.3,7.9c1.6,0.9,3.6,0.9,5.3,0l14-7.9C442.9,314.1,442.9,313.3,442.4,312.8
				C442.4,312.8,442.4,312.8,442.4,312.8l0.9-1.8C443.3,311.9,442.4,311.9,442.4,312.8L442.4,312.8z M420.5,325l-14,7.9
				c-1.6,0.9-3.6,0.9-5.3,0l-12.3-7.9c-0.9-0.9-0.9-0.9-0.9-1.8v1.8c0,0.9,0,0.9,0.9,1.8l12.3,7.9c1.6,0.9,3.6,0.9,5.3,0l14-7.9
				C420.5,326.8,421.4,326.8,420.5,325l0.9-1.8C421.3,324,421,324.6,420.5,325L420.5,325z"/>
			<path id="Trazado_289" class="st6" d="M587.1,100.5l14-7.9c1.6-0.9,3.6-0.9,5.3,0l12.3,7.9c1.8,0.9,1.8,2.6,0,3.5l-14,7.9
				c-1.6,0.9-3.6,0.9-5.3,0l-12.3-7.9C586.2,103,586.2,101.5,587.1,100.5z M565.2,116.3l12.3,7.9c1.6,0.9,3.6,0.9,5.3,0l14-7.9
				c0.9-0.9,0.9-1.8,0-3.5l-13.2-7c-1.6-0.9-3.6-0.9-5.3,0l-14,7.9C564.2,114.7,564.5,115.6,565.2,116.3z M543.3,129.5l12.3,7.9
				c1.6,0.9,3.6,0.9,5.3,0l14-7.9c0.9-0.9,0.9-1.8,0-3.5l-12.3-7.9c-1.6-0.9-3.6-0.9-5.3,0l-14,7.9
				C541.5,126.8,542.4,128.6,543.3,129.5z M609,118.1l12.3,7.9c1.6,0.9,3.6,0.9,5.3,0l14-7.9c1.8-0.9,0.9-1.8,0-3.5l-13.2-7
				c-1.6-0.9-3.6-0.9-5.3,0l-14,7.9C607.3,115.4,607.3,117.2,609,118.1L609,118.1z M621.3,131.2l-15.8-10.5c-2-0.9-4.2-0.9-6.1,0
				l-34.2,20.2c-1.8,0.9-1.8,2.6,0,3.5l32.4,21c1.8,0.9,4.4,1.8,6.1,0l57-33.3c1.8-0.9,1.8-2.6,0-3.5l-12.3-7.9
				c-0.9-0.9-2.6-0.9-4.4,0l-19.3,11.4C623.6,132.1,622.4,131.8,621.3,131.2L621.3,131.2z M652,146.1l12.3,7.9
				c1.6,0.9,3.6,0.9,5.3,0l14-7.9c1.8-0.9,0.9-1.8,0-3.5l-12.3-7.9c-1.6-0.9-3.6-0.9-5.3,0l-14,7.9
				C650.3,143.5,650.3,145.3,652,146.1L652,146.1z M704.6,157.5l-12.3-7.9c-1.6-0.9-3.6-0.9-5.3,0l-14,7.9c-1.8,0.9-0.9,1.8,0,3.5
				l12.3,7.9c1.6,0.9,3.6,0.9,5.3,0l14-7.9C705.5,160,705.5,158.5,704.6,157.5L704.6,157.5z M647.6,167.2l14-7.9
				c0.9-0.9,0.9-1.8,0-3.5l-12.3-7.9c-1.6-0.9-3.6-0.9-5.3,0l-14,7.9c-1.8,0.9-0.9,1.8,0,3.5l12.3,7.9
				C643.2,168.1,645.9,168.1,647.6,167.2L647.6,167.2z M682.7,170.7l-12.3-7.9c-1.6-0.9-3.6-0.9-5.3,0l-14,7c-1.8,0.9-0.9,1.8,0,3.5
				l12.3,7.9c1.6,0.9,3.6,0.9,5.3,0l14-7.9c0.7-0.5,0.9-1.6,0.3-2.3C682.9,170.9,682.8,170.8,682.7,170.7L682.7,170.7z M626.6,161
				c-1.6-0.9-3.6-0.9-5.3,0l-14,7.9c-1.8,0.9-0.9,1.8,0,2.6l12.3,7.9c1.6,0.9,3.6,0.9,5.3,0l14-7.9c0.9-0.9,0.9-1.8,0-3.5L626.6,161
				z M659.9,183l-12.3-7.9c-1.6-0.9-3.6-0.9-5.3,0l-14,7.9c-1.8,0.9-0.9,1.8,0,3.5l12.3,7.9c1.6,0.9,3.6,0.9,5.3,0l14-7.9
				C661.7,185.6,661.7,183.9,659.9,183L659.9,183z M502,153.2l12.3,7.9c1.6,0.9,3.6,0.9,5.3,0l21-12.3c1.8-0.9,0.9-1.8,0-3.5
				l-12.3-7.9c-1.6-0.9-3.6-0.9-5.3,0l-21,12.3C500.3,151.4,500.3,152.3,502,153.2z M561.7,160.2l-12.3-7.9c-1.6-0.9-3.6-0.9-5.3,0
				l-13.2,7.9c-1.8,0.9-0.9,1.8,0,3.5l12.3,7.9c1.6,0.9,3.6,0.9,5.3,0l14-7.9C563.4,162.8,563.4,161.9,561.7,160.2L561.7,160.2z
				 M480.1,166.3l12.3,7.9c1.6,0.9,3.6,0.9,5.3,0l14-7.9c1.8-0.9,0.9-1.8,0-3.5l-12.3-7.9c-1.6-0.9-3.6-0.9-5.3,0l-14,7.9
				C478.4,163.7,478.4,165.4,480.1,166.3L480.1,166.3z M522.2,165.4l-14,7.9c-1.8,0.9-0.9,1.8,0,3.5l12.3,7.9c1.6,0.9,3.6,0.9,5.3,0
				l14-7.9c1.8-0.9,0.9-1.8,0-3.5l-12.3-7.9C525.8,164.6,523.9,164.6,522.2,165.4L522.2,165.4z M561.7,190l21-12.3
				c1.8-0.9,0.9-1.8,0-3.5l-12.3-7.9c-1.6-0.9-3.6-0.9-5.3,0L545,178.6c-1.8,0.9-0.9,1.8,0,3.5l12.3,7.9
				C558.6,190.9,560.4,190.9,561.7,190L561.7,190z M591.5,199.6l14-7.9c1.8-0.9,0.9-1.8,0-3.5l-13.2-7.9c-1.6-0.9-3.6-0.9-5.3,0
				l-14,7.9c-1.8,0.9-0.9,1.8,0,3.5l12.3,7.9C588,200.5,589.7,200.5,591.5,199.6L591.5,199.6z M458.2,179.5l12.3,7.9
				c1.6,0.9,3.6,0.9,5.3,0l14-7.9c0.7-0.5,0.9-1.6,0.3-2.3c-0.1-0.1-0.2-0.2-0.3-0.3l-12.3-7.9c-1.6-0.9-3.6-0.9-5.3,0l-14,7.9
				C456.4,176.8,456.4,178.6,458.2,179.5L458.2,179.5z M500.3,177.7l-13.2,7.9c-1.8,0.9-0.9,1.8,0,2.6l12.3,7.9
				c1.6,0.9,3.6,0.9,5.3,0l14-7.9c0.7-0.5,0.9-1.6,0.3-2.3c-0.1-0.1-0.2-0.2-0.3-0.3l-13.2-7C503.8,177.7,502,176.8,500.3,177.7
				L500.3,177.7z M539.8,202.3l14-7.9c1.8-0.9,0.9-1.8,0-3.5l-12.3-7.9c-1.6-0.9-3.6-0.9-5.3,0l-14,7.9c-1.8,0.9-0.9,1.8,0,3.5
				l12.3,7.9C536.2,203.1,538.9,203.1,539.8,202.3L539.8,202.3z M568.7,212.8l14-7.9c1.8-0.9,0.9-1.8,0-3.5l-12.3-7.9
				c-1.6-0.9-3.6-0.9-5.3,0l-14,7.9c-1.8,0.9-0.9,1.8,0,3.5l12.3,7.9C565.2,212.8,567.8,213.7,568.7,212.8L568.7,212.8z
				 M436.3,191.7l12.3,7.9c1.6,0.9,3.6,0.9,5.3,0l14-7.9c0.7-0.5,0.9-1.6,0.3-2.3c-0.1-0.1-0.2-0.2-0.3-0.3l-12.3-7.9
				c-1.6-0.9-3.6-0.9-5.3,0l-14,7.9C434.5,190,434.5,190.9,436.3,191.7z M478.4,190.9l-14,7.9c-1.8,0.9-0.9,1.8,0,2.6l12.3,7.9
				c1.6,0.9,3.6,0.9,5.3,0l14-7.9c0.7-0.5,0.9-1.6,0.3-2.3c-0.1-0.1-0.2-0.2-0.3-0.3l-12.3-7.9C482,190,480,190,478.4,190.9
				L478.4,190.9z M517.8,215.4l14-7.9c0.7-0.5,0.9-1.6,0.3-2.3c-0.1-0.1-0.2-0.2-0.3-0.3l-12.3-8.8c-1.6-0.9-3.6-0.9-5.3,0l-14,7.9
				c-1.8,0.9-0.9,1.8,0,3.5l12.3,7.9C514.3,216.3,517,216.3,517.8,215.4L517.8,215.4z M546.8,225.1l14-7.9c0.7-0.5,0.9-1.6,0.3-2.3
				c-0.1-0.1-0.2-0.2-0.3-0.3l-12.3-7.9c-1.6-0.9-3.6-0.9-5.3,0l-14,7c-1.8,0.9-0.9,1.8,0,3.5l12.3,7.9
				C543.3,225.9,545.9,225.9,546.8,225.1z M413.5,204.9l12.3,7.9c1.6,0.9,3.6,0.9,5.3,0l14-7.9c0.7-0.5,0.9-1.6,0.3-2.3
				c-0.1-0.1-0.2-0.2-0.3-0.3l-12.3-7.9c-1.6-0.9-3.6-0.9-5.3,0l-14,7.9C412.6,202.3,412.6,204,413.5,204.9z M456.4,203.1l-14,7.9
				c-0.7,0.5-0.9,1.6-0.3,2.3c0.1,0.1,0.2,0.2,0.3,0.3l12.3,7.9c1.6,0.9,3.6,0.9,5.3,0l14-7.9c0.7-0.5,0.9-1.6,0.3-2.3
				c-0.1-0.1-0.2-0.2-0.3-0.3l-12.3-7.9H456.4z M495.9,228.6l14-7.9c0.7-0.5,0.9-1.6,0.3-2.3c-0.1-0.1-0.2-0.2-0.3-0.3l-12.3-7.9
				c-1.6-0.9-3.6-0.9-5.3,0l-14,7c-0.9,0.9-0.9,1.8,0,3.5l12.3,7.9C492.4,228.6,495,229.5,495.9,228.6L495.9,228.6z M524.8,238.2
				l14-7.9c0.7-0.5,0.9-1.6,0.3-2.3c-0.1-0.1-0.2-0.2-0.3-0.3l-12.3-7.9c-1.6-0.9-3.6-0.9-5.3,0l-14,7.9c-1.8,0.9-0.9,1.8,0,3.5
				l12.3,7.9C521.3,239.1,524,239.1,524.8,238.2L524.8,238.2z M391.5,217.2l12.3,7.9c1.6,0.9,3.6,0.9,5.3,0l14-7.9
				c1.8-0.9,0.9-1.8,0-2.6l-12.3-7.9c-1.6-0.9-3.6-0.9-5.3,0l-14,7.9c-0.7,0.5-0.9,1.6-0.3,2.3C391.3,217,391.4,217.1,391.5,217.2
				L391.5,217.2z M434.5,216.3l-14,7.9c-0.7,0.5-0.9,1.6-0.3,2.3c0.1,0.1,0.2,0.2,0.3,0.3l12.3,7.9c1.6,0.9,3.6,0.9,5.3,0l14-7.9
				c1.8-0.9,0.9-1.8,0-2.6l-12.3-7.9C438,215.4,435.4,215.4,434.5,216.3L434.5,216.3z M474,240.9l14-7.9c0.7-0.5,0.9-1.6,0.3-2.3
				c-0.1-0.1-0.2-0.2-0.3-0.3l-13.2-7.9c-1.6-0.9-3.6-0.9-5.3,0l-14,7.9c-0.9,0.9-0.9,1.8,0,3.5l12.3,7.9
				C470.5,241.7,472.2,241.7,474,240.9z M502.9,251.4l14-7.9c0.7-0.5,0.9-1.6,0.3-2.3c-0.1-0.1-0.2-0.2-0.3-0.3l-12.3-7.9
				c-1.6-0.9-3.6-0.9-5.3,0l-14,7c-0.9,0.9-0.9,1.8,0,3.5l12.3,7.9L502.9,251.4z M369.6,230.3l12.3,7.9c1.6,0.9,3.6,0.9,5.3,0
				l14-7.9c1.8-0.9,0.9-1.8,0-3.5l-12.3-7.9c-1.6-0.9-3.6-0.9-5.3,0l-14,7.9C367.9,227.7,368.7,229.5,369.6,230.3L369.6,230.3z
				 M412.6,229.5l-14,7.9c-0.7,0.5-0.9,1.6-0.3,2.3c0.1,0.1,0.2,0.2,0.3,0.3l12.3,7.9c1.6,0.9,3.6,0.9,5.3,0l14-7.9
				c1.8-0.9,0.9-1.8,0-3.5l-13.2-7C415.6,228.6,413.9,228.6,412.6,229.5L412.6,229.5z M452.1,254l14-7.9c1.8-0.9,0.9-1.8,0-2.6
				l-12.3-7.9c-1.6-0.9-3.6-0.9-5.3,0l-14,7c-0.9,0.9-0.9,1.8,0,3.5l12.3,7.9C448.4,254.9,450.4,254.9,452.1,254L452.1,254z
				 M481,263.7l14-7.9c1.8-0.9,0.9-1.8,0-2.6l-12.3-7.9c-1.6-0.9-3.6-0.9-5.3,0l-14,7.9c-0.9,0.9-0.9,1.8,0,3.5l12.3,7.9
				C477.5,264.7,479.3,264.4,481,263.7L481,263.7z M347.7,243.5l12.3,7.9c1.6,0.9,3.6,0.9,5.3,0l14-7.9c1.8-0.9,0.9-1.8,0-3.5
				l-12.3-7.9c-1.6-0.9-3.6-0.9-5.3,0l-14,7.9C345.9,240.9,345.9,242.6,347.7,243.5L347.7,243.5z M390.7,241.7l-14,7.9
				c-1.8,0.9-0.9,1.8,0,3.5l12.3,7.9c1.6,0.9,3.6,0.9,5.3,0l14-7.9c1.8-0.9,0.9-1.8,0-3.5l-12.3-7.9
				C394.2,241.7,391.5,240.9,390.7,241.7L390.7,241.7z M430.1,267.2l14-7.9c1.8-0.9,0.9-1.8,0-3.5l-12.3-7.9c-1.6-0.9-3.6-0.9-5.3,0
				l-14,7.9c-0.9,0.9-0.9,1.8,0,3.5l12.3,7.9L430.1,267.2z M459.1,276.8l14-7.9c1.8-0.9,0.9-1.8,0-2.6l-13.2-8.8
				c-1.6-0.9-3.6-0.9-5.3,0l-14,7.9c-0.9,0.9-0.9,1.8,0,3.5l12.3,7.9C455.6,276.8,457.3,277.7,459.1,276.8z M625.7,203.1l-12.3-7.9
				c-1.6-0.9-3.6-0.9-5.3,0l-21,12.3c-1.8,0.9-0.9,1.8,0,3.5l12.3,7.9c1.6,0.9,3.6,0.9,5.3,0l21-12.3
				C626.6,204.9,626.6,204,625.7,203.1L625.7,203.1z M596.8,219.8l-12.3-7.9c-1.6-0.9-3.6-0.9-5.3,0l-101.7,59.6
				c-0.7,0.5-0.9,1.6-0.3,2.3c0.1,0.1,0.2,0.2,0.3,0.3l12.3,7.9c1.6,0.9,3.6,0.9,5.3,0l101.7-59.6
				C598.5,221.6,598.5,220.7,596.8,219.8L596.8,219.8z M325.8,255.8l12.3,7.9c1.6,0.9,3.6,0.9,5.3,0l14-7.9c0.7-0.5,0.9-1.6,0.3-2.3
				c-0.1-0.1-0.2-0.2-0.3-0.3l-12.3-7.9c-1.6-0.9-3.6-0.9-5.3,0l-14,7.9C324,254,324,254.9,325.8,255.8z M367.9,254.9l-14,7.9
				c-1.8,0.9-0.9,1.8,0,3.5l12.3,7.9c1.6,0.9,3.6,0.9,5.3,0l14-7.9c1.8-0.9,0.9-1.8,0-3.5l-12.3-7.9
				C371.5,254,369.5,254,367.9,254.9L367.9,254.9z M409.1,260.1c-1.6-0.9-3.6-0.9-5.3,0l-13.2,7.9c-1.8,0.9-0.9,1.8,0,3.5l12.3,7.9
				c1.6,0.9,3.6,0.9,5.3,0l14-7.9c1.8-0.9,0.9-1.8,0-3.5L409.1,260.1z M437.2,289.1l14-7.9c1.8-0.9,0.9-1.8,0-3.5l-12.3-7.9
				c-1.6-0.9-3.6-0.9-5.3,0l-14,7.9c-1.8,0.9-0.9,1.8,0,3.5l12.3,7.9C433.5,290,435.5,290,437.2,289.1L437.2,289.1z M486.3,283.8
				l-12.3-7.9c-1.6-0.9-3.6-0.9-5.3,0l-14,7.9c-0.9,0.9-0.9,1.8,0,3.5l12.3,7.9c1.6,0.9,3.6,0.9,5.3,0l14-7.9
				C488,285.6,487.1,284.7,486.3,283.8L486.3,283.8z M334.5,266.3l-12.3-7.9c-1.6-0.9-3.6-0.9-5.3,0l-14,7.9c-1.8,0.9-0.9,1.8,0,3.5
				l12.3,7.9c1.6,0.9,3.6,0.9,5.3,0l14-7.9C335.4,268,335.4,267.2,334.5,266.3z M363.5,275.9l-12.3-7.9c-1.6-0.9-3.6-0.9-5.3,0
				l-21,12.3c-1.8,0.9-0.9,1.8,0,2.6l12.3,7.9c1.6,0.9,3.6,0.9,5.3,0l21-12.3C365.2,278.6,365.2,276.8,363.5,275.9z M368.7,283.8
				l12.3,7.9c1.6,0.9,3.6,0.9,5.3,0l14-7.9c0.7-0.5,0.9-1.6,0.3-2.3c-0.1-0.1-0.2-0.2-0.3-0.3l-12.3-7.9c-1.6-0.9-3.6-0.9-5.3,0
				l-14,7.9C367,282.1,367,283,368.7,283.8z M397.7,294.4l12.3,7.9c1.6,0.9,3.6,0.9,5.3,0l14-7.9c1.8-0.9,0.9-1.8,0-3.5L417,283
				c-1.6-0.9-3.6-0.9-5.3,0l-14,7.9C395.9,291.7,395.9,292.6,397.7,294.4z M464.3,296.1l-12.3-7.9c-1.6-0.9-3.6-0.9-5.3,0l-14,7.9
				c-1.8,0.9-0.9,1.8,0,3.5l12.3,7.9c1.6,0.9,3.6,0.9,5.3,0l14-7.9C465.2,298.7,465.2,297.9,464.3,296.1L464.3,296.1z M377.5,294.4
				l-12.3-7.9c-1.6-0.9-3.6-0.9-5.3,0l-14,7.9c-1.8,0.9-0.9,1.8,0,3.5l12.3,7.9c1.6,0.9,3.6,0.9,5.3,0l14-7.9
				C378.4,296.1,378.4,295.2,377.5,294.4L377.5,294.4z M406.5,304l-12.3-7.9c-1.6-0.9-3.6-0.9-5.3,0l-21,12.3
				c-1.8,0.9-0.9,1.8,0,3.5l12.3,7.9c1.6,0.9,3.6,0.9,5.3,0l21-12.3C407.3,306.5,407.3,305,406.5,304L406.5,304z M442.4,309.3
				l-12.3-7.9c-1.6-0.9-3.6-0.9-5.3,0l-14,7.9c-1.8,0.9-0.9,1.8,0,3.5l12.3,7.9c1.6,0.9,3.6,0.9,5.3,0l14-7.9
				C443.3,311.8,443.3,310.3,442.4,309.3z M419.6,322.4l-12.3-7.9c-1.6-0.9-3.6-0.9-5.3,0l-14,7.9c-1.8,0.9-0.9,1.8,0,3.5l12.3,7.9
				c1.6,0.9,3.6,0.9,5.3,0l14-7.9C421.4,324.2,421.4,323.3,419.6,322.4L419.6,322.4z"/>
		</g>
	</g>
	<path id="Trazado_290" class="st1" d="M980.4,3435.6h-73.7l-433.2,250.8l17.5,4.4h47.4l153.5-88.6l8.8-1.8
		c14-3.5,28.9-0.9,42.1,6.1l39.5,22.8c0.9,0.9,1.8,0.9,3.5,0.9h7l14-35.1l-17.5-49.1L980.4,3435.6z"/>
	<g id="Grupo_108" transform="translate(290.684 2917.999)">
		<g id="Grupo_107" transform="translate(156.708 359.789)">
			
				<linearGradient id="Trazado_291_1_" gradientUnits="userSpaceOnUse" x1="-277.1863" y1="640.8419" x2="-276.1883" y2="640.8419" gradientTransform="matrix(164 0 0 -94.716 45754.2227 60996.1406)">
				<stop  offset="0" style="stop-color:#F8F6FA"/>
				<stop  offset="1" style="stop-color:#FBF8FC"/>
			</linearGradient>
			<path id="Trazado_291" class="st7" d="M411.1,250.8l-115.8,66.7l48.2,28.1l115.8-66.7L411.1,250.8z"/>
			<path id="Trazado_292" class="st4" d="M460.2,279.7L460.2,279.7c-0.9-0.9-116.6,65.8-116.6,65.8l0.9,0.9c0.9,1.8,0.9,5.3,0,6.1
				l115.8-66.7C461.1,285,461.1,281.5,460.2,279.7z"/>
			
				<linearGradient id="Trazado_293_1_" gradientUnits="userSpaceOnUse" x1="-276.6449" y1="640.3165" x2="-276.5219" y2="640.1176" gradientTransform="matrix(148.2921 0 0 -159.614 41385.4922 102438.8906)">
				<stop  offset="0" style="stop-color:#CFCAD5"/>
				<stop  offset="1" style="stop-color:#EAE7ED"/>
			</linearGradient>
			<path id="Trazado_293" class="st8" d="M401.5,239.4c-1.8-5.3-2.6-9.6-0.9-13.2l31.6-69.3l-115.8,66.7l-31.6,69.3
				c-1.8,3.5-0.9,7.9,0.9,12.3c0.9,2.6,2.4,5,4.4,7c1.5,1.7,3.3,3.2,5.3,4.4l115.8-66.7c-2-1.2-3.7-2.7-5.3-4.4
				C404.1,244.7,403.2,242,401.5,239.4z"/>
			<path id="Trazado_294" class="st5" d="M343.6,345.5l-48.2-28.1c-4.1-3-7.4-6.9-9.6-11.4c-1.8-5.3-2.6-9.6-0.9-13.2l31.6-69.3
				v-68.4c0-1.8-0.9-4.4-2.6-5.3s-2.6,0-2.6,1.8v66.7l-31.6,69.3c-2,6.4-1.4,13.3,1.8,19.3c3.5,7,8.8,14,14,16.7l48.2,28.1
				C345.3,353.4,345.3,346.4,343.6,345.5z"/>
			
				<linearGradient id="Trazado_295_1_" gradientUnits="userSpaceOnUse" x1="-276.1199" y1="640.4111" x2="-277.1159" y2="640.4111" gradientTransform="matrix(121.026 0 0 -140.9747 33850.2461 90434.9062)">
				<stop  offset="0" style="stop-color:#E0DBE1"/>
				<stop  offset="1" style="stop-color:#E0DBE1"/>
			</linearGradient>
			<path id="Trazado_295" class="st9" d="M432.2,85.9c0-0.9-0.9-0.9-0.9-1.8c0-0.9-0.9-0.9-1.8-0.9c-0.9-0.9-1.8-0.9-1.8,0
				L312,149.9h1.8c0.9,0,0.9,0.9,1.8,0.9c0.9,0.9,0.9,0.9,0.9,1.8s0.9,1.8,0.9,2.6v68.4L433,157V88.6
				C432.4,87.9,432,86.9,432.2,85.9z"/>
		</g>
		<g id="_x31__2_">
			<path id="Trazado_296" class="st5" d="M288.1,726.3l-9.6-5.3V359.8l9.6,5.3V726.3z"/>
			
				<linearGradient id="Trazado_297_1_" gradientUnits="userSpaceOnUse" x1="-120.6148" y1="999.7583" x2="-119.6168" y2="999.7583" gradientTransform="matrix(490.247 0 0 -282.394 59409.9648 282549.5938)">
				<stop  offset="0" style="stop-color:#F8F6FA"/>
				<stop  offset="1" style="stop-color:#FBF8FC"/>
			</linearGradient>
			<path id="Trazado_297" class="st10" d="M288.1,365l-9.6-5.3L759,82.6l9.6,5.3L288.1,365z"/>
			<path id="Trazado_298" class="st4" d="M768.7,87.9v361.3L288.1,726.3V365L768.7,87.9z"/>
			<path id="Trazado_299" class="st1" d="M289.8,366.8L766,92.3v312.2L289.8,679.9V366.8z"/>
		</g>
		<path id="Trazado_300" class="st11" d="M559.9,550.1l-17.5,9.6c-2.6,1.8-4.4,0.9-4.4-1.8s1.8-5.3,4.4-7l16.7-9.6
			c2.6-1.8,4.4-0.9,4.4,1.8S561.7,548.3,559.9,550.1z"/>
	</g>
	<g id="Grupo_109" transform="translate(353.828 2953.956)">
		<path id="Trazado_301" class="st12" d="M278.4,378.2V672l475.3-274.5V103.7L278.4,378.2z"/>
		<path id="Trazado_302" class="st11" d="M278.4,357.1v24.6l475.3-274.5V82.6L278.4,357.1z"/>
	</g>
	<g id="Grupo_126" transform="translate(367.86 3013.592)">
		<g id="Grupo_117" transform="translate(0 156.593)">
			<g id="Grupo_110" transform="translate(0.877 61.78)">
				<path id="Trazado_303" class="st13" d="M501.2,89.6l-15.8,6.1l-19.3,11.4l-17.5,4.4l-21.9,21.9l-25.4,11.4l-29.8,38.6
					l-28.1,20.2l-24.6,25.4l-21,17.5l-15.8,34.2v72.8l252.6-144.7V82.6l-21.9,12.3L501.2,89.6z"/>
				<path id="Trazado_304" class="st14" d="M503.8,123l-20.2,7.9l-17.5,14.9l-21.9,13.2l-21.9,23.7l-24.6,16.7l-26.3,27.2
					l-34.2,28.9l-21.9,28.1l-18.4,14.9L281.9,315v38.6l252.6-144.7V105.4L503.8,123z"/>
				<path id="Trazado_305" class="st15" d="M503.8,166.8l-20.2,6.1l-17.5,21l-26.3,21.9l-17.5,0.9L399.4,237l-19.3,30.7l-39.5,22.8
					l-33.3,33.3l-14,19.3l-11.4,6.1v4.4l252.6-144.7v-59.6L503.8,166.8z"/>
				<path id="Trazado_306" class="st16" d="M281.9,353.6V185.2l-3.5,2.6v1.8l1.8-1.8v26.3l-1.8,0.9v2.6l1.8-1.8v26.3l-1.8,0.9v1.8
					l1.8-0.9v26.3l-1.8,0.9v1.8l1.8-0.9v26.3l-1.8,0.9v1.8l1.8-0.9v26.3l-1.8,0.9v1.8l1.8-0.9v28.1l28.9-16.7v2.6l1.8-1.8v-1.8
					l26.3-14.9v1.8l1.8-0.9v-2.6l26.3-14.9v2.6l1.8-0.9v-2.6l25.4-14.9v1.8l1.8-0.9v-1.8l26.3-15.8v2.6l1.8-0.9v-2.6l26.3-14.9v1.8
					l1.8-0.9V258l26.3-15.8v2.6l1.8-0.9v-2.6l26.3-14.9v2.6l1.8-0.9v-2.6l26.3-14.9v1.8l1.8-0.9V208L281.9,353.6z"/>
			</g>
			<g id="Grupo_116">
				<g id="Grupo_111" transform="translate(11.401 124.047)">
					<path id="Trazado_307" class="st16" d="M281.9,101.9l1.8-0.9v0.9l0,0l-1.8,0.9v1.8H281v-1.8l-2.6,1.8v-0.9l0,0l1.8-0.9V101h0.9
						C281.9,100.2,281.9,101.9,281.9,101.9z"/>
					<path id="Trazado_308" class="st16" d="M285.4,104.6v-0.9c0-0.9,0-0.9,0.9-1.8l2.6-3.5c0-0.9,0.9-0.9,0.9-1.8
						c0-0.9,0-0.9-0.9-0.9h-0.9c-0.5,0-0.9,0.4-0.9,0.8c0,0,0,0,0,0v1.8l0,0l-0.9,0.9v-0.9c0-0.9,0-0.9,0.9-1.8
						c0-0.9,0.9-0.9,1.8-1.8l0.9-0.9c0.9,0,0.9-0.9,1.8,0l0.9,0.9v0.9c0,0.9,0,1.8-0.9,1.8l-4.4,3.5v0.9l3.5-1.8v0.9l0,0
						L285.4,104.6z"/>
					<path id="Trazado_309" class="st16" d="M292.4,98.4v1.8l-0.9,1.8v-2.6C291.6,98.8,291.9,98.4,292.4,98.4
						C292.4,98.4,292.4,98.4,292.4,98.4z"/>
					<path id="Trazado_310" class="st16" d="M297.7,97.5l-1.8,0.9c-0.9,0-0.9,0.9-1.8,0l-0.9-0.9v-4.4c0-0.9,0-0.9,0.9-1.8
						c0-0.9,0.9-0.9,1.8-1.8l0.9-0.9c0.9,0,0.9-0.9,1.8,0l0.9,0.9V94c0,0.9,0,0.9-0.9,1.8C298.6,96.7,298.6,97.5,297.7,97.5z
						 M296.8,96.7l0.9-0.9c0.9,0,0.9-0.9,0.9-1.8v-4.4c0-0.9,0-0.9-0.9,0l-0.9,0.9c-0.9,0.9-0.9,0.9-0.9,1.8v4.4
						C295.9,97.5,295.9,97.5,296.8,96.7z"/>
					<path id="Trazado_311" class="st16" d="M300.3,89.6L300.3,89.6v-0.9l1.8-1.8l0,0l0.9-0.9V94l-0.9,0.9v-7L300.3,89.6z"/>
					<path id="Trazado_312" class="st16" d="M308.2,87L308.2,87l-0.9,0.9c0,0.9,0,0.9-0.9,0.9l-0.9,0.9v-4.4l4.4-2.6v0.9l0,0
						l-3.5,1.8v2.6C306.5,87,307.3,87,308.2,87v-0.9c0.9,0,0.9-0.9,1.8,0l0.9,0.9v1.8c0,0.9,0,0.9-0.9,1.8c0,0.9-0.9,0.9-1.8,1.8
						h-0.9c-0.9,0-0.9,0.9-1.8,0l-0.9-0.9v-0.9l0.9-0.9c0,0.5,0.4,0.9,0.8,0.9c0,0,0,0,0,0h0.9c0.9,0,0.9-0.9,0.9-1.8v-0.9
						C309.1,87,309.1,87,308.2,87z"/>
				</g>
				<path id="Trazado_313" class="st17" d="M282.8,228.6l-4.4,11.4l9.6-5.3L282.8,228.6z"/>
				<g id="Grupo_112" transform="translate(65.775 91.208)">
					<path id="Trazado_314" class="st16" d="M281,104.1l1.8-0.9v0.9l0,0l-1.8,0.9v1.8h-0.9v-1.8l-1.8,0.9v-0.9l0,0l1.8-0.9v-1.8h0.9
						V104.1z"/>
					<path id="Trazado_315" class="st16" d="M287.2,100.6L287.2,100.6l-0.9,0.9c0,0.9,0,0.9-0.9,0.9l-0.9,0.9v-4.4l4.4-2.6v0.9l0,0
						l-2.6,1.8v2.6C286.3,100.6,286.3,99.7,287.2,100.6v-0.9c0.9,0,0.9-0.9,1.8,0l0.9,0.9v1.8c0,0.9,0,0.9-0.9,1.8
						c0,0.9-0.9,0.9-1.8,1.8l-0.9,0.9c-0.9,0-0.9,0.9-1.8,0l-0.9-0.9c0-0.5,0.4-0.9,0.8-0.9c0,0,0,0,0,0c0,0.5,0.4,0.9,0.8,0.9
						c0,0,0,0,0,0h0.9c0.9,0,0.9-0.9,0.9-1.8v-0.9C288.1,100.6,288.1,100.6,287.2,100.6C288.1,99.7,288.1,100.6,287.2,100.6z"/>
					<path id="Trazado_316" class="st16" d="M292.4,100.6v1.8l-0.9,1.8v-2.6C291.6,100.6,292.4,99.7,292.4,100.6z"/>
					<path id="Trazado_317" class="st16" d="M297.7,98.8L297.7,98.8c-0.5,0-0.9-0.4-0.9-0.8c0,0,0,0,0,0l-3.5,1.8l0,0v-0.9l2.6-7
						c0.5-0.5,1.1-0.8,1.8-0.9l0,0v5.3l0.9-0.9v0.9l0,0l-0.9,0.9C297.7,97.1,297.7,98.8,297.7,98.8z M296.8,96.2v-4.4l-2.6,6.1
						L296.8,96.2z"/>
					<path id="Trazado_318" class="st16" d="M303,90.9L303,90.9l-0.9,0.9c0,0.9,0,0.9-0.9,0.9l-0.9,0.9v-4.4l4.4-2.6v0.9l0,0
						l-3.5,1.8v2.6C302.1,90.9,302.1,90.9,303,90.9V90c0.9,0,0.9-0.9,1.8,0l0.9,0.9v1.8c0,0.9,0,0.9-0.9,1.8c0,0.9-0.9,0.9-1.8,1.8
						l-0.9,0.9c-0.9,0-0.9,0.9-1.8,0l-0.9-0.9v-0.9l0.9-0.9c0,0.5,0.4,0.9,0.8,0.9c0,0,0,0,0,0h0.9c0.9,0,0.9-0.9,0.9-1.8v-0.9
						C303.8,91.8,303.8,90.9,303,90.9z"/>
					<path id="Trazado_319" class="st16" d="M310,91.8l-1.8,0.9c-0.9,0-0.9,0.9-1.8,0l-0.9-0.9v-0.9c0-0.9,0-1.8,0.9-1.8
						c-0.9,0-0.9,0-0.9-0.9v-0.9c0-0.9,0-0.9,0.9-1.8c0-0.9,0.9-0.9,1.8-1.8L310,83c0.9,0,0.9-0.9,1.8,0l0.9,0.9v1.8
						c0,0.5-0.4,0.9-0.8,0.9c0,0,0,0,0,0c0.9,0,0.9,0,0.9,0.9v0.9c0,0.9,0,0.9-0.9,1.8C311.7,90.9,310.9,90.9,310,91.8z M309.1,87.4
						l0.9-0.9c0.9,0,0.9-0.9,0.9-1.8V83H310l-0.9,0.9c-0.5,0-0.9,0.4-0.9,0.8c0,0,0,0,0,0v1.8C308.2,88.3,308.2,88.3,309.1,87.4z
						 M309.1,90.9L310,90c0.5,0,0.9-0.4,0.9-0.8c0,0,0,0,0,0v-1.8c0-0.9,0-0.9-0.9,0l-0.9,0.9c-0.9,0-0.9,0.9-0.9,1.8v0.9H309.1
						C308.2,91.8,309.1,91.8,309.1,90.9z"/>
				</g>
				<path id="Trazado_320" class="st17" d="M337.2,197.9l-5.3,10.5l9.6-5.3L337.2,197.9z"/>
				<g id="Grupo_113" transform="translate(118.395 62.267)">
					<path id="Trazado_321" class="st16" d="M281,103.2l-2.6,1.8v-0.9l2.6-1.8C281,102.3,281,103.2,281,103.2z"/>
					<path id="Trazado_322" class="st16" d="M281.9,99.7L281.9,99.7v-0.9l1.8-1.8l0,0l0.9-0.9v7.9l-0.9,0.9v-7L281.9,99.7z"/>
					<path id="Trazado_323" class="st16" d="M288.1,101.4v1.8l-0.9,1.8v-2.6C287.2,101.8,287.5,101.4,288.1,101.4
						C288,101.4,288,101.4,288.1,101.4z"/>
					<path id="Trazado_324" class="st16" d="M292.4,100.6l-0.9,0.9c-0.9,0-0.9,0.9-1.8,0l-0.9-0.9v-4.4c0-0.9,0-0.9,0.9-1.8
						c0-0.9,0.9-0.9,1.8-1.8l0.9-0.9c0.9,0,0.9-0.9,1.8,0l0.9,0.9v4.4c0,0.9,0,0.9-0.9,1.8C294.2,99.7,293.3,99.7,292.4,100.6z
						 M291.6,99.7l0.9-0.9c0.9,0,0.9-0.9,0.9-1.8v-4.4c0-0.9,0-0.9-0.9,0l-0.9,0.9c-0.9,0-0.9,0.9-0.9,1.8v4.4
						C290.7,99.7,290.7,100.6,291.6,99.7z"/>
					<path id="Trazado_325" class="st16" d="M299.5,96.2l-0.9,0.9c-0.9,0-0.9,0.9-1.8,0l-0.9-0.9v-4.4c0-0.9,0-0.9,0.9-1.8
						c0-0.9,0.9-0.9,1.8-1.8l0.9-0.9c0.9,0,0.9-0.9,1.8,0l0.9,0.9v4.4c0,0.9,0,0.9-0.9,1.8C300.3,95.3,300.3,96.2,299.5,96.2z
						 M298.6,96.2l0.9-0.9c0.9,0,0.9-0.9,0.9-1.8v-4.4c0-0.9,0-0.9-0.9,0l-0.9,0.9c-0.9,0-0.9,0.9-0.9,1.8v4.4L298.6,96.2z"/>
					<path id="Trazado_326" class="st16" d="M304.7,88.3L304.7,88.3c1.8-0.9,1.8-0.9,1.8-1.8v-0.9c0-0.9,0-0.9-0.9,0h-0.9
						c-0.5,0-0.9,0.4-0.9,0.8c0,0,0,0,0,0v0.9c0,0.5-0.4,0.9-0.8,0.9c0,0,0,0,0,0v-2.6c0-0.9,0.9-0.9,1.8-1.8l0.9-0.9
						c0.9,0,0.9-0.9,1.8,0l0.9,0.9v0.9c0,0.9,0,1.8-0.9,1.8c0.9,0,0.9,0,0.9,0.9v0.9c0,0.9,0,0.9-0.9,1.8c0,0.9-0.9,0.9-1.8,1.8
						l-0.9,0.9c-0.9,0-0.9,0.9-1.8,0l-0.9-0.9v-0.9L303,90c0,0.9,0,0.9,0.9,0.9h1.8c0.9,0,0.9-0.9,0.9-1.8v-0.9
						C306.5,89.2,306.5,89.2,304.7,88.3L304.7,88.3L304.7,88.3z"/>
				</g>
				<path id="Trazado_327" class="st18" d="M390.7,175.1l-5.3-5.3l9.6-5.3L390.7,175.1z"/>
				<g id="Grupo_114" transform="translate(172.769 30.208)">
					<path id="Trazado_328" class="st16" d="M281,102.8l1.8-0.9v0.9l0,0l-1.8,0.9v1.8h-0.9v-1.8l-1.8,0.9v-0.9l0,0l1.8-0.9V101h0.9
						V102.8z"/>
					<path id="Trazado_329" class="st16" d="M284.5,99.3L284.5,99.3v-0.9l1.8-1.8l0,0l0.9-0.9v7.9l-0.9,0.9v-7L284.5,99.3z"/>
					<path id="Trazado_330" class="st16" d="M290.7,100.2v1.8l-0.9,1.8V101C288.9,101,289.8,100.2,290.7,100.2z"/>
					<path id="Trazado_331" class="st16" d="M294.2,95.8L294.2,95.8c1.8-0.9,1.8-0.9,1.8-1.8v-0.9c0-0.9,0-0.9-0.9,0h-0.9
						c-0.5,0-0.9,0.4-0.9,0.8c0,0,0,0,0,0v0.9c0,0.5-0.4,0.9-0.8,0.9c0,0,0,0,0,0v-2.6c0-0.9,0.9-0.9,1.8-1.8l0.9-0.9
						c0.9,0,0.9-0.9,1.8,0l0.9,0.9v0.9c0,0.9,0,1.8-0.9,1.8c0.9,0,0.9,0,0.9,0.9v0.9c0,0.9,0,0.9-0.9,1.8c0,0.9-0.9,0.9-1.8,1.8
						l-0.9,0.9c-0.9,0-0.9,0.9-1.8,0l-0.9-0.9v-0.9l0.9-0.9c0,0.9,0,0.9,0.9,0.9h1.8c0.9,0,0.9-0.9,0.9-1.8v-0.9L294.2,95.8v0.9
						C293.3,96.7,293.3,95.8,294.2,95.8L294.2,95.8z"/>
					<path id="Trazado_332" class="st16" d="M301.2,95.8l-1.8,0.9c-0.9,0-0.9,0.9-1.8,0l-0.9-0.9v-0.9c0-0.9,0-1.8,0.9-1.8
						c-0.9,0-0.9,0-0.9-0.9v-0.9c0-0.9,0-0.9,0.9-1.8c0-0.9,0.9-0.9,1.8-1.8l1.8-0.9c0.9,0,0.9-0.9,1.8,0l0.9,0.9v1.8
						c0,0.5-0.4,0.9-0.8,0.9c0,0,0,0,0,0c0.9,0,0.9,0,0.9,0.9v0.9c0,0.9,0,0.9-0.9,1.8C302.9,95,302.2,95.7,301.2,95.8z M300.3,92.3
						l0.9-0.9c0.9,0,0.9-0.9,0.9-1.8v-1.8h-0.9l-0.9,1.8c-0.5,0-0.9,0.4-0.9,0.8c0,0,0,0,0,0v1.8L300.3,92.3z M300.3,95.8l0.9-0.9
						c0.5,0,0.9-0.4,0.9-0.8c0,0,0,0,0,0v-1.8c0-0.9,0-0.9-0.9,0l-0.9,0.9c-0.9,0-0.9,0.9-0.9,1.8v0.9H300.3z"/>
					<path id="Trazado_333" class="st16" d="M308.2,92.3l-0.9,0.9c-0.9,0-0.9,0.9-1.8,0l-0.9-0.9v-4.4c0-0.9,0-0.9,0.9-1.8
						c0-0.9,0.9-0.9,1.8-1.8l2.6-1.8v0.9l-2.6,1.8c-0.9,0-0.9,0.9-0.9,1.8v0.9l1.8-0.9c0.9,0,0.9-0.9,1.8,0l0.9,0.9v0.9
						c0,0.9,0,0.9-0.9,1.8L308.2,92.3z M307.3,91.4L307.3,91.4c1.8-0.9,1.8-1.8,1.8-1.8v-0.9c0-0.9,0-0.9-0.9,0l-1.8,0.9v1.8
						C306.5,91.4,306.5,92.3,307.3,91.4z"/>
				</g>
				<path id="Trazado_334" class="st17" d="M444.2,136.5l-4.4,10.5l8.8-5.3L444.2,136.5z"/>
				<g id="Grupo_115" transform="translate(225.389)">
					<path id="Trazado_335" class="st16" d="M281,104.1l-2.6,1.8v-0.9l2.6-1.8C281.9,103.2,281.9,103.2,281,104.1z"/>
					<path id="Trazado_336" class="st16" d="M284.5,100.6L284.5,100.6c1.8-0.9,1.8-0.9,1.8-1.8v-0.9c0-0.9,0-0.9-0.9,0h-0.9
						c-0.5,0-0.9,0.4-0.9,0.8c0,0,0,0,0,0v0.9c0,0.5-0.4,0.9-0.8,0.9c0,0,0,0,0,0v-2.6c0-0.9,0.9-0.9,1.8-1.8l0.9-0.9
						c0.9,0,0.9-0.9,1.8,0l0.9,0.9v0.9c0,0.9,0,1.8-0.9,1.8c0.9,0,0.9,0,0.9,0.9v0.9c0,0.9,0,0.9-0.9,1.8c0,0.9-0.9,0.9-1.8,1.8
						l-0.9,0.9c-0.9,0-0.9,0.9-1.8,0l-0.9-0.9v-0.9l0.9-0.9c0,0.9,0,0.9,0.9,0.9h1.8c0.9,0,0.9-0.9,0.9-1.8v-0.9L284.5,100.6
						L284.5,100.6L284.5,100.6z"/>
					<path id="Trazado_337" class="st16" d="M290.7,100.6v1.8l-0.9,1.8v-2.6C289.8,101,290.2,100.6,290.7,100.6
						C290.7,100.6,290.7,100.6,290.7,100.6z"/>
					<path id="Trazado_338" class="st16" d="M295.1,99.7l-2.6,0.9v-0.9l0,0l2.6-1.8c0.9,0,0.9-0.9,0.9-1.8v-0.9l-1.8,0.9
						c-0.9,0-0.9,0.9-1.8,0l-0.9-0.9v-0.9c0-0.9,0-0.9,0.9-1.8c0-0.9,0.9-0.9,1.8-1.8l0.9-0.9c0.9,0,0.9-0.9,1.8,0l0.9,0.9v4.4
						c0,0.9,0,0.9-0.9,1.8C296.5,98.1,295.9,99,295.1,99.7z M294.2,96.2l1.8-0.9v-1.8c0-0.9,0-0.9-0.9,0l-0.9,0.9
						c-0.9,0-0.9,0.9-0.9,1.8v0.9C293.3,96.2,293.3,96.2,294.2,96.2z"/>
					<path id="Trazado_339" class="st16" d="M301.2,91.8L301.2,91.8l-0.9,0.9c0,0.9,0,0.9-0.9,0.9h-0.9v-4.4l4.4-2.6v0.9l0,0
						l-3.5,1.8v2.6C300.3,91.8,300.3,90.9,301.2,91.8v-0.9c0.9,0,0.9-0.9,1.8,0l0.9,0.9v1.8c0,0.9,0,0.9-0.9,1.8
						c0,0.9-0.9,0.9-1.8,1.8l-0.9,0.9c-0.9,0-0.9,0.9-1.8,0l-0.9-0.9c0-0.5,0.4-0.9,0.8-0.9c0,0,0,0,0,0c0,0.5,0.4,0.9,0.8,0.9
						c0,0,0,0,0,0h0.9c0.9,0,0.9-0.9,0.9-1.8v-0.9C302.1,91.8,302.1,90.9,301.2,91.8z"/>
					<path id="Trazado_340" class="st16" d="M307.3,88.3L307.3,88.3c1.8-0.9,1.8-0.9,1.8-1.8v-0.9c0-0.9,0-0.9-0.9,0h-0.9
						c-0.5,0-0.9,0.4-0.9,0.8c0,0,0,0,0,0v0.9c0,0.5-0.4,0.9-0.8,0.9c0,0,0,0,0,0v-2.6c0-0.9,0.9-0.9,1.8-1.8l0.9-0.9
						c0.9,0,0.9-0.9,1.8,0l0.9,0.9v0.9c0,0.9,0,1.8-0.9,1.8c0.9,0,0.9,0,0.9,0.9v0.9c0,0.9,0,0.9-0.9,1.8c0,0.9-0.9,0.9-1.8,1.8
						l-0.9,0.9c-0.9,0-0.9,0.9-1.8,0l-0.9-0.9v-0.9l0.9-0.9c0,0.9,0,0.9,0.9,0.9h1.8c0.9,0,0.9-0.9,0.9-1.8v-0.9L307.3,88.3v0.9
						C306.5,89.2,306.5,88.3,307.3,88.3L307.3,88.3z"/>
				</g>
				<path id="Trazado_341" class="st18" d="M497.7,112.8l-4.4-5.3l8.8-5.3L497.7,112.8z"/>
			</g>
		</g>
		<g id="Grupo_119" transform="translate(288.533 47.358)">
			<g id="Grupo_118" transform="translate(3.508)" class="st19">
				<path id="Trazado_342" class="st16" d="M435.4,239.6l-157,90.3C278.4,329.9,435.4,238.7,435.4,239.6z"/>
				<path id="Trazado_343" class="st16" d="M435.4,208l-157,91.2C278.4,298.4,435.4,208,435.4,208z"/>
				<path id="Trazado_344" class="st16" d="M435.4,176.5l-157,91.2L435.4,176.5z"/>
				<path id="Trazado_345" class="st16" d="M435.4,145.8l-157,90.3C278.4,236.1,435.4,144.9,435.4,145.8z"/>
				<path id="Trazado_346" class="st16" d="M435.4,114.2l-157,91.2C278.4,204.5,435.4,114.2,435.4,114.2z"/>
				<path id="Trazado_347" class="st16" d="M435.4,82.6l-157,91.2L435.4,82.6z"/>
			</g>
			<path id="Trazado_348" class="st16" d="M281.9,360.6V173l-3.5,1.8v0.9l2.6-0.9v29.8l-2.6,1.8v0.9l2.6-1.8v30.7l-2.6,1.8v0.9
				l2.6-1.8v30.7l-2.6,0.9v1.8l2.6-1.8v29.8l-2.6,1.8v0.9l2.6-0.9v29.8l-2.6,1.8v0.9l2.6-1.8v31.6l31.6-18.4v2.6h1.8v-3.5l29.8-17.5
				v3.5l0.9-0.9v-2.6l30.7-17.5v2.6h0.9v-3.5l30.7-17.5v3.5l0.9-0.9v-3.5l29.8-16.7v2.6l0.9-0.9v-3.5L281.9,360.6z"/>
		</g>
		<g id="Grupo_120" transform="translate(301.688 116.641)">
			<path id="Trazado_349" class="st15" d="M301.2,267.7l-11.4,6.1V164.2l11.4-6.1V267.7z"/>
			<path id="Trazado_350" class="st15" d="M289.8,273.8l-11.4,7v-76.3l11.4-6.1V273.8z"/>
			<path id="Trazado_351" class="st15" d="M312.6,260.7l-11.4,7V94l11.4-7V260.7z"/>
			<path id="Trazado_352" class="st13" d="M324,254.5l-11.4,6.1V126.5l11.4-6.1V254.5z"/>
			<path id="Trazado_353" class="st13" d="M335.4,247.5l-11.4,7v-80.7l11.4-6.1V247.5z"/>
			<path id="Trazado_354" class="st13" d="M346.8,241.4l-11.4,6.1v-99.1l11.4-6.1V241.4z"/>
			<path id="Trazado_355" class="st14" d="M358.2,234.4l-11.4,7v-51.7l11.4-6.1V234.4z"/>
			<path id="Trazado_356" class="st14" d="M369.6,228.2l-11.4,6.1V92.3l11.4-7V228.2z"/>
			<path id="Trazado_357" class="st14" d="M381,221.2l-11.4,7V116.8l11.4-6.1V221.2z"/>
			<path id="Trazado_358" class="st20" d="M391.5,215.1l-10.5,6.1V88.8l10.5-6.1V215.1z"/>
			<path id="Trazado_359" class="st20" d="M402.9,208l-11.4,7V116l11.4-7V208z"/>
			<path id="Trazado_360" class="st20" d="M414.3,201.9l-11.4,6.1v-73.7l11.4-7V201.9z"/>
			<path id="Trazado_361" class="st16" d="M425.7,194.9l-11.4,7V180l11.4-6.1V194.9z"/>
		</g>
		<g id="Grupo_121" transform="translate(0.877 85.069)">
			<path id="Trazado_362" class="st20" d="M347.7,243.1l-69.3,39.5v-40.3l69.3-39.5V243.1z"/>
			<path id="Trazado_363" class="st14" d="M417,202.8l-69.3,39.5v-39.5l69.3-40.3V202.8z"/>
			<path id="Trazado_364" class="st13" d="M487.1,162.4L417,202.8v-40.3l70.2-40.3V162.4z"/>
			<path id="Trazado_365" class="st15" d="M556.4,122.1l-69.3,40.3v-40.3l69.3-39.5V122.1z"/>
		</g>
		<g id="Grupo_125" transform="translate(295.549)">
			<path id="Trazado_366" class="st14" d="M321.4,158.1l-43,24.6v-11.4l43-24.6V158.1z"/>
			<path id="Trazado_367" class="st13" d="M376.6,125.6l-43,24.6v-10.5l43-24.6V125.6z"/>
			<path id="Trazado_368" class="st20" d="M431.9,94l-43,24.6v-10.5l43-25.4V94z"/>
			<g id="Grupo_122" transform="translate(3.508 82.657)">
				<path id="Trazado_369" class="st14" d="M281,105.2l0.9-0.9c0.9-0.9,0.9-0.9,0.9-1.8v-0.9c0-0.9,0-0.9-0.9-0.9l-0.9,0.9l-0.9,0.9
					v1.8l0,0l-1.8,1.8v-0.9c-0.1-1,0.2-1.9,0.9-2.6l1.8-1.8l1.8-0.9c0.9-0.9,1.8-0.9,1.8,0c0.9,0,0.9,0.9,0.9,1.8v0.9
					c0.1,1-0.2,1.9-0.9,2.6c0.9,0,0.9,0,0.9,0.9v0.9c0.1,1-0.2,1.9-0.9,2.6l-1.8,1.8l-1.8,0.9c-0.9,0.9-1.8,0.9-1.8,0
					c-0.9,0-0.9-0.9-0.9-1.8v-1.8l0.9-0.9v1.8h0.9l0.9-0.9c0.9-0.9,0.9-0.9,0.9-1.8v-0.9C281.9,105.2,281.9,105.2,281,105.2
					l-0.9,0.9C281,107,281,106.1,281,105.2z"/>
				<path id="Trazado_370" class="st14" d="M288.1,105.2v1.8l0,0l-0.9,0.9v-1.8l0,0L288.1,105.2z"/>
				<path id="Trazado_371" class="st14" d="M294.2,103.5l-1.8,0.9c-0.5,0.5-1.1,0.8-1.8,0.9c-0.9,0-0.9-0.9-0.9-1.8v-0.9
					c-0.1-1,0.2-1.9,0.9-2.6c-0.9,0-0.9,0-0.9-1.8v-0.9c0-0.9,0-1.8,0.9-1.8l1.8-1.8l1.8-0.9c0.5-0.5,1.1-0.8,1.8-0.9
					c0.9,0,0.9,0.9,0.9,1.8v2.6c0,0.5-0.4,0.9-0.8,0.9c0,0,0,0,0,0c0.9,0,0.9,0,0.9,1.8v0.9c0.1,1-0.2,1.9-0.9,2.6
					C295.5,103.1,294.9,103.4,294.2,103.5z M293.3,99.1l0.9-0.9c0.9-0.9,0.9-0.9,0.9-1.8v-1.8h-0.9l-0.9,0.9l-0.9,0.9v1.8
					C291.6,99.1,292.4,99.1,293.3,99.1L293.3,99.1z M293.3,103.5l0.9-0.9l0.9-0.9V100c0-0.9,0-0.9-0.9-0.9l-0.9,0.9
					c-0.9,0.9-0.9,0.9-0.9,1.8v1.8H293.3z"/>
				<path id="Trazado_372" class="st14" d="M303,99.1l-1.8,0.9c-0.5,0.5-1.1,0.8-1.8,0.9c-0.9,0-0.9-0.9-0.9-1.8v-0.9
					c-0.1-1,0.2-1.9,0.9-2.6c-0.9,0-0.9,0-0.9-1.8v-0.9c0-0.9,0-1.8,0.9-1.8l1.8-1.8l1.8-0.9c0.5-0.5,1.1-0.8,1.8-0.9
					c0.9,0,0.9,0.9,0.9,1.8v2.6c0,0.5-0.4,0.9-0.8,0.9c0,0,0,0,0,0c0.9,0,0.9,0,0.9,1.8v0.9c0.1,1-0.2,1.9-0.9,2.6
					C304,98.3,303.4,98.6,303,99.1z M301.2,93.8l0.9-0.9c0.9-0.9,0.9-0.9,0.9-1.8v-1.8h-0.9l-0.9,0.9l-0.9,0.9v1.8
					C300.3,93.4,300.7,93.8,301.2,93.8C301.2,93.8,301.2,93.8,301.2,93.8L301.2,93.8z M301.2,98.2l0.9-0.9l0.9-0.9v-1.8
					c0-0.9,0-0.9-0.9-0.9l-0.9,0.9c-0.9,0.9-0.9,0.9-0.9,1.8v1.8L301.2,98.2z"/>
				<path id="Trazado_373" class="st14" d="M311.7,93.8l-3.5,1.8v-1.8l3.5-1.8c0.9-0.9,0.9-0.9,0.9-1.8v-1.8l-2.6,1.8
					c-0.9,0.9-1.8,0.9-1.8,0c-0.9,0-0.9-0.9-0.9-1.8l0,0c-0.1-1,0.2-1.9,0.9-2.6l1.8-1.8l1.8-0.9c0.9-0.9,1.8-0.9,1.8,0
					c0.9,0,0.9,0.9,0.9,1.8v5.3c0.1,1-0.2,1.9-0.9,2.6C312.6,92.9,312.6,93.8,311.7,93.8z M310,89.4l2.6-1.8V85c0-0.9,0-0.9-0.9-0.9
					l-0.9,0.9c-0.9,0.9-0.9,0.9-0.9,1.8v1.8C309.1,89.4,309.1,90.3,310,89.4z"/>
			</g>
			<g id="Grupo_123" transform="translate(60.513 50.208)">
				<path id="Trazado_374" class="st13" d="M282.8,104.3l-0.9,0.9H281c0,0.5-0.4,0.9-0.8,0.9c0,0,0,0,0,0l-0.9,0.9v-5.3l0,0l5.3-3.5
					v1.8l-4.4,2.6v2.6c0-0.9,0.9-0.9,1.8-1.8l0.9-0.9c0.9-0.9,1.8-0.9,1.8,0c0.5,0.5,0.8,1.1,0.9,1.8v1.8c0.1,1-0.2,1.9-0.9,2.6
					l-1.8,1.8l-1.8,0.9c-0.9,0.9-1.8,0.9-1.8,0c-0.9,0-0.9-0.9-0.9-1.8v-0.9l0.9-0.9c0,1.8,0.9,1.8,1.8,0.9l0.9-0.9
					c0.9-0.9,0.9-0.9,0.9-1.8v-2.6C283.7,104.3,282.8,104.3,282.8,104.3z"/>
				<path id="Trazado_375" class="st13" d="M288.9,104.3v1.8l0,0l-0.9,0.9v-1.8l0,0C288.1,105.2,288.9,104.3,288.9,104.3z"/>
				<path id="Trazado_376" class="st13" d="M289.8,98.2v-1.8l1.8-1.8l0.9-0.9l0.9-0.9v9.6l0,0l-0.9,0.9v-8.8L289.8,98.2z"/>
				<path id="Trazado_377" class="st13" d="M299.5,94.7l-0.9,0.9h-0.9c0,0.5-0.4,0.9-0.8,0.9c0,0,0,0,0,0l-0.9,0.9v-5.3l0,0l5.3-3.5
					v1.8l-4.4,2.6v2.6c0-0.9,0.9-0.9,1.8-1.8l0.9-0.9c0.9-0.9,1.8-0.9,1.8,0c0,0.9,0.9,0.9,0.9,1.8v1.8c0.1,1-0.2,1.9-0.9,2.6
					l-1.8,1.8l-1.8,0.9c-0.9,0.9-1.8,0.9-1.8,0c-0.9,0-0.9-0.9-0.9-1.8v-0.9l0.9-0.9c0,1.8,0.9,1.8,1.8,0.9l0.9-0.9
					c0.9-0.9,0.9-0.9,0.9-1.8v-2.6C300.3,94.7,300.3,94.7,299.5,94.7z"/>
				<path id="Trazado_378" class="st13" d="M308.2,95.6l-3.5,1.8v-1.8l3.5-1.8c0.9-0.9,0.9-0.9,0.9-1.8v-1.8l-2.6,1.8
					c-0.9,0.9-1.8,0.9-1.8,0c-0.9,0-0.9-0.9-0.9-1.8v-1.8c-0.1-1,0.2-1.9,0.9-2.6l1.8-1.8l1.8-0.9c0.9-0.9,1.8-0.9,1.8,0
					c0.9,0,0.9,0.9,0.9,1.8v5.3c0.1,1-0.2,1.9-0.9,2.6C309.6,93.9,309,94.8,308.2,95.6z M306.5,91.2l2.6-1.8v-2.6
					c0-0.9,0-0.9-0.9-0.9l-0.9,0.9c-0.9,0.9-0.9,0.9-0.9,1.8v1.8C305.6,91.2,305.6,91.2,306.5,91.2z"/>
			</g>
			<g id="Grupo_124" transform="translate(114.01 17.54)">
				<path id="Trazado_379" class="st20" d="M284.5,110.7l-0.9,0.9v-1.8l-4.4,2.6h-0.9v-1.8l3.5-8.8V101l0,0l1.8-0.9h0.9v7l0.9-0.9
					v1.8l-0.9,0.9V110.7z M283.7,108.1v-6.1l-3.5,7.9L283.7,108.1z"/>
				<path id="Trazado_380" class="st20" d="M288.9,106.3v1.8l0,0l-0.9,0.9v-1.8l0,0C288.1,107.2,288.9,106.3,288.9,106.3z"/>
				<path id="Trazado_381" class="st20" d="M296.8,103.7l-0.9,0.9v-1.8l-4.4,2.6h-0.9v-1.8l3.5-8.8V94l0,0l1.8-0.9h0.9v7l0.9-0.9
					v1.8l-0.9,0.9V103.7z M295.1,101v-6.1l-2.6,7.9L295.1,101z"/>
				<path id="Trazado_382" class="st20" d="M302.1,94.9L303,94c0.9-0.9,0.9-0.9,0.9-1.8v-0.9c0-0.9,0-0.9-0.9-0.9l-0.9,0.9l-0.9,0.9
					v2.6l-0.9,0.9v-0.9c-0.1-1,0.2-1.9,0.9-2.6l1.8-1.8l1.8-0.9c0.9-0.9,1.8-0.9,1.8,0c0.9,0,0.9,0.9,0.9,1.8v0.9
					c0.1,1-0.2,1.9-0.9,2.6c0.9,0,0.9,0,0.9,0.9v0.9c0.1,1-0.2,1.9-0.9,2.6l-1.8,1.8h-4.4c-0.9,0-0.9-0.9-0.9-1.8v-1.8l0.9-0.9v1.8
					h0.9l0.9-0.9c0.9-0.9,0.9-0.9,0.9-1.8v-0.9c0-0.9,0-0.9-0.9-0.9l-0.9,0.9C302.1,95.8,302.1,94.9,302.1,94.9z"/>
				<path id="Trazado_383" class="st20" d="M311.7,94.9l-1.8,0.9c-0.9,0.9-1.8,0.9-1.8,0c-0.9,0-0.9-0.9-0.9-1.8v-5.3
					c-0.1-1,0.2-1.9,0.9-2.6l1.8-1.8l3.5-1.8v0.9l0,0l-2.6,1.8c-0.9,0.9-0.9,0.9-0.9,1.8v1.8l2.6-1.8c0.9-0.9,1.8-0.9,1.8,0
					c0.9,0,0.9,0.9,0.9,1.8v1.8c0.1,1-0.2,1.9-0.9,2.6C313.5,94,312.6,94.9,311.7,94.9z M310.9,94l0.9-0.9c0.9-0.9,0.9-0.9,0.9-1.8
					v-0.9c0-0.9,0-0.9-0.9-0.9l-2.6,1.8V94C309.1,94.9,310,94.9,310.9,94L310.9,94z"/>
			</g>
		</g>
	</g>
	<path id="Trazado_384" class="st0" d="M678.7,3343.5l7.9-4.4v1.8l-7.9,4.4V3343.5z M678.7,3352.3v-1.8l-6.1,3.5l-3.5,2.6v1.8
		l3.5-2.6L678.7,3352.3z M666.4,3357.6l-9.6,5.3v1.8l9.6-5.3V3357.6z M671.7,3348.8l4.4-2.6v-1.8l-7,4.4l-11.4,7v1.8L671.7,3348.8
		L671.7,3348.8z M660.3,3348.8l9.6-5.3v-1.8l-9.6,5.3l-2.6,1.8v1.8C657.7,3350.6,660.3,3348.8,660.3,3348.8z M678.7,3337.4l2.6-1.8
		v-1.8l-4.4,2.6l-6.1,3.5v1.8C670.8,3341.8,678.7,3337.4,678.7,3337.4z M708.5,3319l-4.4,2.6v1.8l4.4-2.6L708.5,3319z M701.5,3323.4
		l-4.4,1.8v1.8l4.4-1.8V3323.4z M708.5,3326l-7,4.4v1.8l7-4.4V3326z M698,3339.2l-2.6,1.8v1.8l2.6-1.8V3339.2z M700.6,3337.4v1.8
		l7.9-4.4v-1.8L700.6,3337.4z M748,3304.9l7.9-4.4v-1.8l-7.9,4.4L748,3304.9L748,3304.9z M748,3312v-1.8l-6.1,3.5l-3.5,2.6v1.8
		l3.5-2.6L748,3312z M735.7,3317.2l-9.6,5.3v1.8l9.6-5.3V3317.2z M741,3309.3l4.4-2.6v-1.8l-7,4.4l-11.4,7v1.8L741,3309.3
		L741,3309.3z M729.6,3308.5l9.6-5.3v-1.8l-9.6,5.3l-2.6,1.8v1.8L729.6,3308.5L729.6,3308.5z M748,3297.9l2.6-1.8v-1.8l-4.4,2.6
		l-6.1,3.5v1.8C740.1,3302.3,748,3297.9,748,3297.9z M777.8,3279.5l-4.4,1.8v1.8l4.4-2.6V3279.5z M770.8,3283l-3.5,1.8v1.8l3.5-1.8
		V3283z M777.8,3286.5l-7,3.5v1.8l7-4.4V3286.5z M767.3,3299.7l-2.6,1.8v1.8l2.6-1.8V3299.7z M769.9,3297.9v1.8l7.9-4.4v-1.8
		L769.9,3297.9z M816.4,3265.5l7.9-4.4v-1.8l-7.9,4.4V3265.5z M817.3,3271.6v-1.8l-6.1,3.5l-3.5,2.6v1.8l3.5-2.6L817.3,3271.6z
		 M805,3277.8l-9.6,5.3v1.8l9.6-5.3V3277.8z M810.3,3269l4.4-2.6v-1.8l-7.9,4.4l-11.4,7v1.8L810.3,3269L810.3,3269z M798.9,3269
		l9.6-5.3v-1.8l-9.6,5.3l-2.6,1.8v1.8L798.9,3269z M817.3,3257.6l2.6-1.8v-1.8l-4.4,2.6l-6.1,3.5v1.8L817.3,3257.6L817.3,3257.6z
		 M846.2,3239.2l-4.4,2.6v1.8l4.4-2.6L846.2,3239.2z M839.2,3243.6l-3.5,1.7v1.8l3.5-1.8L839.2,3243.6z M846.2,3246.2l-7,4.4v1.8
		l7-4.4V3246.2z M836.6,3259.3l-3.5,1.8v1.8l2.6-1.8v-1.8L836.6,3259.3z M839.2,3257.6v1.8l7.9-4.4v-1.8L839.2,3257.6z
		 M885.7,3225.1l7.9-4.4v-1.8l-7.9,4.4V3225.1z M886.6,3232.2v-1.8l-6.1,3.5l-3.5,1.8v1.8l3.5-2.6L886.6,3232.2z M874.3,3237.4
		l-9.6,5.3v1.8l9.6-5.3V3237.4z M878.7,3229.5l4.4-2.6v-1.8l-7,4.4l-11.4,7v1.8L878.7,3229.5L878.7,3229.5z M867.3,3228.6l9.6-5.3
		v-1.8l-9.6,5.3l-2.6,1.8v1.8C864.6,3230.4,867.3,3228.6,867.3,3228.6z M886.6,3218.1l2.6-1.8v-1.8l-3.5,2.6l-6.1,2.6v1.8
		L886.6,3218.1L886.6,3218.1z M915.5,3199.7l-4.4,2.6v1.8l4.4-2.6V3199.7z M908.5,3203.2l-3.5,1.8v1.8l3.5-1.8V3203.2z
		 M915.5,3206.7l-7,4.4v1.8l7-4.4V3206.7z M905,3219.9l-2.6,1.8v1.8l2.6-1.8V3219.9z M907.6,3218.1v1.8l7.9-4.4v-1.8L907.6,3218.1z"
		/>
</g>
</svg>
