<?xml version="1.0" encoding="utf-8"?>
<!-- Generator: Adobe Illustrator 24.0.1, SVG Export Plug-In . SVG Version: 6.00 Build 0)  -->
<svg version="1.1" id="Capa_1" xmlns="http://www.w3.org/2000/svg" xmlns:xlink="http://www.w3.org/1999/xlink" x="0px" y="0px"
	 viewBox="0 0 129 105" style="enable-background:new 0 0 129 105;" xml:space="preserve">
<path id="Icon_metro-file-excel" d="M81.2,43.2c0.5,0.5,0.9,1.1,1.1,1.8c0.3,0.7,0.5,1.4,0.5,2.1v27c0,1.2-1,2.2-2.2,2.3
	c0,0,0,0,0,0H49c-1.2,0-2.2-1-2.3-2.2c0,0,0,0,0,0V36.5c0-1.2,1-2.2,2.2-2.3c0,0,0,0,0,0h21c0.7,0,1.4,0.2,2.1,0.5
	c0.7,0.3,1.3,0.6,1.8,1.1L81.2,43.2z M70.8,37.5v8.8h8.8c-0.1-0.4-0.3-0.7-0.5-1L71.8,38C71.5,37.8,71.2,37.6,70.8,37.5L70.8,37.5z
	 M79.8,73.3v-24H70c-1.2,0-2.2-1-2.3-2.2c0,0,0,0,0,0v-9.8h-18v36H79.8L79.8,73.3z M56.8,67.8v2.5h6.6v-2.5h-1.8l2.4-3.8
	c0.1-0.1,0.2-0.3,0.2-0.4c0.1-0.1,0.1-0.3,0.2-0.3c0-0.1,0.1-0.1,0.1-0.1h0c0,0.1,0.1,0.2,0.1,0.2c0,0.1,0.1,0.1,0.1,0.2
	c0,0.1,0.1,0.1,0.1,0.2c0.1,0.1,0.1,0.1,0.2,0.2l2.5,3.8h-1.8v2.5h6.8v-2.5h-1.6l-4.5-6.4l4.6-6.6h1.6v-2.5h-6.5v2.5h1.7l-2.4,3.7
	c-0.1,0.1-0.1,0.2-0.2,0.4c-0.1,0.1-0.2,0.3-0.2,0.3l0,0.1h0c0-0.1-0.1-0.2-0.1-0.2c-0.1-0.2-0.2-0.4-0.4-0.5L62,54.8h1.8v-2.5H57
	v2.5h1.6l4.4,6.4l-4.5,6.6L56.8,67.8L56.8,67.8z"/>
</svg>
