<?xml version="1.0" encoding="utf-8"?>
<!-- Generator: Adobe Illustrator 24.0.1, SVG Export Plug-In . SVG Version: 6.00 Build 0)  -->
<svg version="1.1" id="Capa_1" xmlns="http://www.w3.org/2000/svg" xmlns:xlink="http://www.w3.org/1999/xlink" x="0px" y="0px"
	 viewBox="0 0 1280 1024" style="enable-background:new 0 0 1280 1024;" xml:space="preserve">
<style type="text/css">
	.st0{fill-rule:evenodd;clip-rule:evenodd;fill:#FFD7B7;}
	.st1{fill-rule:evenodd;clip-rule:evenodd;fill:#F5F5F5;}
	.st2{fill-rule:evenodd;clip-rule:evenodd;fill:#42687C;}
	.st3{fill-rule:evenodd;clip-rule:evenodd;fill:#B1B1B1;}
	.st4{fill-rule:evenodd;clip-rule:evenodd;fill:#FFF2E8;}
	.st5{fill-rule:evenodd;clip-rule:evenodd;fill:#23475F;}
	.st6{fill-rule:evenodd;clip-rule:evenodd;fill:#FFFFFF;}
</style>
<g id="Grupo_136" transform="translate(0.013)">
	<g id="Grupo_134" transform="translate(-0.013)">
		<g id="Grupo_128" transform="translate(2.15 97.022)">
			<path id="Trazado_403" class="st0" d="M501.4,249.8L501.4,249.8c-8.8,9-8.7,23.4,0.2,32.3l161.2,163.3c9,8.9,23.4,8.8,32.3-0.2
				c0,0,0.1-0.1,0.1-0.1l0,0c8.8-9,8.7-23.4-0.2-32.2L533.6,249.5c-8.9-8.8-23.2-8.8-32.1,0.1C501.5,249.7,501.5,249.7,501.4,249.8z
				"/>
			<path id="Trazado_404" class="st0" d="M786.2,544l-123.8,24.2l-19-97.4l-87.1-125.8l184-35.9L786.2,544z"/>
			<path id="Trazado_405" class="st0" d="M503.6,323.1L503.6,323.1c-8.8,9-8.7,23.4,0.2,32.3L665,518.7c9,8.9,23.4,8.8,32.3-0.2
				c0,0,0.1-0.1,0.1-0.1l0,0c8.8-9,8.7-23.4-0.2-32.2L535.8,323C526.9,314.1,512.5,314.1,503.6,323.1
				C503.6,323.1,503.6,323.1,503.6,323.1z"/>
			<path id="Trazado_406" class="st0" d="M486.1,159.8L486.1,159.8c-8.7,9-8.6,23.3,0.2,32.2l155.3,157.2c8.9,8.8,23.2,8.8,32.1-0.1
				c0.1-0.1,0.1-0.1,0.2-0.2l0,0c8.8-9,8.7-23.4-0.2-32.2L518.5,159.5C509.5,150.7,495,150.8,486.1,159.8z"/>
		</g>
		<g id="Grupo_129" transform="translate(55.985)">
			<path id="Trazado_407" class="st1" d="M632.3,153H519.4c-21.9,0.1-39.6,17.8-39.7,39.7v299.7c0.1,21.9,17.8,39.6,39.7,39.7h112.9
				c21.9-0.1,39.6-17.8,39.7-39.7V192.7C672,170.8,654.2,153.1,632.3,153z"/>
			<path id="Trazado_408" class="st2" d="M654.6,184.8H497.1c-0.3,0-0.6,0.2-0.6,0.5c0,0,0,0,0,0.1v311.3c0,0.3,0.2,0.6,0.5,0.6
				c0,0,0,0,0.1,0h157.5c0.3,0,0.6-0.2,0.6-0.5c0,0,0,0,0-0.1V185.4C655.1,185.1,654.9,184.8,654.6,184.8z"/>
			<path id="Trazado_409" class="st3" d="M605.1,162.3h-58.4c-1.6,0-2.9,1.3-2.9,2.9l0,0c0,1.6,1.3,2.9,2.9,2.9h58.4
				c1.6,0,2.9-1.3,2.9-2.9l0,0C607.9,163.6,606.6,162.4,605.1,162.3z"/>
			<path id="Trazado_410" class="st3" d="M575.9,504.5c-5.4,0-9.7,4.3-9.7,9.7s4.3,9.7,9.7,9.7c5.4,0,9.7-4.3,9.7-9.7c0,0,0,0,0,0
				C585.5,508.9,581.2,504.5,575.9,504.5z"/>
		</g>
		<g id="Grupo_133" transform="translate(0 169.922)">
			<g id="Grupo_130">
				<path id="Trazado_411" class="st0" d="M486.2,159.7L486.2,159.7c-8.8,9-8.7,23.4,0.2,32.2c0,0,0,0,0,0l25.8,25.6
					c9,8.8,23.5,8.7,32.3-0.2l0,0c8.8-9,8.7-23.4-0.2-32.2c0,0,0,0,0,0l-25.8-25.6C509.5,150.7,495.2,150.8,486.2,159.7z"/>
				<path id="Trazado_412" class="st4" d="M541.7,186.8l-7.6-7.4c-15.8,2.3-24.2,11.8-26.7,27.1l7.1,7.3
					C534.1,233.5,558.2,202.6,541.7,186.8z"/>
			</g>
			<g id="Grupo_131" transform="translate(239.372 1.029)">
				<path id="Trazado_413" class="st0" d="M515,375.7l-15.9,3.1L497,359l-17-159.9c-2.9-27.1,10.8-37.9,27.1-43.2
					c9-2.9,11.1-5.5,12,2.9l19.4,183.1C540.3,357.4,529.6,372.8,515,375.7z"/>
				<path id="Trazado_414" class="st4" d="M511.3,154.5c6.1-1.6,7-3.3,7.6,2.1l3.6,33.9C509.4,188.9,510.4,168.1,511.3,154.5z"/>
			</g>
			<g id="Grupo_132" transform="translate(4.361 75.52)">
				<path id="Trazado_415" class="st0" d="M486.2,159.8L486.2,159.8c-8.8,9-8.7,23.5,0.2,32.3l30.3,30c9,8.8,23.5,8.7,32.3-0.2l0,0
					c8.8-9,8.7-23.4-0.2-32.2c0,0,0,0,0,0l-30.3-30C509.7,150.7,495.2,150.7,486.2,159.8C486.3,159.7,486.3,159.7,486.2,159.8z"/>
				<path id="Trazado_416" class="st4" d="M546.2,193.1l-7.6-7.4c-15.8,2.3-24.2,11.8-26.7,27.1l7.1,7.3
					C538.6,239.6,562.7,208.7,546.2,193.1z"/>
			</g>
		</g>
	</g>
	<g id="Grupo_135" transform="translate(161.248 447.635)">
		<path id="Trazado_417" class="st5" d="M677.2,388.2h-165L491.6,245L646,224L677.2,388.2z"/>
		<path id="Trazado_418" class="st6" d="M636.2,153l-156.5,30.5l10.4,82.6l162.5-29.2L636.2,153z"/>
	</g>
</g>
</svg>
