<?xml version="1.0" encoding="utf-8"?>
<!-- Generator: Adobe Illustrator 24.0.1, SVG Export Plug-In . SVG Version: 6.00 Build 0)  -->
<svg version="1.1" id="Capa_1" xmlns="http://www.w3.org/2000/svg" xmlns:xlink="http://www.w3.org/1999/xlink" x="0px" y="0px"
	 viewBox="0 0 129 105" style="enable-background:new 0 0 129 105;" xml:space="preserve">
<path id="Icon_ionic-ios-analytics" d="M64.8,33.1c-12.3,0-22.2,10-22.2,22.2s10,22.2,22.2,22.2S87,67.6,87,55.3
	C87,43,77.1,33.1,64.8,33.1C64.8,33.1,64.8,33.1,64.8,33.1z M45.5,55.3c0-10.6,8.6-19.3,19.2-19.3c10.3,0,18.8,8.1,19.3,18.5
	c-1.1-1.5-2.8-2.4-4.7-2.6c-2.9,0-4.5,2.7-5.5,4.6c-0.2,0.3-0.3,0.5-0.4,0.7c-1.2,2.1-2.9,3.2-4.5,3.1c-1.4-0.1-2.7-1.2-3.4-3.1
	c-1-2.4-3.1-4.9-5.7-5.3c-1.2-0.2-3,0.1-4.8,2.3c-0.3,0.4-0.7,1-1.2,1.7c-1.1,1.7-2.8,4.2-4.1,4.4c-1.4,0.2-2.9-0.3-3.9-1.3
	C45.7,57.8,45.5,56.5,45.5,55.3z"/>
</svg>
