<?xml version="1.0" encoding="utf-8"?>
<!-- Generator: Adobe Illustrator 24.0.1, SVG Export Plug-In . SVG Version: 6.00 Build 0)  -->
<svg version="1.1" id="Capa_1" xmlns="http://www.w3.org/2000/svg" xmlns:xlink="http://www.w3.org/1999/xlink" x="0px" y="0px"
	 viewBox="0 0 129 105" style="enable-background:new 0 0 129 105;" xml:space="preserve">
<path id="Icon_ionic-md-checkmark-circle-outline" d="M55,50.8l-3.3,3.3l10.7,10.7L86.2,41l-3.3-3.3L62.4,58.1L55,50.8z M83.9,55.3
	c0,10.5-8.6,18.9-19.1,18.9c-10.5,0-18.9-8.6-18.9-19.1S54.5,36.2,65,36.3c1.7,0,3.4,0.2,5.1,0.7l3.7-3.7c-2.8-1.2-5.9-1.8-8.9-1.8
	C51.6,31.5,41,42.2,41,55.3s10.7,23.8,23.8,23.8s23.8-10.7,23.8-23.8l0,0H83.9z"/>
</svg>
