<?xml version="1.0" encoding="utf-8"?>
<!-- Generator: Adobe Illustrator 24.0.1, SVG Export Plug-In . SVG Version: 6.00 Build 0)  -->
<svg version="1.1" id="Capa_1" xmlns="http://www.w3.org/2000/svg" xmlns:xlink="http://www.w3.org/1999/xlink" x="0px" y="0px"
	 viewBox="0 0 1280 1024" style="enable-background:new 0 0 1280 1024;" xml:space="preserve">
<style type="text/css">
	.st0{opacity:0.17;}
	.st1{fill:#1F9487;}
	.st2{fill:#E49963;}
	.st3{fill:#E0E0E0;}
	.st4{fill:#2B478B;}
	.st5{fill:#163560;}
	.st6{fill:#1C468A;}
	.st7{fill:#005470;}
	.st8{fill:#E9E9E9;}
	.st9{fill:#D68D5D;}
	.st10{fill:#4A75CB;}
	.st11{fill:#959593;}
	.st12{fill:#FFFFFF;}
	.st13{fill:#FEFEFE;}
	.st14{fill:#E1DFD8;}
	.st15{fill:#D5D3CD;}
	.st16{fill:#747573;}
	.st17{fill:#A7A7A3;}
	.st18{fill:#B9B9B4;}
	.st19{opacity:0.4;fill:#D5D3CD;enable-background:new    ;}
	.st20{opacity:0.4;fill:#CBCAC5;enable-background:new    ;}
	.st21{fill:#656563;}
	.st22{fill:#FFFCFD;}
	.st23{fill:#36A064;}
	.st24{fill:#545452;}
	.st25{fill:#0B7D84;}
	.st26{fill:#FFB27D;}
	.st27{fill:#009FA8;}
	.st28{fill:#FCA56B;}
</style>
<g id="Grupo_42" transform="translate(0.037)">
	<g id="Grupo_23" transform="translate(-0.037 39.706)" class="st0">
		<path id="Trazado_53" class="st1" d="M1008.2,721.4c0,0,109.4,8.6,143-55.5c50.1-95.2-47.3-172-117.9-158.2
			c-153.9,30.2-116.8-302-363.7-234.2c-69.4,19.1-257.1-94.2-309.4,87.4c-12.4,43.2-56.5,47.9-120.5,75.3
			c-125.2,53.6-68,286.1,21.5,287C350.8,724.2,1008.2,721.4,1008.2,721.4z"/>
	</g>
	<g id="Grupo_26" transform="translate(723.872 75.472)">
		<g id="Grupo_24" transform="translate(34.143 73.218)">
			<path id="Trazado_54" class="st2" d="M205.9,359.8c0,0-10.6,2.7-17.3,0.7c-6.7-2-18.3,1.3-20.2,3.7c-1.9,2.5-1.2,3.4,2.1,4.3
				c3.3,0.9,15.1,5.9,22.9,3c7.8-2.9,17.9-3,17.9-3L205.9,359.8z"/>
			<path id="Trazado_55" class="st3" d="M297.4,267.8c0,0-11.9,84.5-31.6,92.1c-9.7,3.7-52.7,12.2-65.4,13.1c0,0-3.1-2.5-2.4-12.8
				c0,0,45-16.5,51.4-25.5c9.5-13.4-5.9-54.6,6-67.2C267.5,254.9,287.5,249.5,297.4,267.8z"/>
		</g>
		<path id="Trazado_56" class="st4" d="M330,666.9v-18.6h29c0.8,0,1.4-0.6,1.4-1.4c0,0,0,0,0,0v-3c0-0.8-0.6-1.4-1.4-1.4l0,0h-29
			V537.6c0-3-2.4-5.4-5.4-5.4c0,0,0,0,0,0h-5.7c-3,0-5.4,2.4-5.4,5.4c0,0,0,0,0,0v104.9h-29c-0.8,0-1.4,0.6-1.4,1.4c0,0,0,0,0,0v3
			c0,0.8,0.6,1.4,1.4,1.4c0,0,0,0,0,0h29v18.6c-21,1.6-37.8,9.1-42.5,18.9h101.5C367.9,676.1,351,668.5,330,666.9z"/>
		<path id="Trazado_57" class="st5" d="M327.5,519.1c-3.5,5.8-7.4,11.3-11.6,16.6c-12.8,16.1-26.7,29.4-29.1,42
			c-0.5,2.7-1.3,5.4-2.2,8.1c-1.1,3.1-2.3,6.1-3.7,9c-5.4,11.8-13.5,25-21.6,37c-14,20.8-27.2,38.1-27.2,38.1l-24.2-1
			c1-2.4,11.5-31.1,25.6-66.1c5.7-14.2,11.8-29.3,17.7-43.9c0.8-1.9,1.6-3.9,2.3-5.8c1.8-4.5,3.6-8.8,5.3-13.1
			c13.2-32.9,23.8-59.1,23.8-59.1s52.9-20,58.4-7C345.4,484.6,341.8,495.1,327.5,519.1z"/>
		<path id="Trazado_58" class="st5" d="M231.3,665.6c0,0-1.2,20-5,20.3c-0.5,0-44.1,0-44.1,0s0.3-6.1,7.5-7.3s19-6.2,23.3-15.6
			C217.4,653,231.3,665.6,231.3,665.6z"/>
		<path id="Trazado_59" class="st5" d="M287.2,608.6c0,0,16.8,10.8,15.2,14.3c-0.2,0.4-9.5,17.1-9.5,17.1l-12,21.2c0,0-5-3-2.7-9.8
			c2.4-6.8,3.8-19.6-2.3-28C269.5,614.6,287.2,608.6,287.2,608.6z"/>
		<path id="Trazado_60" class="st6" d="M264.9,471.2c0,0-66.8,41.6-74.2,69.4s88.3,87,88.3,87s10.5-9.3,12.4-16.1
			c0,0-43.3-51.8-52.6-63.4c-5.8-7.1,85.2-24.7,96.3-42c11.1-17.3,7.1-31.8,7.1-31.8L264.9,471.2z"/>
		<path id="Trazado_61" class="st7" d="M389.7,524.5H253.9c-2.7,0-4.9,2.2-4.9,4.9c0,0,0,0,0,0v27.2c0,2.7,2.2,4.9,4.9,4.9
			c0,0,0,0,0,0h135.9c2.7,0,4.9-2.2,4.9-4.9c0,0,0,0,0,0v-27.2C394.7,526.7,392.5,524.5,389.7,524.5z"/>
		<path id="Trazado_62" class="st2" d="M327.3,325c0,0-26.4,14.7-42.2,10.6c2.8-3.7,6.2-6.8,10.1-9.2c-0.3-1.5-0.6-3-0.9-4.3
			c-0.9-4.1-1.5-8.2-1.8-12.3l12.1-10.9c3.4,0.7,6.5,1.4,8.2,1.7c0.1,0.8,0.3,1.6,0.5,2.4C317.1,318.2,327.3,325,327.3,325z"/>
		<path id="Trazado_63" class="st8" d="M344.2,401.6c-2.3,30.6,0.7,77.2-1.9,85.3c-2.2,7-27.6,2.8-37.8,0.5c-3.7-0.9-8.3-2.1-13-3.6
			c-13.1-4-27.4-9.9-28.9-14.2c-0.1-0.2-0.1-0.3-0.1-0.5l0,0c0-0.1,0-0.2-0.1-0.3c-0.1-0.5,0-1,0.1-1.5c0.5-2.2,2.5-4.6,2.7-10
			c0.3-6.1,0.2-13.2,0.4-20.9c0-0.9,0-1.8,0.1-2.7V433c0.2-8.5,0.7-17.6,1.2-26.5c0.3-5.6,0.7-11.2,1.2-16.5
			c1.1-13.7,2.7-25.9,4.7-33.6c3.3-12.6,10.7-20.8,17.3-26.8l4.8-4.2c5.9,1.1,12.1,0.3,17.5-2.3c6.3-3,8.4-5.1,9.5-4.3
			C336.5,330,346.8,364.1,344.2,401.6z"/>
		<path id="Trazado_64" class="st3" d="M291.5,483.8c-13.1-4-27.4-9.9-28.9-14.2c-0.1-0.2-0.1-0.3-0.1-0.5l0,0c0-0.1,0-0.2-0.1-0.3
			c-0.1-0.5,0-1,0.1-1.5c0.5-2.2,2.5-4.6,2.7-10c0.3-6.1,0.2-13.2,0.4-20.9c0-0.9,0-1.8,0.1-2.7v-0.8l49.5-22.4
			C315.2,410.6,318.1,450.5,291.5,483.8z"/>
		<path id="Trazado_65" class="st9" d="M313.3,303.1c-1.8,4.5-7.2,15.2-19,19.1c-0.9-4.1-1.5-8.2-1.8-12.3l12.1-10.9
			c3.4,0.7,6.5,1.4,8.2,1.7C312.9,301.5,313.1,302.3,313.3,303.1z"/>
		<path id="Trazado_66" class="st2" d="M287.6,309.7c0,0,26.1,2.9,27.6-13.3s6-26.8-10.6-29.4c-16.6-2.5-20.4,3.3-22.2,8.6
			C280.6,281,280.9,308.6,287.6,309.7z"/>
		<path id="Trazado_67" class="st4" d="M315.2,297.6c0,0-1.6-21.6-25.4-23.8c-16.3-1.5-7.2-15.5-5.5-17.8c0,0,12.4,1.7,25.2,3.8
			C336.3,264.2,317.8,294.2,315.2,297.6z"/>
		<path id="Trazado_68" class="st10" d="M252.5,449.6l-64.5,1.4l-18.4-56.5l-2.3,0.7l19.4,59.7l65.9-1.4L252.5,449.6z"/>
		<g id="Grupo_25" transform="translate(40.498 78.631)">
			<path id="Trazado_69" class="st2" d="M205,367.4c0,0-10.2,3.9-17.2,2.6s-18.1,3.3-19.7,6c-1.6,2.7-0.8,3.5,2.6,4
				s15.7,4.2,23.1,0.4s17.4-5,17.4-5L205,367.4z"/>
			<path id="Trazado_70" class="st8" d="M285.8,265.8c0,0-2.5,85.4-21.2,95c-9.3,4.8-51,17.9-63.5,20.2c0,0-3.4-2.2-3.7-12.5
				c0,0,42.9-21.4,48.3-31c8-14.3-11.9-53.6-1.4-67.5C254.6,256.3,274,248.7,285.8,265.8z"/>
		</g>
	</g>
	<g id="Grupo_40" transform="translate(60.055)">
		<g id="Grupo_27">
			<path id="Trazado_71" class="st11" d="M454.9,427.3l-26.5,314.8c0,0-2.8,19.1,11.4,19.1c23.3,0,116.2,0,116.2,0
				s-17.6-4-17.3-12.9c0.3-10.5,30.9-324,30.9-324L454.9,427.3z"/>
			<path id="Trazado_72" class="st12" d="M563.5,755.5c-4.6,0-93.3,0.3-116,0c-9.9-0.1-11.6-8.8-11.7-14.4c0-1.6,0.1-3.1,0.3-4.7
				l0.7-8.2l1.8-20.9l1.5-18.4l2-23.7l1.7-20l18.8-223.7l114.7-3c0,0-12.9,131.2-22.1,226.7c-1,10.6-2,20.8-2.9,30.4
				c-0.3,3-0.6,6-0.9,8.9c-0.9,9-1.6,17.3-2.3,24.6c-0.3,3.9-0.7,7.5-1,10.8c-1.2,12.9-1.8,21.1-1.9,22.7c0,0.9,0.1,1.7,0.2,2.5
				C548.5,755.2,561.8,755.5,563.5,755.5z"/>
			<path id="Trazado_73" class="st13" d="M176.3,256l64.5,259.1l8.8,35.5l30,120.7h558.1L727,256H176.3z"/>
			<path id="Trazado_74" class="st14" d="M176.3,256l-8.9,3l100.4,421.2l11.9-9L176.3,256z"/>
			<path id="Trazado_75" class="st15" d="M267.8,680.2h554.6l15.3-9H279.7L267.8,680.2z"/>
			<rect id="Rectángulo_37" x="462.5" y="755.7" class="st16" width="120.1" height="5.7"/>
			<path id="Trazado_76" class="st17" d="M810.7,594.7l-90.6-333.2H175.4V256H727l90.2,338L810.7,594.7z"/>
			<path id="Trazado_77" class="st18" d="M552.1,680.2l-0.6,4.4l-113,22.8l1.6-18.4l0.7-8.8H552.1z"/>
			<path id="Trazado_78" class="st19" d="M563.5,755.5c-4.6,0-93.3,0.3-116,0c-9.9-0.1-11.6-8.8-11.7-14.4l112.4-21.2
				c-1.2,12.9-1.8,21.1-1.9,22.7c0,0.9,0.1,1.7,0.2,2.5C548.5,755.2,561.8,755.5,563.5,755.5z"/>
			<path id="Trazado_79" class="st20" d="M524.8,587.1l-245.1,84.1l-30-120.7L524.8,587.1z"/>
			<path id="Trazado_80" class="st21" d="M176.3,256H727l89.4,333.7H256.5L176.3,256z"/>
		</g>
		
			<ellipse id="Elipse_33" transform="matrix(0.6723 -0.7403 0.7403 0.6723 -284.6967 620.6431)" class="st21" cx="558.6" cy="631.9" rx="13.4" ry="16.3"/>
		<path id="Trazado_81" class="st22" d="M790.4,575.2H274.7l-58.4-232.6l-4.5-17.8l-3.8-15.2l-9-35.7h508.2l9.8,35.7l4.2,15.2
			l4.9,17.8L790.4,575.2z"/>
		<path id="Trazado_82" class="st14" d="M717.1,309.5H208l-9-35.7h508.2L717.1,309.5z"/>
		<g id="Grupo_28" transform="translate(52.628 29.552)">
			<path id="Trazado_83" class="st22" d="M170.8,256c-1.8-0.1-3.4,1.3-3.5,3.2c0,0.4,0,0.9,0.2,1.3c0.7,2.5,3,4.3,5.6,4.5
				c1.8,0.1,3.4-1.3,3.5-3.2c0-0.4,0-0.9-0.2-1.3C175.7,257.9,173.5,256.1,170.8,256z"/>
			<path id="Trazado_84" class="st22" d="M185.7,256c-1.8-0.1-3.4,1.3-3.5,3.2c0,0.4,0,0.9,0.2,1.3c0.7,2.5,3,4.3,5.6,4.5
				c1.8,0.1,3.4-1.3,3.5-3.2c0-0.4,0-0.9-0.2-1.3C190.5,257.9,188.3,256.1,185.7,256z"/>
			<path id="Trazado_85" class="st22" d="M207.2,260.4c-0.7-2.5-3-4.3-5.6-4.5c-1.8-0.1-3.4,1.3-3.5,3.2c0,0.4,0,0.9,0.2,1.3
				c0.7,2.5,3,4.3,5.6,4.5c1.9,0.1,3.4-1.4,3.5-3.2C207.4,261.2,207.3,260.8,207.2,260.4z"/>
		</g>
		<g id="Grupo_39" transform="translate(71.992 72.251)">
			<g id="Grupo_29" transform="translate(333.955 58.43)">
				<path id="Trazado_86" class="st15" d="M222.9,283.1c-3.7-14.9-18.9-27.1-33.9-27.1c-7.2,0-13.3,2.8-17.3,7.8
					c-4.1,5.2-5.4,12.3-3.5,19.8c3.7,14.9,18.9,27.1,33.9,27.1c7.2,0,13.3-2.8,17.3-7.8C223.5,297.6,224.7,290.5,222.9,283.1z
					 M217.7,301.5c-3.5,4.5-9.1,7-15.6,7c-14,0-28.2-11.4-31.7-25.4c-1.7-6.8-0.6-13.2,3.1-17.9c3.5-4.5,9.1-7,15.6-7
					c14,0,28.2,11.4,31.7,25.4C222.5,290.4,221.4,296.8,217.7,301.5L217.7,301.5z"/>
			</g>
			<g id="Grupo_30" transform="translate(350.623 123.115)">
				<path id="Trazado_87" class="st23" d="M222.9,283.1c-3.7-14.9-18.9-27.1-33.9-27.1c-7.2,0-13.3,2.8-17.3,7.8
					c-4.1,5.2-5.4,12.3-3.5,19.8c3.7,14.9,18.9,27.1,33.9,27.1c7.2,0,13.3-2.8,17.3-7.8C223.5,297.6,224.7,290.5,222.9,283.1z
					 M217.7,301.5c-3.5,4.5-9.1,7-15.6,7c-14,0-28.2-11.4-31.7-25.4c-1.7-6.8-0.6-13.2,3.1-17.9c3.5-4.5,9.1-7,15.6-7
					c14,0,28.2,11.4,31.7,25.4C222.5,290.4,221.3,296.8,217.7,301.5L217.7,301.5z"/>
			</g>
			<g id="Grupo_31" transform="translate(395.245 30.376)">
				<path id="Trazado_88" class="st17" d="M235.3,302.8c1.3,0.1,2.4-0.9,2.4-2.2c0-0.3,0-0.6-0.1-0.8c-0.5-1.7-2-3-3.9-3.1h-54.9
					c-1.3-0.1-2.4,0.9-2.4,2.2c0,0.3,0,0.6,0.1,0.8c0.5,1.7,2,3,3.9,3.1H235.3z"/>
				<path id="Trazado_89" class="st17" d="M228.5,259c-0.5-1.7-2-3-3.9-3.1h-54.9c-1.3-0.1-2.4,0.9-2.4,2.2c0,0.3,0,0.6,0.1,0.8
					c0.5,1.7,2,3,3.9,3.1h54.9c1.3,0.1,2.4-1,2.4-2.2C228.6,259.6,228.6,259.3,228.5,259z"/>
				<path id="Trazado_90" class="st17" d="M238.2,314.6c1.3,0.1,2.4-0.9,2.4-2.2c0-0.3,0-0.6-0.1-0.8c-0.5-1.7-2-3-3.9-3.1h-54.9
					c-1.3-0.1-2.4,0.9-2.4,2.2c0,0.3,0,0.6,0.1,0.8c0.5,1.7,2,3,3.9,3.1H238.2z"/>
				<path id="Trazado_91" class="st17" d="M243.4,323.2c-0.5-1.7-2-3-3.9-3.1h-54.9c-1.3-0.1-2.4,0.9-2.4,2.2c0,0.3,0,0.6,0.1,0.8
					c0.5,1.7,2,3,3.9,3.1h54.9c1.3,0.1,2.4-0.9,2.4-2.2C243.6,323.8,243.5,323.5,243.4,323.2z"/>
				<path id="Trazado_92" class="st17" d="M252,367.5c1.3,0.1,2.4-1,2.4-2.2c0-0.3,0-0.6-0.1-0.8c-0.5-1.7-2-3-3.9-3.1h-54.9
					c-1.3-0.1-2.4,0.9-2.4,2.2c0,0.3,0,0.6,0.1,0.8c0.5,1.7,2,3,3.9,3.1H252z"/>
				<path id="Trazado_93" class="st17" d="M254.9,379.2c1.3,0.1,2.4-0.9,2.4-2.2c0-0.3,0-0.6-0.1-0.8c-0.5-1.7-2-3-3.9-3.1h-54.9
					c-1.3-0.1-2.4,0.9-2.4,2.2c0,0.3,0,0.6,0.1,0.8c0.5,1.7,2,3,3.9,3.1H254.9z"/>
				<path id="Trazado_94" class="st17" d="M260.1,387.9c-0.5-1.7-2-3-3.9-3.1h-54.9c-1.3-0.1-2.4,0.9-2.4,2.2c0,0.3,0,0.6,0.1,0.8
					c0.5,1.7,2,3,3.9,3.1h54.9c1.3,0.1,2.4-0.9,2.4-2.2C260.3,388.4,260.2,388.1,260.1,387.9z"/>
			</g>
			<path id="Trazado_95" class="st14" d="M621.4,276.5l-3.8-15.4c-0.8-2.9-3.4-5-6.4-5.1H171.4c-2.2-0.1-4,1.6-4.1,3.8
				c0,0.5,0,0.9,0.2,1.4l3.8,15.4c0.8,2.9,3.4,5,6.4,5.1h439.8c2.1,0.1,4-1.6,4.1-3.7C621.7,277.4,621.6,276.9,621.4,276.5z"/>
			<path id="Trazado_96" class="st1" d="M483.2,256l6.4,25.6H177.8c-3-0.2-5.6-2.2-6.4-5.1l-3.8-15.4c-0.7-2,0.4-4.2,2.4-4.9
				c0.5-0.2,1-0.2,1.4-0.2L483.2,256z"/>
			<path id="Trazado_97" class="st12" d="M539.2,264.1l0.5,2h4.9l-2.5,8.4h2.6l2.5-8.7l-0.4-1.7H539.2z"/>
			<path id="Trazado_98" class="st12" d="M552.5,263.9c-2.7,0-4,2.4-3.3,5.4c0.7,3,3.1,5.4,5.9,5.4s4-2.4,3.3-5.4
				C557.6,266.2,555.2,263.9,552.5,263.9z M554.6,272.5c-1.4,0-2.6-1.4-3.1-3.3c-0.5-1.9,0.1-3.3,1.4-3.3s2.6,1.4,3.1,3.3
				C556.5,271.1,556,272.5,554.6,272.5L554.6,272.5z"/>
			<path id="Trazado_99" class="st12" d="M571.9,271.9c-0.3-1.5-1.6-2.6-3.1-2.7c-1.1,0-2,0.8-2,1.8c0,0.3,0,0.6,0.1,0.8
				c0.3,1.5,1.6,2.6,3.1,2.7c1.1,0,2-0.8,2-1.8C572.1,272.4,572.1,272.2,571.9,271.9z M569.8,273.2c-0.6,0-1.1-0.6-1.3-1.3
				s0-1.3,0.6-1.3c0.6,0,1.1,0.6,1.3,1.3C570.6,272.6,570.4,273.2,569.8,273.2z"/>
			<path id="Trazado_100" class="st12" d="M567.2,264.1l-5,10.4h1.8l5-10.4H567.2z"/>
			<path id="Trazado_101" class="st12" d="M564.3,266.6c-0.3-1.5-1.6-2.6-3.1-2.7c-1.1,0-2,0.8-2,1.8c0,0.3,0,0.6,0.1,0.8
				c0.3,1.5,1.6,2.6,3.1,2.7c1.1,0,2-0.8,2-1.9C564.4,267.1,564.4,266.8,564.3,266.6z M560.8,266.6c-0.2-0.7,0-1.3,0.6-1.3
				c0.6,0,1.1,0.6,1.3,1.3s0,1.3-0.6,1.3C561.4,267.8,560.9,267.3,560.8,266.6z"/>
			<g id="Grupo_32" transform="translate(31.322 42.624)">
				<path id="Trazado_102" class="st15" d="M431.2,350c3.2,0,5.1-2.6,4.3-5.8l0,0c-0.9-3.3-3.8-5.6-7.2-5.8H171.9
					c-3.2,0-5.1,2.6-4.3,5.8l0,0c0.9,3.3,3.8,5.6,7.2,5.8H431.2z"/>
				<path id="Trazado_103" class="st15" d="M436,369.2c3.2,0,5.1-2.6,4.3-5.8c-0.9-3.3-3.8-5.6-7.2-5.8H176.7
					c-3.2,0-5.1,2.6-4.3,5.8c0.9,3.3,3.8,5.6,7.2,5.8H436z"/>
				<path id="Trazado_104" class="st15" d="M445.4,383.4c-0.9-3.3-3.8-5.6-7.2-5.8H181.7c-3.2,0-5.1,2.6-4.3,5.8
					c0.9,3.3,3.8,5.6,7.2,5.8H441C444.2,389.2,446.2,386.6,445.4,383.4z"/>
				<path id="Trazado_105" class="st15" d="M290.9,318.7c1.1,4.1,4.8,7.1,9.1,7.3h28.6c4,0,6.4-3.3,5.5-7.3l-13.8-55.5
					c-1.1-4.1-4.8-7.1-9.1-7.3h-28.6c-4,0-6.4,3.3-5.5,7.3L290.9,318.7z"/>
				<path id="Trazado_106" class="st15" d="M340.4,318.7c1.1,4.1,4.8,7.1,9.1,7.3h28.6c4,0,6.4-3.3,5.5-7.3l-13.8-55.5
					c-1.1-4.1-4.8-7.1-9.1-7.3H332c-4,0-6.4,3.3-5.5,7.3L340.4,318.7z"/>
				<path id="Trazado_107" class="st15" d="M389,318.7c1.1,4.1,4.8,7.1,9.1,7.3h28.6c4,0,6.4-3.3,5.5-7.3l-13.8-55.5
					c-1.1-4.1-4.8-7.1-9.1-7.3h-28.6c-4,0-6.4,3.3-5.5,7.3L389,318.7z"/>
			</g>
			<g id="Grupo_34" transform="translate(12.201 42.661)">
				<path id="Trazado_108" class="st14" d="M300.3,313.8l-11.4-45.6c-1.7-6.7-8.5-12.2-15.2-12.2h-96.8c-6.7,0-10.8,5.5-9.1,12.2
					l11.4,45.6c1.7,6.7,8.5,12.2,15.2,12.2h96.9C297.9,325.9,302,320.5,300.3,313.8z"/>
				<g id="Grupo_33" transform="translate(11.084 11.948)">
					<path id="Trazado_109" class="st12" d="M261.4,261.5c1.2,0.1,2.1-0.8,2.2-2c0-0.3,0-0.5-0.1-0.8l0,0c-0.4-1.6-1.8-2.7-3.5-2.8
						h-90.5c-1.2-0.1-2.1,0.8-2.2,2c0,0.3,0,0.5,0.1,0.8l0,0c0.4,1.6,1.8,2.7,3.5,2.8H261.4z"/>
					<path id="Trazado_110" class="st12" d="M264.1,272.2c1.2,0.1,2.1-0.8,2.2-2c0-0.3,0-0.5-0.1-0.8l0,0c-0.4-1.6-1.8-2.7-3.5-2.8
						h-90.5c-1.2-0.1-2.1,0.8-2.2,2c0,0.3,0,0.5,0.1,0.8l0,0c0.4,1.6,1.8,2.7,3.5,2.8H264.1z"/>
					<path id="Trazado_111" class="st12" d="M268.8,280.1c-0.4-1.6-1.8-2.7-3.5-2.8h-90.5c-1.2-0.1-2.1,0.8-2.2,2
						c0,0.3,0,0.5,0.1,0.8c0.4,1.6,1.8,2.7,3.5,2.8h90.5c1.2,0,2.1-0.9,2.2-2C268.9,280.6,268.9,280.3,268.8,280.1z"/>
					<path id="Trazado_112" class="st12" d="M199.2,289.2h-21.3c-1.2-0.1-2.1,0.8-2.2,2c0,0.3,0,0.5,0.1,0.8
						c0.4,1.6,1.8,2.7,3.5,2.8h21.3c1.2,0.1,2.1-0.8,2.2-2c0-0.3,0-0.5-0.1-0.8C202.2,290.4,200.8,289.3,199.2,289.2z"/>
				</g>
			</g>
			<path id="Trazado_113" class="st16" d="M689.8,478.2l-6-23.9c-1-3.6-4.2-6.2-8-6.4h-50.8c-3.5,0-5.7,2.8-4.8,6.4l6,23.9
				c1,3.6,4.2,6.2,8,6.4H685C688.6,484.6,690.7,481.8,689.8,478.2z"/>
			<g id="Grupo_35" transform="translate(458.544 198.212)">
				<path id="Trazado_114" class="st12" d="M216.7,258.9c0.6,0,1.1-0.5,1.1-1.1c0-0.1,0-0.3-0.1-0.4c-0.2-0.8-1-1.4-1.8-1.5h-47.5
					c-0.6,0-1.1,0.4-1.1,1c0,0.1,0,0.3,0.1,0.4c0.2,0.8,1,1.4,1.8,1.5H216.7z"/>
				<path id="Trazado_115" class="st12" d="M218.1,264.5c0.6,0,1.1-0.5,1.1-1.1c0-0.1,0-0.3-0.1-0.4c-0.2-0.8-1-1.4-1.8-1.5h-47.5
					c-0.6,0-1.1,0.5-1.1,1.1c0,0.1,0,0.3,0.1,0.4c0.2,0.8,1,1.4,1.8,1.5H218.1z"/>
				<path id="Trazado_116" class="st12" d="M220.6,268.6c-0.2-0.8-1-1.4-1.8-1.5h-47.5c-0.6,0-1.1,0.5-1.1,1.1c0,0.1,0,0.3,0.1,0.4
					c0.2,0.8,1,1.4,1.8,1.5h47.5c0.6,0,1.1-0.4,1.1-1C220.6,268.9,220.6,268.8,220.6,268.6z"/>
				<path id="Trazado_117" class="st12" d="M184,273.4h-11.2c-0.6,0-1.1,0.4-1.1,1c0,0.1,0,0.3,0.1,0.4l0,0c0.2,0.8,1,1.4,1.8,1.5
					h11.2c0.6,0,1.1-0.5,1.1-1.1c0-0.1,0-0.3-0.1-0.4C185.7,274.1,184.9,273.5,184,273.4z"/>
			</g>
			<g id="Grupo_38" transform="translate(51.991 189.635)">
				<g id="Grupo_36" transform="translate(18.691 10.787)">
					<path id="Trazado_118" class="st24" d="M266.9,260.3c0.9,0,1.7-0.7,1.7-1.6c0-0.2,0-0.4-0.1-0.6l0,0c-0.4-1.2-1.5-2.1-2.7-2.2
						h-96.7c-0.9,0-1.7,0.7-1.7,1.6c0,0.2,0,0.4,0.1,0.6l0,0c0.4,1.2,1.5,2.1,2.7,2.2L266.9,260.3z"/>
					<path id="Trazado_119" class="st24" d="M268.7,267.6c0.9,0,1.7-0.7,1.7-1.6c0-0.2,0-0.4-0.1-0.6l0,0c-0.4-1.2-1.5-2.1-2.7-2.2
						h-96.7c-0.9,0-1.7,0.7-1.7,1.6c0,0.2,0,0.4,0.1,0.6l0,0c0.4,1.2,1.5,2.1,2.7,2.2H268.7z"/>
					<path id="Trazado_120" class="st24" d="M269.5,270.8h-96.7c-0.9,0-1.7,0.7-1.7,1.6c0,0.2,0,0.4,0.1,0.6
						c0.4,1.2,1.5,2.1,2.7,2.2h96.7c0.9,0,1.7-0.7,1.7-1.6c0-0.2,0-0.4-0.1-0.6C271.9,271.7,270.8,270.8,269.5,270.8z"/>
					<path id="Trazado_121" class="st24" d="M391.7,260.3c0.9,0,1.7-0.7,1.7-1.6c0-0.2,0-0.4-0.1-0.6l0,0c-0.4-1.2-1.5-2.1-2.7-2.2
						h-96.7c-0.9,0-1.7,0.7-1.7,1.6c0,0.2,0,0.4,0.1,0.6l0,0c0.4,1.2,1.5,2.1,2.7,2.2L391.7,260.3z"/>
					<path id="Trazado_122" class="st24" d="M393.5,267.6c0.9,0,1.7-0.7,1.7-1.6c0-0.2,0-0.4-0.1-0.6l0,0c-0.4-1.2-1.5-2.1-2.7-2.2
						h-96.7c-0.9,0-1.7,0.7-1.7,1.6c0,0.2,0,0.4,0.1,0.6l0,0c0.4,1.2,1.5,2.1,2.7,2.2H393.5z"/>
					<path id="Trazado_123" class="st24" d="M394.4,270.8h-96.7c-0.9,0-1.7,0.7-1.7,1.6c0,0.2,0,0.4,0.1,0.6
						c0.4,1.2,1.5,2.1,2.7,2.2h96.7c0.9,0,1.7-0.7,1.7-1.6c0-0.2,0-0.4-0.1-0.6C396.7,271.7,395.6,270.8,394.4,270.8z"/>
					<path id="Trazado_124" class="st24" d="M512.8,260.3c0.9,0,1.7-0.7,1.7-1.6c0-0.2,0-0.4-0.1-0.6l0,0c-0.4-1.2-1.5-2.1-2.7-2.2
						h-96.7c-0.9,0-1.7,0.7-1.7,1.6c0,0.2,0,0.4,0.1,0.6l0,0c0.4,1.2,1.5,2.1,2.7,2.2H512.8z"/>
					<path id="Trazado_125" class="st24" d="M514.6,267.6c0.9,0,1.7-0.7,1.7-1.6c0-0.2,0-0.4-0.1-0.6l0,0c-0.4-1.2-1.5-2.1-2.7-2.2
						h-96.7c-0.9,0-1.7,0.7-1.7,1.6c0,0.2,0,0.4,0.1,0.6l0,0c0.4,1.2,1.5,2.1,2.7,2.2H514.6z"/>
					<path id="Trazado_126" class="st24" d="M518.1,272.9c-0.4-1.2-1.5-2.1-2.7-2.2h-96.7c-0.9,0-1.7,0.7-1.7,1.6
						c0,0.2,0,0.4,0.1,0.6c0.4,1.2,1.5,2.1,2.7,2.2h96.7c0.9,0,1.7-0.7,1.7-1.6C518.2,273.3,518.1,273.1,518.1,272.9z"/>
				</g>
				<g id="Grupo_37">
					<path id="Trazado_127" class="st24" d="M555.5,298.3H182.5c-3.5-0.2-6.5-2.6-7.5-6l-7.5-29.9c-0.4-1.6-0.1-3.3,0.9-4.6
						c1-1.2,2.5-1.9,4-1.9h373.1c3.5,0.2,6.5,2.6,7.5,6l7.5,29.9c0.4,1.6,0.1,3.3-0.9,4.6C558.6,297.7,557.1,298.3,555.5,298.3z
						 M172.4,258.2c-0.9,0-1.7,0.3-2.3,1c-0.6,0.8-0.7,1.8-0.4,2.7l7.5,29.9c0.7,2.4,2.8,4.2,5.4,4.3h373.1c0.9,0,1.7-0.3,2.3-1
						c0.6-0.8,0.7-1.8,0.4-2.7l-7.5-29.9c-0.7-2.4-2.8-4.2-5.4-4.3H172.4z"/>
				</g>
			</g>
		</g>
	</g>
	<g id="Grupo_41" transform="translate(609.165 47.099)">
		<path id="Trazado_128" class="st25" d="M244.2,326.5c0,0,36.1,35.5,37.7,48.9c1.6,13.4-16.4,34.3-16.4,34.3L244.2,326.5z"/>
		<path id="Trazado_129" class="st5" d="M231.2,695.1c0,0-1.2,18.9-4.8,19.1c-0.5,0-18.5,0-18.5,0l-23-0.2c0,0,0.2-5.5,6.9-6.7
			s18-5.9,22.1-14.8C218.1,683.3,231.2,695.1,231.2,695.1z"/>
		<path id="Trazado_130" class="st5" d="M282.5,695.1c0,0-1.2,18.9-4.8,19.1c-0.5,0-18.5,0-18.5,0l-23-0.2c0,0,0.2-5.5,6.9-6.7
			s18-5.9,22.1-14.8C269.4,683.3,282.5,695.1,282.5,695.1z"/>
		<path id="Trazado_131" class="st5" d="M205.7,492.4c0,0,6,38.5,28.5,106.8s25.5,97.9,25.5,97.9l24.1-0.7c0,0,0.2-74.7-10.2-109
			s-2.2-123.9-2.2-123.9L205.7,492.4z"/>
		<path id="Trazado_132" class="st6" d="M194,465.6c0.1,43.2,3.1,86.4,9.2,129.2c10,71.2,6.6,101.5,6.6,101.5l24,0.8
			c0,0,14.4-71.2,10.3-106.9s19.7-122.3,19.7-122.3L194,465.6z"/>
		<path id="Trazado_133" class="st26" d="M240.6,329.9l-11.3,8.4l-16.4-3.4c0.2-1.5,1.3-7.7,2.3-13.3c0.1-0.3,0.1-0.7,0.2-1
			c0.9-4.8,1.6-8.9,1.6-8.9l15.3-7.6l5.7-2.8c0,0.1-0.4,5.3-0.5,6.1C236.3,320.8,240.6,329.9,240.6,329.9z"/>
		<path id="Trazado_134" class="st25" d="M214,325.7c0.4-0.1,22.3-6.6,24.7-5.8s3.8,5.4,3.8,5.4l-35.9,8.1
			C206.6,333.3,209.4,327.6,214,325.7z"/>
		<path id="Trazado_135" class="st27" d="M273,472.8c-3.7,17-65.6,19-81.5,3.6c-1.8-1.8-1.9-9.9-1.2-20.9
			c1.3-21.5,5.6-53.9,5.8-70.4c0.2-7.9,1-15.8,2.6-23.6c1.9-9.6,4.5-19,7.9-28.2c0,0,30.2-9.8,35.9-8.1
			C269.7,333.2,276.8,455.9,273,472.8z"/>
		<path id="Trazado_136" class="st25" d="M190.3,455.4c1.3-21.5,5.6-53.9,5.8-70.4c0.2-7.9,1-15.8,2.6-23.6l18.2-3.2
			C216.9,358.3,234.7,430.9,190.3,455.4z"/>
		<path id="Trazado_137" class="st26" d="M200.1,425.5c0.7,1.8,0.1,3.8-1.3,4.9c-2.6,2-4.3,5.2-3.7,7.6s6.3,6.2,8.3,5.6
			c2-0.6,6-3.7,5.6-4.9c-0.4-1.2,2.7-10.9-2.1-14.6C202,420.3,200.1,425.5,200.1,425.5z"/>
		<path id="Trazado_138" class="st27" d="M220.4,329.6c0,0-17.7,2.7-31.8,23.6s-23.4,36.3-20.8,43.8s26.3,33.5,30.4,33.5
			s10.7-3,11-9.7c0,0-16.7-25-13.4-28.8c1.4-1.6,21.7-18.1,24.6-10.6C225.2,393.6,220.4,329.6,220.4,329.6z"/>
		<path id="Trazado_139" class="st28" d="M236.2,307.5c-3.4,6.4-15.9,12-21.1,14c0.1-0.3,0.1-0.7,0.2-1c0.9-4.8,1.6-8.9,1.6-8.9
			l15.3-7.6C235.6,304,237.6,304.9,236.2,307.5z"/>
		<path id="Trazado_140" class="st26" d="M209.4,310.8c0,0,27.6,8.6,32.7-8.7s12.1-27.8-5.3-34c-17.4-6.2-22.8-0.6-25.9,4.7
			C207.8,278.2,202.4,308.1,209.4,310.8z"/>
		<path id="Trazado_141" class="st5" d="M215.3,271.8c0,0,1.6,20.8,5.8,19.8s7.9-1.6,7.3,4.6c-0.7,6.3-6.5,13.5,6.3,14.5
			c12.8,1,31.6-33.3,28.1-39.7C252.7,252.5,200.7,249.2,215.3,271.8z"/>
	</g>
</g>
</svg>
