<?xml version="1.0" encoding="utf-8"?>
<!-- Generator: Adobe Illustrator 24.0.1, SVG Export Plug-In . SVG Version: 6.00 Build 0)  -->
<svg version="1.1" id="Capa_1" xmlns="http://www.w3.org/2000/svg" xmlns:xlink="http://www.w3.org/1999/xlink" x="0px" y="0px"
	 viewBox="0 0 1280 1024" style="enable-background:new 0 0 1280 1024;" xml:space="preserve">
<style type="text/css">
	.st0{opacity:0.28;fill:#A1D2CA;enable-background:new    ;}
	.st1{fill:#A2DFF2;}
	.st2{fill:#96CFE0;}
	.st3{fill:#F37168;}
	.st4{fill:#2E5B9A;}
	.st5{fill:#F09959;}
	.st6{fill:#E38540;}
	.st7{fill:#75A1DE;}
	.st8{fill:#A86B48;}
	.st9{fill:#3E6BAB;}
	.st10{fill:#F0CEB4;}
	.st11{fill:#F7A96F;}
	.st12{fill:#A8CEFF;}
	.st13{fill:#6695D6;}
	.st14{fill:#303C60;}
	.st15{fill:#D54A41;}
	.st16{opacity:0.5;fill:#00A99D;enable-background:new    ;}
	.st17{fill:#129390;}
	.st18{fill:#FFFFFF;}
	.st19{opacity:0.5;fill:#129390;enable-background:new    ;}
	.st20{opacity:0.5;}
	.st21{fill:#F39892;}
	.st22{fill:#9CD499;}
	.st23{clip-path:url(#SVGID_2_);}
	.st24{clip-path:url(#SVGID_4_);}
	.st25{clip-path:url(#SVGID_6_);}
	.st26{clip-path:url(#SVGID_8_);}
	.st27{clip-path:url(#SVGID_10_);}
	.st28{fill:#E7F3FE;}
</style>
<g id="Grupo_93" transform="translate(-0.018 -0.024)">
	<path id="Trazado_142" class="st0" d="M1059.4,424c49.6-51.5-193.8-231.2-394.8-247.5c-184.9-15-429.4,57.8-181.3,165.8
		C719.8,445,1033.4,451,1059.4,424z"/>
	<path id="Trazado_143" class="st0" d="M88,387.8c115.9-146.7,359.3,8.3,567.5,45.9s547-22.1,546.2,142.8
		c-0.9,175.9-76,274.9-488,322.2c-412,47.2-600.7-98.4-654.6-253.5C17.2,524.4,57,427,88,387.8z"/>
	<g id="Grupo_43" transform="translate(537.928 287.794)">
		<path id="Trazado_144" class="st1" d="M344.8,287.3c-17,34.5-38.4,128.9-44.1,134.1c-5.9,5.2-39.4,25.2-45.2,35
			c-5.9,9.7-3.2,6.4-0.7,7.1c2.5,0.7,148.7,1.3,148.7,1.3s-16.8-100.2-18.8-100.9C382.7,363.2,344.8,287.3,344.8,287.3z"/>
		<path id="Trazado_145" class="st2" d="M320.6,464.1c26.9,0.2,55.1,0.3,70.7,0.4l-21.3-127.6c-11.4-22-25.2-49.7-25.2-49.7
			c-2.1,4.3-4.3,9.6-6.6,15.6c-2.2,95.8,11.6,122.7,1.2,139.8C331.3,456,323.9,461.9,320.6,464.1z"/>
	</g>
	<g id="Grupo_44" transform="translate(479.598 191.468)">
		<path id="Trazado_146" class="st1" d="M492.7,341.9c24.2,22.3,78.3,43.6,78.3,43.6s8.2,75.8,2.7,118.7
			c-5.6,42.9-2.4,51.7-2.4,51.7l-116.6,1c0,0-9.7-21.7-37.1-86.2c-17.4-41-14.3-87-14.3-87l67.8-30.5L492.7,341.9z"/>
		<path id="Trazado_147" class="st2" d="M459.7,555.9H571c0,0-3.1-8.7,2.4-51.7c4.6-35.4-0.1-93-2-112.3l-10.2-4.3
			c-25.4,7.3-40,45.2-44.4,82.3c-2.9,24.8-43.9,49.2-70.8,62.6C455.1,549.5,459.7,555.9,459.7,555.9z"/>
		<path id="Trazado_148" class="st2" d="M473.9,368.9c0,0,1,32,6.5,31.6c5.4-0.3,37.2-40.6,37.2-40.6l-5.4-2.5L473.9,368.9z"/>
		<path id="Trazado_149" class="st2" d="M465.7,367c0,0-6.9,29.4-10.3,28.8c-3.4-0.7-8.1-30.6-8.1-30.6L465.7,367z"/>
		<path id="Trazado_150" class="st3" d="M464.4,363.4l9.5,1l3.7,11.3c0,0-8.3,9.7-8.5,13.7c-0.2,4,1.9,18.7,2,32.1
			c0.1,13.4-4.8,66.6-2.5,99.1l2.2,32.6l-19,0.8c0,0-1-35.8,0-74.2c1-38.4,11.9-90.3,11.9-90.3l-4.3-13.2L464.4,363.4z"/>
		<path id="Trazado_151" class="st4" d="M432.4,264.2c-13.4,29.9,2.7,57.6,2.2,56.4c-0.4-1.2,20.4-50.4,20.4-50.4L432.4,264.2z"/>
		<path id="Trazado_152" class="st5" d="M483.2,286.3l17,62.3c0.5,1.8,0.1,3.7-1.1,5.1c-4,4.9-9.6,15-21.1,18.3
			c-2.4,0.6-4.8,0.8-7.2,0.8c-2.3,0-4.3-1.7-4.8-4l-11.4-59.1L483.2,286.3z"/>
		<path id="Trazado_153" class="st6" d="M480,291.5l-6.2,2.5l-19.1,15.6L462,347l2.9,14.9C482.3,351.1,488.7,333.4,480,291.5z"/>
		<path id="Trazado_154" class="st5" d="M478.9,314.5c0,20.8-12.5,37.2-28,36.6s-25-12.3-28.1-38.7c-2.4-20.8,3.5-44.9,19-44.2
			C457.4,268.6,478.9,293.7,478.9,314.5z"/>
		<path id="Trazado_155" class="st1" d="M570.9,385.6c22.6,5.1,26.8,50.9,34.1,99.1c0.9,5.5,5.2,52.5,5.2,52.5
			c0,5.5-3.2,10.6-8.2,12.9c-7.4,3.7-10.3,6.4-53,6.9c-40.9,0.4-93.8-1.3-93.8-1.3s-0.4-15.3,3.8-22.7c6.3-11.2,71.1-27.3,77.1-28.2
			c0.9-12.1-6-55.7,3.4-85.3c6.4-20.4,13.4-31,22.1-33.8C564.7,384.8,567.9,384.8,570.9,385.6z"/>
		<path id="Trazado_156" class="st2" d="M478.3,556.7c20.2,0.3,47.9,0.6,70.6,0.3c42.7-0.4,45.7-3.2,53-6.9
			c8.6-4.3,9.1-11.6,9.1-11.6s-4.3-50.1-5.1-55.6c-4.8-32.3-9.8-69.2-21.8-87.2c8.1,23.3,12.5,47.7,13.2,72.3
			c0.2,6.7-0.5,13.4-2.2,19.9c-2,6.3-6.9,10.3-14.6,8.2c-15.5-4.3-35,4.8-35,4.8s14.6-5.2,28.4-0.4s42.3,36.2,11.2,47.8
			C575.7,552,518.8,554.8,478.3,556.7z"/>
		<path id="Trazado_157" class="st2" d="M462.3,534.5c0,0,5.8-9.7,17.5-9.7c11.7,0,11,19.2,9.2,25.6s-8.6,6.6-8.6,6.6l-23.7-0.6
			L462.3,534.5z"/>
		<path id="Trazado_158" class="st7" d="M229.1,557.2H427c0-5.5-4.4-9.9-9.9-10c0,0-0.1,0-0.1,0H229v10H229.1z"/>
		<path id="Trazado_159" class="st5" d="M458.1,532.9c-23.9-11-30.6-8.2-36.1-10.3c-13.4-5.2-17.1-2-28.1,21.6
			c-2.2,4.6,3,5.4,8.2,5.9c5.2,0.4,12.3-9.1,14.4-10.1c2.1-1,7.6-1.1,7.6-1.1s-1.8-0.1-4.8,4.8c-3,5-6.3,6.6-2.3,7
			c4,0.3,5.1-6.2,12.5-4.1c7.3,2.1,5.9,9.1,24.4,8.4c17.7-0.6,31,1.2,31.5-10c0.7-10.6,2.2-15.8-7.6-18.5
			C470.3,524.4,458.1,532.9,458.1,532.9z"/>
		<path id="Trazado_160" class="st8" d="M458.3,532.9c16.6-0.4,10.1,19.6,8.2,21.2c-1.9,1.5,9.1,1.4,9.1,1.4
			c3.5-5.2,4.4-11.7,2.3-17.6c-3.5-9.8-12.1-11-12.1-11l-7.6,3.4L458.3,532.9z"/>
		<path id="Trazado_161" class="st4" d="M474.9,529c0.1,2.5-4,4.9-9.1,5.1s-9.4-1.5-9.5-4.1s4-4.9,9.1-5.1
			C470.5,524.5,474.8,526.4,474.9,529z"/>
		<path id="Trazado_162" class="st9" d="M473.5,527.8c0.1,2.3-3.5,4.3-8.1,4.5c-4.6,0.2-8.4-1.4-8.5-3.7c-0.1-2.3,3.5-4.3,8.1-4.5
			C469.5,523.9,473.4,525.5,473.5,527.8z"/>
		<path id="Trazado_163" class="st10" d="M470.5,527.2c0.1,1.7-2.5,3.1-5.9,3.3c-3.3,0.2-6.1-1-6.2-2.7c-0.1-1.7,2.5-3.1,5.9-3.3
			C467.6,524.3,470.4,525.5,470.5,527.2z"/>
		<path id="Trazado_164" class="st5" d="M328.8,534.5c12.3-6.9,27.2-4.5,32.7,2.3c5.4,6.9,6.4,11.4-5.9,11.4s-36.8,0.9-40.9,0.4
			C310.7,548.1,328.8,534.5,328.8,534.5z"/>
		<path id="Trazado_165" class="st5" d="M344.7,532.2c13.2-3.2,22.1,4.5,33.2,11.8c9.5,6.4,11.5,12.5,0.9,7.3
			c-15.5-7.7-24.6-8.6-24.6-8.6L344.7,532.2z"/>
		<path id="Trazado_166" class="st5" d="M330,538c-6.6,0-12.5-2.1-17.1-1.8c-4.6,0.4-19.6,15.7-17.3,16.8c0.2,0.1,0.3,0.1,0.6,0.2
			c3.6,1.3,7.5-0.1,9.5-3.3c2.1-3.4,5.5-7.3,9.5-5.9c4.4,1.4,9,2.1,13.6,2.1L330,538z"/>
		<path id="Trazado_167" class="st11" d="M331.1,550.9c-6.9-2.8,4.1-25.4,7.7-25.4s17.3,11,17.3,11s-3.2,1.8-14-1.8
			c-2.8-0.9-5,14.5-8.2,16.4C330.7,552.6,331.1,550.9,331.1,550.9z"/>
		<path id="Trazado_168" class="st1" d="M462.5,349.8l3.2,17l-9.4,20.2l-10.1-21.5L462.5,349.8z"/>
		<path id="Trazado_169" class="st4" d="M425,324.1c3.9,24.7,13.1,27.3,19.6,29.5s30.7-8,33.3-14.7c6.6-17.4-4.1-30.3-1.9-30.5
			c2.2-0.2,5.2,5.5,12.2,12.4c0.7,0.7,5.1,4.9,5,3.2c-1.5-22.5,8.7-31.4,1.9-53.2c-5.1-16-15.3-12.8-15.3-12.8s-9.3-12.5-29.9-7.1
			c-13.8,3.7-25.3,11.4-39,17.8c-13.8,6.4,23.9,33.3,40.4,17.9c16.6-15.5,12.2,12.6,15.5,14.2c3.3,1.5,1.4,0,5.3,13.3
			c3.9,13.3-11.6,25.2-16.4,27.3c-15,6.6-18.1,4.5-22.7-0.8C429.1,335.8,425,324.1,425,324.1z"/>
		<path id="Trazado_170" class="st5" d="M488.6,304.4c-0.7,6.5-4.3,11.4-8.2,10.7c-3.9-0.6-4.9-5.6-5.8-12.9
			c-0.8-6.5,4.3-11.4,8.2-10.7C486.6,292.1,489.3,297.9,488.6,304.4z"/>
		<path id="Trazado_171" class="st1" d="M498.9,343.3l16.9,15.8c0,0-32.5,30.6-35.4,30.3c-2.8-0.3-7.6-26-7.6-26L498.9,343.3z"/>
		<path id="Trazado_172" class="st1" d="M473.4,362.9c-3.1,1.4-2.1,6-3.4,7.5c-1.3,1.5-2.1,2-3.2-0.2c-1.1-2.2-0.9-7.1-1.8-7.3
			c-0.8-0.2-7.1,19.3-7.1,19.3s4.6-12.6,5.6-11.2c1.1,1.3,0.2,2.7,4,2.9c2.9,0,5.9-0.5,8.6-1.4L473.4,362.9z"/>
	</g>
	<g id="Grupo_45" transform="translate(439.571 338.089)">
		<path id="Trazado_173" class="st12" d="M268.9,410.5h105.7l-44.9-98.8c-1.3-2.9-4.2-4.7-7.3-4.8h-95.6c-1.7,0-3.1,1.3-3.2,3
			c0,0.5,0.1,1,0.3,1.4L268.9,410.5z"/>
		<path id="Trazado_174" class="st7" d="M216.5,307.1h97.6c3.2,0,6,1.9,7.3,4.8l44.9,98.8H258.7l-45-99c-0.8-1.6-0.1-3.5,1.5-4.2
			C215.6,307.2,216,307.1,216.5,307.1z"/>
		<path id="Trazado_175" class="st13" d="M267.4,364.5c3.7,7.6,9.7,12.4,13.4,10.6c3.8-1.8,3.8-9.4,0-17.1
			c-3.7-7.6-9.7-12.4-13.4-10.6C263.6,349.3,263.6,356.9,267.4,364.5z"/>
	</g>
	<g id="Grupo_48" transform="translate(134.284 197.781)">
		<g id="Grupo_46" transform="translate(65.869 3.898)">
			<path id="Trazado_176" class="st14" d="M129.1,370.5c-1.7,0-3.2-0.1-4.9-0.1c-1.3-0.1-2.7-0.1-4-0.1c-0.5,0-0.8-0.3-0.9-0.8
				c0-0.5,0.3-0.8,0.8-0.9c0.1,0,0.1,0,0.2,0c1.3,0,2.8,0.1,4.1,0.1c10,0.6,20.2,1,30.2-18.3c4.3-8.3,9.1-24.6,8.1-42.8
				c-0.8-14.9-5.9-36.3-25.6-52.6c-0.4-0.3-0.4-0.9-0.1-1.2c0.3-0.3,0.8-0.4,1.2-0.1c20.1,16.8,25.3,38.6,26.1,53.9
				c1,18.6-3.9,35.2-8.3,43.7C147.2,368.3,137.8,370.5,129.1,370.5z"/>
		</g>
		<g id="Grupo_47" transform="translate(69.126 11.605)">
			<path id="Trazado_177" class="st14" d="M122.7,358.9h-1.2c-0.5,0-0.8-0.3-0.9-0.8c0-0.5,0.3-0.8,0.8-0.9c0.1,0,0.1,0,0.2,0h1.1
				c10.4,0,19.9-7.3,26.4-20.2c10.6-21.3,11.6-56.3-7.4-79.1c-0.3-0.4-0.3-0.9,0.1-1.2c0.4-0.3,0.9-0.3,1.2,0.1c0,0,0,0,0,0.1
				c19.5,23.3,18.5,59.1,7.5,80.9C143.9,351.2,133.7,358.9,122.7,358.9z"/>
		</g>
		<path id="Trazado_178" class="st14" d="M154.7,264c30-23.2,58.1-11,68.2,20.6c9.4,29.4-2.7,92.6-47.3,81.6
			c-46.2-11.4-50.1-25.6-49.8-46.1C126.5,298,137.1,277.4,154.7,264z"/>
		<path id="Trazado_179" class="st1" d="M139.1,357.3l-42.8,16c0,0,11.9,87,13.1,120.2c1,33.2-15.7,62.1-15.7,62.1h112
			c0,0,15.4-90.5,12.4-122.3c-3.1-31.9-24.3-64.9-25.3-65.7s-26.8-6.6-26.8-6.6L139.1,357.3z"/>
		<path id="Trazado_180" class="st15" d="M214.5,464.5c0,0,4.3,40.4,6.1,42.5s67.6,34.3,67.6,34.3l-95.6,6.5L214.5,464.5z"/>
		<path id="Trazado_181" class="st15" d="M192.5,367.6c10.6,0.2,13.5,17.6,16,30.5C211.1,411,192.5,367.6,192.5,367.6z"/>
		<path id="Trazado_182" class="st3" d="M174.4,436.4c-5.9-20.9-37.2-79.1-37.2-79.1l-41,16c0,0,9.4,68.2,12.3,107l15.6,75.4h50.3
			C174.4,555.6,180.2,457.3,174.4,436.4z"/>
		<path id="Trazado_183" class="st15" d="M116.5,518.9l46.2-10.6l-3.8,39.5L116.5,518.9z"/>
		<path id="Trazado_184" class="st15" d="M139.7,529.9c-7.5-10.2-14.9-21.5-7.7-44.9c7.2-23.4,7.9-31.9,5.4-53.1
			c-2.5-21.2-13.9-55.2-36.2-56.2c0,0-0.8,7.4-1.9,19.2c3.7,28,9.4,75.9,10.2,98.6c1,33.2-15.7,62.1-15.7,62.1l91.1,2
			C184.7,557.6,147.2,540.1,139.7,529.9z"/>
		<path id="Trazado_185" class="st3" d="M217.9,433.3c-3.1-31.9-24.3-64.9-25.3-65.7c-0.7-0.4-10.7-2.9-18.3-4.6
			c2.2,5.3,25.8,61.4,24.8,84.5c-1,24.2,0,108.3,0,108.3h6.5C205.6,555.6,221,465.1,217.9,433.3z"/>
	</g>
	<path id="Trazado_186" class="st16" d="M582.2,824.3c-1.1-0.6-2.1-1-3.1-1.5c-0.9-0.5-1.7-1.3-2.3-2.1c-0.7-0.9-1.2-1.8-1.9-2.8
		c-1.3,3.2-4.1,5.6-7.5,6.3c0.8,0.3,1.2,0.4,1.7,0.7c4.1,1.7,6.2,6.2,4.9,10.4c-1.4,4.5-6.1,7-10.6,5.6c-3.4-1.1-5.8-4.1-6-7.7
		c-0.2-3.6,1.9-7,5.3-8.4c0.4-0.2,0.9-0.3,1.4-0.6c-1.1-0.4-2.1-0.9-3-1.3c-1-0.5-1.8-1.1-2.4-2c-0.7-0.9-1.2-1.8-1.9-2.8
		c-0.4,0.2-0.6,0.7-0.8,1.1c-0.3,0.4-0.6,0.9-0.9,1.3l-1,1c-0.3,0.3-0.7,0.6-1.1,0.9c-0.4,0.3-0.8,0.5-1.2,0.7
		c-0.4,0.2-1,0.3-1.4,0.6c-0.5,0.2-1,0.3-1.5,0.4c0.5,0.2,0.9,0.3,1.4,0.4c3.6,1.2,5.9,4.5,5.9,8.3c-0.1,4.7-4.1,8.4-8.7,8.2
		c-3.3-0.1-6.2-2.1-7.5-5.1c-1.9-4.3,0.1-9.2,4.4-11.1c0.3-0.1,0.5-0.2,0.8-0.3c0.4-0.1,0.8-0.2,1.4-0.4c-1.9-0.4-3.6-1.3-5.1-2.4
		c-1.3-1.2-2.3-2.7-3-4.4c-0.7,0.1-0.6,0.6-0.7,0.9c-1.1,2.8-3.6,4.8-6.5,5.4c-2.7,0.7-5.7,0.1-7.9-1.8c-1.2-1-2.2-2.2-2.9-3.7
		c-0.1-0.3-0.1-0.8-0.7-0.9c-1.9,4.4-5.1,6.7-10.1,6.3c-4-0.4-6.7-3.1-8-7.6c-0.4,0.2-0.4,0.7-0.6,1c-1.4,4.9-6.4,7.7-11.3,6.3
		c-2.5-0.7-4.6-2.5-5.7-4.8c-0.3-0.7-0.6-1.4-0.9-2.2c-0.6,0.1-0.4,0.7-0.6,1c-0.4,1.3-1.1,2.4-2,3.4c-3.4,3.6-9,3.7-12.6,0.3
		c-1.6-1.5-2.6-3.6-2.7-5.7c-0.4-3.5,1.4-6.8,4.4-8.5c0.4-0.2,0.7-0.5,1.1-0.7c0-0.1,0-0.2,0.1-0.2c-0.3-0.4-1-0.6-1.4-0.8
		c-0.4-0.3-1-0.6-1.4-0.9c-0.4-0.3-0.8-0.7-1.2-1c-0.4-0.4-0.8-0.9-1.1-1.3c-0.3-0.4-0.7-1-1-1.5c-0.2,0.1-0.4,0.2-0.4,0.4
		c-1.3,2.3-3.5,4-6.1,4.8c-0.1,0-0.2,0.1-0.3,0.2c0.3,0.3,0.8,0.6,1.2,0.7c1.8,0.8,3.3,2.1,4.2,3.8c1.7,3.2,1.3,7.2-1,10
		c-2.3,2.8-6,3.8-9.4,2.7c-3.5-1.2-5.9-4.4-6-8.1c-0.1-3.6,2-6.9,5.3-8.3c0.5-0.2,1-0.4,1.4-0.7c-1.6-0.5-3.1-1.3-4.4-2.3
		c-1.1-1.1-2.1-2.4-2.8-3.9c-0.4-0.1-0.4,0.2-0.6,0.4c-0.1,0.2-0.2,0.4-0.3,0.6c-1.3,2.6-3.8,4.3-6.6,4.8c-3.5,0.7-7-0.6-9.2-3.4
		c-0.5-0.6-0.9-1.3-1.2-2c-0.2-0.3-0.3-0.6-0.4-0.9c-0.4,0-0.4,0.3-0.6,0.6c-0.1,0.2-0.2,0.3-0.3,0.6c-0.8,1.6-2.1,3-3.7,3.9
		c-4.5,2.5-10.2,0.9-12.7-3.6c-0.4-0.6-0.6-1.3-0.8-2l-0.3-1.3c-0.6,0.1-0.4,0.6-0.4,0.9c-0.6,2.8-2.4,5.1-5,6.2
		c-3,1.5-6.6,1.1-9.3-1c-3.9-3.1-4.6-8.7-1.5-12.6c0.8-1,1.8-1.9,3-2.4c0.3-0.2,0.7-0.3,1-0.6l0.1-0.1c-5-2.8-4.4-3.1-6.3-5.6
		c-0.6,0.3-0.7,1-1.1,1.4c-0.4,0.5-0.8,0.9-1.2,1.3c-0.5,0.4-0.9,0.8-1.4,1.1c-0.5,0.3-1.1,0.6-1.7,0.8c-0.6,0.2-1.1,0.3-2,0.7
		c0.8,0.3,1.2,0.4,1.7,0.7c2.1,0.7,3.8,2.2,4.8,4.2c2.2,4.3,0.4,9.5-3.8,11.7c-4.3,2.2-9.5,0.4-11.7-3.8c-0.6-1.1-0.9-2.3-0.9-3.5
		c-0.2-3.5,1.8-6.8,5.1-8.2c0.7-0.3,1.4-0.6,2.1-0.8c-0.3-0.4-0.7-0.3-1-0.4l-1-0.3c-0.3-0.1-0.7-0.3-1-0.4
		c-0.3-0.2-0.6-0.3-0.9-0.6c-0.3-0.2-0.7-0.6-1-0.8l-0.8-0.8c-0.2-0.3-0.5-0.6-0.7-0.9c-0.2-0.3-0.4-0.6-0.6-0.9
		c-0.2-0.3-0.3-0.6-0.4-1c-0.2-0.4-0.3-0.7-0.6-1.1c-0.4,0.7-0.7,1.4-1,2.1c-0.4,0.6-0.9,1.2-1.3,1.8c-0.5,0.5-1.1,1-1.7,1.4
		c-0.6,0.5-1.3,0.8-2,1c-0.7,0.2-1.4,0.3-2.1,0.4c-0.7,0.1-1.5,0.1-2.2,0c-2-0.2-3.8-1.1-5.2-2.5c-1.4-1.4-2.4-3.2-2.8-5.2
		c-0.1,0.5-0.3,1-0.6,1.4c-1.4,4-5.3,6.4-9.5,6c-4-0.6-7.1-3.7-7.7-7.6c-0.5-3.8,1.4-7.4,4.8-9.2c0.3-0.2,0.8-0.3,1.1-0.6
		c0-0.1,0-0.2,0.1-0.2c-0.6-0.3-1.1-0.6-1.7-0.9c-0.6-0.3-1.1-0.7-1.5-1c-0.5-0.4-1-0.9-1.4-1.4c-0.4-0.4-0.8-1-1-1.5
		c-0.3-0.6-0.6-1.2-0.9-1.9c-0.3,0.4-0.6,0.8-0.8,1.3c-2.2,4.6-7.7,6.5-12.2,4.4c-1.3-0.6-2.5-1.6-3.4-2.7c-2.2-2.8-2.6-6.6-1-9.7
		c0.1-0.2,0.2-0.3,0.3-0.6c0.1-0.1,0.2-0.3,0.3-0.4c1.7-0.1,3.4-0.2,5.1-0.1h10.2c0.4,0.9,0.9,1.7,1.4,2.5c0.4-0.9,0.8-1.7,1.2-2.4
		c0.3,0,0.7-0.1,1-0.1h14.3c1,0.7,2.3,0.7,3.3,0h528.9c0.6-0.1,1.2,0.1,1.7,0.6c0.9-0.6,0.9-0.6,1.5-0.6h15c0.2,0,0.4,0,0.6,0.1
		c0.3,0.6,0.7,1.1,1.1,1.8c0.4-0.7,0.8-1.2,1.1-1.8h15.3c0.8,1.2,1.4,2.5,1.7,3.9c0.4,0.1,0.3-0.2,0.4-0.3c0.2-1.2,0.7-2.4,1.4-3.4
		c1.2-0.1,2.4-0.2,3.7-0.1h10.7c2.1,2.8,2.4,6.6,0.7,9.6c-1.8,3-5.1,4.8-8.6,4.4c-4.1-0.4-6.6-3-8.1-7.6c-0.4,0.1-0.3,0.4-0.4,0.7
		c-0.4,2-1.4,3.8-3,5.1c-0.8,0.7-1.8,1.3-2.8,1.7c-0.7,0.2-1.2,0.4-2.1,0.7c0.6,0.2,1.2,0.4,1.8,0.7c1.7,0.5,3.1,1.6,4.1,3.1
		c2.8,3.9,1.9,9.3-1.9,12.1c-3.9,2.8-9.3,1.9-12.1-1.9c-0.4-0.6-0.8-1.2-1-1.9c-1.8-4.4,0.3-9.4,4.7-11.1c0.1,0,0.2-0.1,0.3-0.1
		c0.6-0.2,1.1-0.4,1.7-0.7c-3-1.3-3.9-0.6-7.5-6c-2,3-1.3,3.2-6.3,6.1c0.3,0.2,0.6,0.4,0.9,0.6c2.8,1.3,4.8,4.1,5,7.2
		c0.5,5-3.2,9.4-8.1,9.8c-4.1,0.4-7.9-2.1-9.3-5.9c-0.2-0.6-0.3-1.1-0.6-1.8c-0.2,0.3-0.3,0.6-0.3,1c-0.4,1.6-1.2,3-2.2,4.2
		c-3.5,3.7-9.4,4-13.1,0.5c-0.7-0.7-1.3-1.5-1.8-2.3c-0.2-0.4-0.6-1-0.9-1.7c-0.7,1.7-1.6,3.2-2.9,4.4c-1.3,1.1-2.8,1.9-4.4,2.3
		c0,0.3,0.1,0.4,0.3,0.4c1,0.3,1.9,0.8,2.8,1.4c3.9,2.9,4.7,8.4,1.8,12.3c-1.6,2.2-4.2,3.5-6.9,3.5c-4.3,0.1-8-2.9-8.7-7.1
		c-0.8-4.1,1.4-8.1,5.2-9.7c0.4-0.2,0.8-0.4,1.2-0.6c0.1-0.3-0.1-0.4-0.3-0.4c-1.1-0.3-2.1-0.8-3.1-1.4c-1-0.7-1.9-1.6-2.5-2.7
		c-0.2-0.3-0.4-0.6-0.7-0.9c-0.7,1.2-1.6,2.3-2.7,3.3c-1.1,0.8-2.2,1.4-3.3,2.1c4.2,1.8,6.5,6.2,5.5,10.6c-0.9,3.7-4,6.4-7.7,6.9
		c-1.5,0.2-3,0-4.4-0.6c-1.5-0.6-2.8-1.5-3.8-2.8c-0.9-1.2-1.6-2.5-1.9-4c-0.7,0.2-0.6,0.7-0.7,1c-1.4,4.9-6.6,7.7-11.5,6.3
		c-2.4-0.7-4.5-2.4-5.7-4.7c-0.2-0.4-0.4-0.8-0.6-1.2c-0.6,1.1-1.3,2.1-2.1,3.1c-0.7,1-1.6,1.8-2.8,2.2c-1.2,0.5-2.3,1-3.5,1.3
		c0.1,0.2,0.4,0.2,0.8,0.3c2.3,0.5,4.2,1.8,5.5,3.8c2.6,4,1.5,9.3-2.4,11.9c-4,2.6-9.3,1.5-11.9-2.4c-0.2-0.3-0.4-0.6-0.5-0.9
		c-2-4-0.6-9,3.3-11.3c1-0.6,2.2-0.9,3.3-1.4c-0.2-0.1-0.3-0.2-0.6-0.2c-3.1-0.6-5.7-2.5-7.1-5.3c-0.1-0.2-0.3-0.4-0.4-0.6
		c-0.7,1.4-1.6,2.7-2.8,3.8c-1.2,1-2.6,1.7-4.1,2.2c0.2,0.6,0.6,0.6,1,0.8c1.2,0.4,2.2,1.2,3,2.1c2.3,2.5,3,6.1,1.7,9.3
		c-1.2,3.3-4.4,5.5-7.9,5.4c-3.5,0.2-6.7-1.7-8.2-4.9c-2.2-4.3-0.4-9.6,3.9-11.8c0,0,0.1,0,0.2-0.1c0.4-0.2,0.9-0.5,1.3-0.7
		c-0.5-0.3-1-0.6-1.5-0.8c-0.5-0.2-0.9-0.5-1.3-0.8l-1.3-1l-1.1-1.1c-0.3-0.4-0.7-0.9-1.1-1.4c-0.7,0.4-0.8,1.1-1.2,1.5
		c-0.5,0.5-0.9,1-1.4,1.4c-0.5,0.4-1,0.8-1.5,1.1c-0.5,0.3-1.1,0.6-1.7,0.9c0,0.3,0.2,0.6,0.4,0.7c2.9,1.4,4.8,4.2,5,7.4
		c0.2,2.3-0.5,4.6-2,6.3c-2.1,2.8-5.8,4-9.2,3c-3.4-0.8-5.9-3.5-6.5-7c-0.7-3.7,1-7.5,4.3-9.4c0.3-0.2,0.9-0.3,1.1-0.9
		c-0.7-0.4-1.4-0.8-2.1-1.2c-0.6-0.4-1.2-0.9-1.8-1.4c-0.6-0.6-1.1-1.2-1.7-1.9c-0.9,0.9-1.5,1.9-2.5,2.8c-0.9,0.8-2,1.3-3,2.1
		c0.3,0.2,0.5,0.4,0.8,0.7c1.9,1.2,3.4,3,4,5.2c1,3.3,0,7-2.7,9.3c-3.7,3.4-9.4,3.1-12.8-0.6c-0.7-0.8-1.3-1.7-1.7-2.7
		c-0.2-0.6-0.4-1.1-0.7-1.8c-0.4,0.4-0.6,0.9-0.7,1.4c-1.2,3.4-4.2,5.8-7.7,6.1c-3.7,0.4-7.3-1.5-9.1-4.8c-0.2-0.6-0.6-1-0.8-1.7
		c-0.2,0.3-0.3,0.6-0.4,0.9c-1.3,3.1-4.1,5.3-7.4,5.8c-2.5,0.4-5.1-0.3-7.1-2c-1.2-0.9-2.2-2.1-2.8-3.5c-0.2-0.4-0.3-0.7-0.6-1.1
		c-0.2,0.2-0.3,0.4-0.4,0.7c-1.1,2.9-3.6,5.1-6.6,5.9c-0.3,0.1-0.7,0.2-1,0.3c0.5,0.2,0.9,0.3,1.4,0.4c4.3,1.4,6.7,5.9,5.5,10.3
		c-0.9,3.3-3.7,5.7-7.1,6.2c-3.5,0.5-6.9-1.2-8.5-4.3c-2.3-4.1-0.9-9.3,3.2-11.6c0.5-0.3,1.1-0.5,1.6-0.7c0.4-0.1,0.8-0.2,1.2-0.3
		c-1.1-0.4-2.2-0.8-3.2-1.2c-1-0.4-1.9-1.1-2.5-2c-0.7-0.9-1.3-1.8-2-2.8c-2.9,4.4-3.5,4.4-7.2,6l1.7,0.7c3.5,1.6,5.5,5.4,4.9,9.2
		c-0.8,4.7-5.3,7.8-9.9,7c-3-0.5-5.4-2.5-6.5-5.3c-1.7-4.2,0.2-8.9,4.3-10.8c0.6-0.2,1-0.4,1.5-0.7c-3.4-1.5-4.2-1.4-7.2-6.2
		c-2.1,3.4-2.2,4-7,6.2l1.3,0.7c2.2,1,3.9,3,4.6,5.3c1.4,4.6-1.2,9.4-5.8,10.8c-4.6,1.4-9.4-1.2-10.8-5.8c-0.1-0.5-0.2-1-0.3-1.5
		c-0.4-3.4,1.3-6.8,4.3-8.5c0.6-0.3,1.2-0.6,2-1c-0.7-0.4-1.4-0.6-2-0.9c-0.7-0.4-1.3-0.8-2-1.2c-0.5-0.5-1.1-1-1.5-1.5
		c-0.4-0.6-0.8-1.2-1.2-1.8c-0.3-0.1-0.4,0.1-0.6,0.3c-1.3,2.2-3.3,4-5.6,4.9c-0.2,0.1-0.4,0.2-0.7,0.3c0.6,0.2,0.9,0.4,1.3,0.7
		c1.8,0.8,3.3,2.3,4.1,4.1c2,4.3,0.2,9.5-4.1,11.5c-4.3,2-9.5,0.2-11.5-4.1c-0.4-0.9-0.7-1.9-0.8-3c-0.3-3.5,1.6-6.7,4.6-8.3
		c0.6-0.2,1.1-0.5,1.5-0.9c-1.5-0.6-2.9-1.3-4.1-2.3c-1.1-1.1-2-2.3-2.8-3.7c-0.7,1.4-1.6,2.7-2.8,3.8c-1.2,1-2.5,1.7-4,2.2
		c0.1,0.7,0.8,0.6,1.1,0.8c2,0.9,3.5,2.5,4.3,4.5c1.8,4.5-0.3,9.6-4.8,11.4c-0.5,0.2-0.9,0.3-1.4,0.4c-4.7,1-9.2-2-10.2-6.7
		c-0.1-0.5-0.2-1-0.2-1.5c-0.2-3.3,1.6-6.4,4.6-7.9c0.4-0.2,1-0.4,1.7-0.8c-1-0.6-2-0.9-2.9-1.4c-0.8-0.6-1.5-1.2-2.2-1.9
		c-0.7-0.8-1.3-1.7-1.8-2.7c-0.6,0.3-0.6,1-1,1.4c-0.3,0.4-0.8,1-1.1,1.4c-0.4,0.5-0.9,0.9-1.4,1.2c-0.6,0.3-1,0.7-1.5,1
		c-0.6,0.3-1.2,0.6-1.9,0.8c0.6,0.3,1,0.4,1.3,0.7c2.7,1.2,4.6,3.9,4.9,6.9c0.5,4.7-2.9,9-7.6,9.5c-4.7,0.5-9-2.9-9.5-7.6
		c0-0.2,0-0.3,0-0.5c-0.3-3.3,1.4-6.5,4.4-8c0.6-0.3,1.1-0.6,1.7-0.9c-0.1-0.4-0.4-0.4-0.7-0.6c-0.3-0.2-0.6-0.3-1-0.4
		c-0.3-0.1-0.6-0.2-0.8-0.4c-0.3-0.1-0.5-0.3-0.8-0.6c-0.3-0.2-0.6-0.4-0.9-0.7l-0.7-0.7c-0.2-0.2-0.4-0.5-0.6-0.8
		c-0.2-0.3-0.4-0.6-0.6-0.9s-0.4-0.6-0.6-0.9c-0.4,0.4-0.8,0.9-1.1,1.4c-0.3,0.5-0.7,0.9-1.1,1.3c-0.4,0.5-0.9,0.9-1.4,1.2
		c-0.4,0.3-1,0.6-1.4,0.9c-0.6,0.2-1.1,0.4-1.8,0.7c0.1,0.4,0.6,0.4,0.8,0.6c1.9,0.7,3.4,2,4.3,3.8c1.6,2.7,1.5,6.1-0.2,8.7
		c-1.6,2.7-4.6,4.3-7.7,4c-4.7-0.3-8.4-4.3-8.1-9.1c0.2-3.1,2-5.8,4.7-7.2C580.8,824.9,581.5,824.6,582.2,824.3z M881.8,769.2
		c2.1,1.9,3,1.3,5.2,7.2c0.2-0.7,0.4-1.3,0.7-1.9c0.3-0.6,0.5-1.1,0.9-1.7c0.3-0.6,0.8-1.1,1.3-1.5c0.5-0.4,0.9-0.8,1.4-1.1
		c0.6-0.3,1.2-0.4,1.7-1c-1.1-0.7-2.3-1.4-3.3-2.2c-0.9-0.9-1.8-1.9-2.7-2.9c-0.4,0.7-0.9,1.4-1.4,2c-0.5,0.6-1.1,1.2-1.8,1.8
		C883.3,768.2,882.6,768.6,881.8,769.2z M348.6,769.1c1.6,0.6,3,1.5,4.2,2.7c1,1.3,1.8,2.8,2.2,4.4c0.1-0.1,0.1-0.1,0.1-0.2
		c0.1-0.2,0.1-0.4,0.2-0.6c0.6-2.5,2.3-4.5,4.5-5.8l0.3-0.3c-1-0.7-2-1.4-3-2.2c-0.9-0.9-1.7-1.9-2.4-2.9
		C352.3,767.3,352.3,767.3,348.6,769.1L348.6,769.1z M410,795.2c1.3-3.9,1-4.1,5.2-7.5c-1-0.6-2-1.3-3-2.1c-0.9-0.8-1.6-1.7-2.3-2.7
		c-0.8,0.9-1.7,1.8-2.7,2.7c-1.1,0.7-2.2,1.4-3.3,2c0.8,0.4,1.5,0.8,2.2,1.3c0.7,0.5,1.3,1,1.8,1.7c0.5,0.7,1,1.4,1.3,2.2
		C409.5,793.5,409.8,794.4,410,795.2L410,795.2z M483.3,801.5c-0.4,0.6-0.9,1.1-1.2,1.5c-0.4,0.4-0.8,0.8-1.2,1.1
		c-0.4,0.3-1,0.7-1.5,1c-0.6,0.3-1.1,0.6-1.7,1c0.4,0.1,0.7,0.3,1,0.6c0.7,0.6,1.4,1,2.1,1.5c1,1,1.8,2.2,2.2,3.5
		c0.1,0.4,0.1,1,0.7,1.2c0.1-0.1,0.1-0.3,0.2-0.4c0.6-2.6,2.3-4.8,4.6-6c0.1-0.1,0.2-0.3,0.3-0.4c-1-0.6-2-1.3-2.9-2
		C485,803.4,484.1,802.5,483.3,801.5z M831.9,794.5c2.2-5.4,3.2-5.1,5.9-7c-1-0.6-2-1.2-3-1.9c-0.9-0.8-1.8-1.7-2.7-2.7
		c-0.4,0.6-0.9,1.2-1.4,1.8c-0.6,0.6-1.2,1.1-1.9,1.7c-0.6,0.5-1.2,0.9-1.9,1.2C829.1,789.7,830.1,789.7,831.9,794.5z M506.8,806.4
		c-1.1-0.8-2-1.3-2.8-2c-0.9-0.8-1.5-1.7-2.3-2.4c-0.7,0.8-1.5,1.6-2.3,2.3c-0.9,0.7-1.9,1.2-2.9,1.9c0.2,0.1,0.3,0.3,0.4,0.4
		c2.3,1.3,3.9,3.4,4.5,6c0,0.2,0.2,0.4,0.3,0.7c0.2-0.7,0.4-1.4,0.8-2.1c0.2-0.6,0.6-1.2,1-1.8c0.4-0.6,0.9-1.1,1.4-1.7
		C505.6,807.2,506.1,806.8,506.8,806.4z M740.2,802c-0.1,0.1-0.3,0.2-0.4,0.4c-1.1,1.5-2.5,2.7-4.1,3.5c-0.1,0.1-0.2,0.3-0.3,0.4
		c2.9,2.2,3.2,2.8,4.5,6.2c0,0.1,0.1,0.2,0.3,0.6c0.3-1.5,1-2.9,1.9-4.1c0.9-1.1,2.1-2.1,3.3-2.9c-1-0.6-1.9-1.2-2.8-1.9
		C741.7,803.7,740.9,802.9,740.2,802z M373.4,775.1c0.8-2.3,2.3-4.3,4.2-5.8c-0.6-0.4-1.2-0.9-1.8-1.3c-0.5-0.4-1-0.9-1.4-1.4
		c-0.6-0.4-0.8-1.2-1.3-1.7c-0.2,0.2-0.3,0.3-0.4,0.6c-1,1.3-2.3,2.4-3.8,3.2c-0.2,0.1-0.6,0.2-0.4,0.6
		C370.7,771,371.2,770.9,373.4,775.1z M519.9,811.9l0.4-0.4c0.7-1.9,2-3.5,3.7-4.6c0.1-0.1,0.2-0.3,0.3-0.4
		c-0.8-0.5-1.6-1.1-2.3-1.7c-0.8-0.7-1.3-1.3-2-1.9c-0.5,0.4-1,0.9-1.4,1.3c-0.5,0.4-1,0.8-1.5,1.2c-0.4,0.3-1,0.7-1.5,1
		c0.9,0.8,1.8,1.6,2.7,2.4C519,809.7,519.6,810.7,519.9,811.9z M428.1,784l-1.4,1.4c-0.5,0.4-0.9,0.8-1.4,1.1
		c-0.6,0.4-1.2,0.6-1.8,1.1c0.6,0.4,1.1,0.8,1.5,1.1c0.5,0.3,0.9,0.8,1.2,1.2c0.4,0.5,0.8,1,1.1,1.5c0.3,0.6,0.6,1,0.9,1.7
		c0.6-1,1.2-2,1.9-3c0.8-0.9,1.6-1.7,2.4-2.4l-2.3-1.7L428.1,784z M873.4,769.2c-1.8-0.8-3.4-2.1-4.5-3.8c-0.6,0.7-0.9,1.1-1.3,1.7
		l-1.3,1.3c-0.6,0.4-1,0.8-1.5,1.2c0.8,0.8,1.5,1.6,2.2,2.4c0.7,0.9,1.1,1.9,1.7,2.8C871.1,770.3,871.4,770.9,873.4,769.2z
		 M721.9,802.8c-0.8,0.7-1.3,1.4-2.1,2c-0.7,0.6-1.4,1.1-2.2,1.7c0.9,0.8,1.7,1.6,2.4,2.5c0.7,0.9,1.1,1.9,1.7,2.8
		c0.6-1.1,1.2-2.1,2-3c0.8-0.9,1.7-1.5,2.5-2.4c-0.8-0.5-1.6-1-2.3-1.5C723.2,804.1,722.6,803.4,721.9,802.8z M809.5,787.9
		c0.6,0.5,1.2,1,1.7,1.5c0.5,0.6,1,1.2,1.4,1.9c0.3,0.6,0.7,1.2,1,1.9c0.2-0.6,0.5-1.1,0.9-1.7c0.3-0.5,0.7-1.1,1.1-1.5
		c0.4-0.4,0.8-0.8,1.2-1.2c0.4-0.4,1.1-0.6,1.3-1.1l-0.3-0.3c-1.4-0.7-2.7-1.7-3.7-2.9c-0.2-0.1-0.4-0.2-0.6-0.3
		C812.5,785.7,811.1,787,809.5,787.9L809.5,787.9z M538.4,812c0.4-0.8,0.7-1.4,1-2.1c0.4-0.7,0.9-1.3,1.4-1.9c0.5-0.5,1-1.1,1.5-1.5
		c-0.8-0.6-1.5-1.1-2.2-1.7c-0.7-0.6-1.3-1.2-2-1.9c-0.7,0.7-1.3,1.3-2,1.9s-1.4,1.1-2.2,1.7C537.4,809.3,536.7,809,538.4,812z
		 M707.7,806.5c-0.8-0.6-1.5-1-2.2-1.5s-1.3-1.2-2-1.9c-0.7,0.7-1.3,1.3-2,1.9s-1.3,1-2.1,1.5c0.8,0.9,1.7,1.5,2.3,2.4
		c0.7,0.9,1.1,1.9,1.8,3c0.3-0.7,0.7-1.4,1.1-2.1c0.4-0.6,0.8-1.2,1.3-1.7C706.5,807.5,707.1,807,707.7,806.5z M442.5,787.8
		c0.8,0.7,1.5,1.4,2.2,2.2c0.7,0.9,1.3,1.8,1.9,2.8c0.6-0.9,0.9-1.7,1.4-2.4c0.6-0.8,1.3-1.4,2-2.2c-0.7-0.6-1.3-1-1.9-1.5
		c-0.6-0.6-1.2-1.1-1.8-1.8c-0.7,0.6-1.2,1.2-1.9,1.7L442.5,787.8z M795.5,785c-1.2,1.1-2.3,2.1-3.5,3.1c0.5,0.4,0.9,0.9,1.3,1.3
		c0.4,0.5,0.8,0.9,1.1,1.4c0.3,0.4,0.4,1.1,1.1,1.7c0.8-1.8,2.1-3.4,3.7-4.5L795.5,785z M571.3,806.6c1.7,1.2,3,2.8,3.8,4.8
		c0.5-0.8,1-1.7,1.5-2.4c0.6-0.8,1.3-1.4,2-2.2c-0.6-0.5-1.2-1-1.9-1.4c-0.7-0.4-1.1-1.2-1.9-1.5c-0.5,0.5-1.1,1.1-1.7,1.5
		C572.6,805.6,572,806,571.3,806.6z M556.8,803.5c-0.6,0.6-1.2,1.2-1.9,1.7c-0.6,0.4-1.2,0.9-1.8,1.3c0.7,0.8,1.3,1.4,2,2.1
		c0.6,0.8,1.2,1.7,1.7,2.5c0.6-0.8,1-1.7,1.5-2.3c0.6-0.8,1.3-1.5,2.1-2.2c-0.7-0.4-1.3-0.9-1.9-1.4
		C557.9,804.6,557.3,804,556.8,803.5L556.8,803.5z M685.3,803.6c-1.2,1-2.3,2-3.5,3c0.7,0.7,1.3,1.3,1.9,2c0.6,0.8,1,1.5,1.7,2.4
		c0.4-0.6,0.7-1.2,1.1-1.8c0.4-0.4,0.8-1,1.2-1.4c0.4-0.6,1.1-0.8,1.3-1.4C687.7,805.5,686.5,804.6,685.3,803.6L685.3,803.6z
		 M666.8,811.2c0.5-0.9,1.1-1.7,1.7-2.5c0.6-0.8,1.4-1.3,2-2.2c-0.7-0.4-1.2-0.9-1.8-1.3c-0.6-0.4-1.1-1-1.8-1.5
		c-0.6,0.6-1.1,1-1.7,1.5c-0.6,0.6-1.3,0.8-1.8,1.5C664.9,807.9,666.1,809.5,666.8,811.2L666.8,811.2z M611.7,810.9
		c0.6-0.8,0.9-1.5,1.4-2.2c0.6-0.8,1.2-1.3,1.9-2.1c-0.7-0.4-1.2-0.9-1.8-1.3c-0.6-0.4-1.1-1-1.7-1.4c-0.5,0.5-1.1,1-1.7,1.4
		c-0.6,0.4-1.1,0.9-1.8,1.3c0.7,0.6,1.2,1.3,1.8,2C610.7,809.3,611.3,810.1,611.7,810.9L611.7,810.9z M633.5,806.6
		c-1.2-1-2.3-1.9-3.4-2.9c-0.6,0.6-1.1,1-1.7,1.5c-0.4,0.6-1.2,0.7-1.7,1.3c0.7,0.6,1.2,1.3,1.8,2c0.6,0.7,1.1,1.5,1.5,2.3
		c0.6-0.8,0.9-1.5,1.4-2.2C632.2,808,632.9,807.4,633.5,806.6L633.5,806.6z M596.7,806.6c-1.2-1-2.2-1.8-3.2-2.7l-3.3,2.7l1.2,1.2
		c0.3,0.4,0.8,0.9,1.1,1.3c0.3,0.4,0.4,1,1,1.4C594.3,809,595.4,807.7,596.7,806.6L596.7,806.6z M388,769.4c0.4,0.4,1,0.8,1.4,1.2
		c0.4,0.4,0.8,0.9,1.1,1.2c0.4,0.4,0.6,1.1,1.1,1.4c1-1.3,1.9-2.4,3-3.8c-0.5-0.5-1-0.9-1.5-1.3c-0.6-0.4-0.9-1.2-1.7-1.4
		C390.2,767.6,389.1,768.5,388,769.4L388,769.4z M648.5,810.7c0.6-0.9,1.1-1.5,1.5-2.2c0.4-0.7,1.3-1.1,1.8-2
		c-0.5-0.4-1.1-0.8-1.7-1.2c-0.6-0.4-0.9-1.1-1.7-1.3c-1.1,0.9-2.1,1.8-3.2,2.7C646.6,807.7,647.7,809.1,648.5,810.7z M850.4,773.3
		c0.8-1.5,1.9-2.7,3.2-3.8c-0.5-0.4-1.1-0.8-1.7-1.2c-0.6-0.3-0.9-1-1.5-1.3c-0.9,1.1-2,1.8-2.9,2.8
		C848.6,770.9,849.4,772,850.4,773.3L850.4,773.3z M465.1,791.8c0.9-1.2,1.8-2.3,2.7-3.5c-1-0.9-1.9-1.7-2.9-2.5
		c-1,0.9-2,1.7-2.9,2.3C463,789.3,464,790.4,465.1,791.8z M777.2,785.9l-2.7,2.3c0.9,1.1,1.7,2.1,2.5,3.2c0.4-0.7,0.9-1.2,1.3-1.8
		s1.1-1,1.5-1.7C779,787.2,778.1,786.6,777.2,785.9z M409.9,772.6c0.7-0.9,1.2-1.7,1.9-2.5c-0.7-0.8-1.5-1.5-2.4-2.1
		c-0.7,0.7-1.4,1-1.9,1.8C408.2,770.7,409,771.6,409.9,772.6L409.9,772.6z M761,788.2c-0.6-0.6-1.4-1.2-2.1-1.8
		c-0.4,0.3-0.8,0.6-1.1,1c-0.3,0.3-0.9,0.4-0.9,1c0.4,0.6,0.9,1.2,1.4,1.8c0.1,0.2,0.3,0.4,0.6,0.4
		C759.5,789.9,760.3,789.1,761,788.2L761,788.2z M832.4,768c-0.8,0.6-1.5,1.3-2.1,2.1c0.3,0.4,0.7,0.8,0.9,1.1
		c0.2,0.3,0.6,0.8,0.9,1.2c0.4-0.6,0.8-1,1.1-1.4c0.5-0.4,0.9-0.9,1.2-1.4C833.7,769,833,768.5,832.4,768L832.4,768z M481.2,788.2
		c0.8,0.9,1.4,1.7,2.2,2.5c0.7-0.8,1.3-1.6,1.9-2.4c-0.6-0.7-1.4-1.2-2.2-1.7C482.4,787.2,481.8,787.7,481.2,788.2L481.2,788.2z
		 M501.9,786.9c-0.7,0.5-1.3,1-1.9,1.7c0.6,0.6,1,1.3,1.7,1.9c0.6-0.7,1.2-1.5,1.7-2.3C502.9,787.8,502.5,787.3,501.9,786.9
		L501.9,786.9z M740.2,790.2c0.6-0.5,1.2-1.2,1.7-1.9c-0.5-0.5-1.1-1-1.8-1.4c-0.6,0.3-1.2,0.7-1.5,1.3
		C739.1,789,739.6,789.5,740.2,790.2z M519.9,789.7c0.7-0.5,1.2-1.1,1.4-1.9c-0.4-0.3-0.9-0.6-1.3-0.9c-0.4,0.4-0.9,0.8-1.3,1.2
		C519.1,788.6,519.5,789.2,519.9,789.7L519.9,789.7z M537.2,788.1c0.3,0.5,0.7,1,1.2,1.2c0.5-0.4,0.9-0.9,1.2-1.5
		c-0.3-0.3-0.8-0.6-1.1-0.9C538,787.2,537.5,787.6,537.2,788.1L537.2,788.1z M428.5,768.9c-0.5,0.4-0.9,0.8-1.4,1.2
		c0.4,0.4,0.7,0.8,1.1,1.2c0.6-0.4,1.1-1,1.3-1.7C429.1,769.4,428.8,769.2,428.5,768.9L428.5,768.9z M721.8,787
		c-0.3,0.2-0.6,0.5-0.9,0.8c-0.1,0.1-0.1,0.2-0.1,0.4c0.4,0.3,0.7,0.9,1.2,1.2c0.5-0.3,0.9-0.8,1.1-1.3
		C722.7,787.8,722.2,787.4,721.8,787L721.8,787z M704.7,788.1c-0.2-0.5-0.6-0.9-1.1-1.1c-0.5,0.2-0.9,0.5-1.1,1
		c0.3,0.4,0.8,0.8,1.1,1.2C704.1,789,704.3,788.6,704.7,788.1L704.7,788.1z M814.8,770.1c-0.6-0.4-0.9-0.8-1.2-1
		c-0.4,0-0.8,0.3-0.9,0.8c0.3,0.3,0.6,0.9,1.2,1.2C814.2,770.7,814.5,770.4,814.8,770.1L814.8,770.1z M445.7,769.9l0.8,0.8
		c0.4-0.4,0.7-0.9,1.1-1.3c-0.2-0.2-0.4-0.3-0.6-0.6C446.5,768.9,446,769.3,445.7,769.9L445.7,769.9z M575.4,786.8
		c-0.7,0.4-1.1,0.6-1.1,1.2c0.2,0.2,0.6,0.4,0.8,0.7c0.5-0.2,0.9-0.6,1-1.2C575.7,787.3,575.5,787.1,575.4,786.8L575.4,786.8z
		 M556.7,788.8c0.6-0.3,0.9-0.6,1-1.1c-0.3-0.2-0.6-0.5-0.9-0.7c-0.3,0.3-0.6,0.6-0.9,0.9C556.1,788.2,556.3,788.5,556.7,788.8
		L556.7,788.8z M667.8,787.8c-0.3-0.2-0.6-0.5-0.9-0.8c-0.4,0.2-0.8,0.3-0.8,1c0.2,0.2,0.6,0.4,0.9,0.8
		C667.2,788.4,667.5,788.1,667.8,787.8L667.8,787.8z M686,788c-0.9-1-0.9-1-1.7-0.1l0.9,0.9L686,788z M795.5,770.5
		c0.8-0.8,0.8-1,0.1-1.4c-0.4-0.3-0.6-0.3-1.1,0.4C794.8,769.8,795.2,770.2,795.5,770.5L795.5,770.5z M611.9,786.9
		c-0.4,0.2-0.8,0.3-0.8,1c0.2,0.2,0.5,0.5,0.8,0.7c0.3-0.3,0.5-0.6,0.8-0.9C612.3,787.4,612.1,787.2,611.9,786.9L611.9,786.9z
		 M629.3,787.7l0.8,0.8c0.9-0.6,1-0.8,0.7-1.1C630.3,786.9,630.1,786.9,629.3,787.7L629.3,787.7z M593.5,787
		c-0.2,0.3-0.6,0.6-0.6,0.8c0.1,0.2,0.2,0.4,0.4,0.6c0.2,0.1,0.7-0.2,0.7-0.4C593.9,787.6,593.7,787.3,593.5,787L593.5,787z
		 M648.7,788.2c0.2-0.2,0.3-0.4,0.3-0.7c0.1-0.2-0.4-0.6-0.7-0.4c-0.2,0.1-0.4,0.3-0.4,0.6c0,0.3,0.3,0.6,0.6,0.6
		C648.6,788.2,648.6,788.2,648.7,788.2L648.7,788.2z M465.3,768.9h-0.2c-0.2,0.1-0.4,0.2-0.3,0.6l0.1,0.1c0.2,0,0.4-0.1,0.4-0.4
		c0,0,0-0.1,0-0.1V768.9z M336.3,777.7c0.1-4.7-3.7-8.7-8.5-8.7c0,0,0,0-0.1,0c-4.7,0-8.6,3.9-8.6,8.6c0,4.7,3.8,8.6,8.5,8.6
		C332.4,786.3,336.3,782.4,336.3,777.7L336.3,777.7z M446,814.8c0-4.7-3.8-8.6-8.5-8.6c-4.7,0-8.6,3.8-8.6,8.5
		c0,4.7,3.8,8.6,8.5,8.6C442.2,823.3,446,819.5,446,814.8z M877.5,787.7c-4.7,0-8.4,3.8-8.4,8.5c0,4.7,3.8,8.4,8.5,8.4
		c4.6,0,8.4-3.8,8.4-8.4c0.1-4.7-3.7-8.5-8.3-8.5C877.7,787.7,877.6,787.7,877.5,787.7z M364.3,787.7c-4.6,0-8.4,3.7-8.4,8.4
		c0,4.6,3.7,8.4,8.4,8.4c0.1,0,0.1,0,0.2,0c4.6,0,8.3-3.6,8.3-8.2c0-0.1,0-0.1,0-0.2C372.7,791.4,368.9,787.7,364.3,787.7
		L364.3,787.7z M712.7,824.4c-4.6,0-8.4,3.8-8.4,8.4c0,4.6,3.8,8.4,8.4,8.4c4.6,0,8.4-3.8,8.4-8.4
		C721.1,828.2,717.4,824.4,712.7,824.4C712.7,824.4,712.7,824.4,712.7,824.4L712.7,824.4z M822.6,806.2c-4.6-0.1-8.5,3.7-8.5,8.3
		s3.7,8.5,8.3,8.5c4.6,0.1,8.5-3.7,8.5-8.3c0.2-4.5-3.3-8.3-7.9-8.5C822.9,806.2,822.7,806.2,822.6,806.2L822.6,806.2z M520.9,832.8
		c0,4.6,3.7,8.3,8.2,8.3c0.1,0,0.2,0,0.3,0c4.6-0.1,8.4-3.9,8.3-8.5c-0.1-4.6-3.9-8.4-8.5-8.3C524.6,824.3,520.9,828.2,520.9,832.8z
		 M419.5,806.2c-4.6,0-8.4,3.7-8.4,8.3c0,4.6,3.7,8.4,8.3,8.4l0,0c4.6,0,8.4-3.7,8.4-8.3C427.8,810,424.1,806.3,419.5,806.2z
		 M924.3,777.7c0,4.6,3.7,8.3,8.3,8.3c4.6,0,8.3-3.7,8.3-8.3c0-4.6-3.7-8.3-8.3-8.3c0,0,0,0,0,0c-4.5-0.1-8.2,3.5-8.3,8
		C924.3,777.5,924.3,777.6,924.3,777.7L924.3,777.7z M739.1,832.8c0.1-4.5-3.5-8.2-8-8.3c-0.1,0-0.2,0-0.3,0c-4.5,0-8.2,3.7-8.3,8.2
		c0,4.6,3.7,8.3,8.2,8.4C735.3,841.1,739,837.4,739.1,832.8z M519.4,832.9c0.1-4.4-3.4-8.2-7.8-8.3c-0.1,0-0.2,0-0.4,0
		c-4.5,0-8.2,3.6-8.2,8.1c0,0,0,0,0,0c0,4.5,3.6,8.3,8.2,8.3C515.7,841,519.3,837.4,519.4,832.9L519.4,832.9z M309.1,769.5
		c-4.5,0-8.1,3.5-8.2,8c0,0.1,0,0.1,0,0.2c0,4.5,3.7,8.2,8.2,8.2c0,0,0.1,0,0.1,0c4.4,0,8.1-3.6,8.1-8c0-0.1,0-0.2,0-0.3
		c0.1-4.3-3.3-8-7.7-8.1C309.5,769.5,309.3,769.5,309.1,769.5z M896.1,788c-4.5,0-8.2,3.7-8.2,8.2s3.7,8.2,8.2,8.2
		c4.5,0,8.1-3.6,8.2-8.1c0.1-4.5-3.5-8.2-8-8.3C896.2,788,896.2,788,896.1,788L896.1,788z M303.4,766.1c3.4,3,8.5,3,11.8-0.1
		c3.3-3.1,3.8-8.4,1.1-11.5c-1.2-0.1-12.2-0.2-14.3-0.1C299.4,758,299.9,763.1,303.4,766.1L303.4,766.1z M757.4,832.9
		c0-4.5-3.6-8.2-8.1-8.2c0,0,0,0,0,0c-4.4-0.1-8,3.5-8.1,7.9c0,0.1,0,0.1,0,0.2c0,4.5,3.6,8.2,8.1,8.2
		C753.7,841,757.4,837.4,757.4,832.9L757.4,832.9z M841.1,806.5c-4.5-0.1-8.2,3.5-8.3,8c-0.1,4.5,3.5,8.2,8,8.3
		c4.5,0.1,8.2-3.5,8.3-8c0,0,0-0.1,0-0.1C849.1,810.2,845.6,806.6,841.1,806.5L841.1,806.5z M492.7,840.9c4.5,0,8.1-3.7,8.1-8.2
		c0-4.5-3.7-8.1-8.2-8.1c-4.5,0-8.1,3.7-8.1,8.2c0,4.5,3.6,8.1,8.1,8.1C492.6,840.9,492.7,840.9,492.7,840.9z M354.2,796.1
		c0-4.5-3.6-8.1-8.1-8.1c-4.5,0-8.1,3.6-8.1,8.1c0,4.5,3.6,8.1,8.1,8.1C350.6,804.1,354.2,800.5,354.2,796.1L354.2,796.1z
		 M400.9,822.7c4.5,0,8.1-3.6,8.1-8.1c0-4.5-3.6-8.1-8.1-8.1c-4.4,0-8,3.5-8.1,8C392.8,819,396.4,822.7,400.9,822.7L400.9,822.7z
		 M767.7,824.8c-4.3,0-7.8,3.5-7.9,7.8c0,0.1,0,0.1,0,0.2c0,4.4,3.6,8,8,8s8-3.6,8-8l0,0c0-4.4-3.4-7.9-7.8-8
		C767.9,824.8,767.8,824.8,767.7,824.8L767.7,824.8z M474.6,824.8c-4.3-0.1-7.9,3.2-8.1,7.6c0,0.1,0,0.3,0,0.4c0,4.3,3.5,7.9,7.9,8
		c4.4,0.1,8-3.5,8.1-7.9C482.5,828.5,479,824.9,474.6,824.8L474.6,824.8z M958.8,777.9c0.1-4.4-3.3-8.1-7.7-8.3
		c-4.4-0.1-8,3.4-8.1,7.8c-0.1,4.4,3.4,8,7.8,8.1C955,785.5,958.6,782.2,958.8,777.9z M945,765.8c3.2,3.1,8.3,3.1,11.6,0.1
		c3.3-2.9,3.8-7.9,1.1-11.4c-1.3-0.2-12.4-0.2-13.6,0C941.4,757.9,941.7,762.8,945,765.8L945,765.8z M859.2,806.7
		c-4.3,0-7.9,3.5-7.9,7.9c0,4.3,3.5,7.9,7.9,7.9c4.3,0,7.9-3.5,7.9-7.9c0,0,0,0,0,0C867,810.2,863.5,806.7,859.2,806.7L859.2,806.7z
		 M285.2,765.7c3.3,3.1,8.5,3.1,11.8-0.1c3.1-3,3.4-7.8,0.7-11.2h-13.3C281.7,757.8,282.1,762.7,285.2,765.7L285.2,765.7z
		 M922.1,796.1c-0.1-4.3-3.6-7.8-8-7.7c-4.3,0.1-7.8,3.6-7.7,8c0.1,4.3,3.6,7.7,7.9,7.7C918.6,804,922.1,800.4,922.1,796.1
		L922.1,796.1z M291.1,769.9c-4.3,0-7.8,3.5-7.9,7.9c0.1,4.3,3.6,7.8,7.9,7.9c4.3,0,7.9-3.5,7.9-7.9
		C298.9,773.4,295.4,769.9,291.1,769.9L291.1,769.9z M382.8,806.8c-4.3,0-7.9,3.5-7.9,7.9c0,4.3,3.5,7.9,7.9,7.9
		c4.3,0,7.9-3.5,7.9-7.9l0,0C390.7,810.3,387.2,806.8,382.8,806.8C382.8,806.8,382.8,806.8,382.8,806.8z M785.9,824.9
		c-4.3,0-7.8,3.4-7.8,7.7c0,4.3,3.4,7.8,7.7,7.8c4.3,0,7.8-3.4,7.8-7.7C793.7,828.5,790.2,825,785.9,824.9L785.9,824.9z M456,840.5
		c4.2,0.1,7.7-3.3,7.7-7.5c0-0.1,0-0.1,0-0.2c0.1-4.3-3.3-7.9-7.6-8c-4.3-0.1-7.9,3.3-8,7.6c-0.1,4.3,3.3,7.9,7.6,8
		C455.9,840.5,455.9,840.5,456,840.5z M335.4,796.2c0.1-4.3-3.4-7.8-7.6-7.9c-4.3-0.1-7.8,3.4-7.9,7.6l0,0c-0.1,4.2,3.2,7.7,7.5,7.9
		c0.1,0,0.2,0,0.3,0c4.1,0.1,7.6-3.1,7.7-7.3C335.4,796.4,335.4,796.3,335.4,796.2L335.4,796.2z M962,763.2c1.3,2.9,4.3,4.6,7.4,4.4
		c4.5-0.1,8.1-3.8,8.1-8.3c0-1.4-0.4-2.8-1.1-4c-0.3-0.7-1.1-1.1-1.9-1h-11.6C960.9,756.9,960.6,760.4,962,763.2z M804.3,825.2
		c-4.2,0-7.6,3.4-7.5,7.6c0,4.2,3.4,7.6,7.6,7.5c4.2,0,7.6-3.4,7.5-7.6c0,0,0,0,0,0c0-4.1-3.3-7.5-7.4-7.5
		C804.4,825.2,804.4,825.2,804.3,825.2L804.3,825.2z M877.6,807c-4.2,0-7.6,3.4-7.6,7.6c0,4.2,3.4,7.5,7.6,7.5
		c4.2,0,7.5-3.4,7.5-7.6l0,0c0.1-4.1-3.1-7.4-7.2-7.5C877.8,807,877.7,807,877.6,807L877.6,807z M961.8,777.6c0,4.2,3.4,7.5,7.5,7.5
		c4.2,0,7.5-3.4,7.5-7.5l0,0c0-4.1-3.3-7.5-7.4-7.5c0,0-0.1,0-0.1,0C965.2,770.1,961.9,773.5,961.8,777.6L961.8,777.6z M267,765.2
		c3.2,3.1,8.3,3.1,11.4-0.1c2.9-2.9,3.1-7.6,0.5-10.7h-12.3C263.7,757.5,263.9,762.3,267,765.2L267,765.2z M430,832.7
		c0,4.2,3.3,7.5,7.5,7.6c4.2,0,7.5-3.3,7.6-7.5c0-4.2-3.3-7.5-7.5-7.6S430,828.5,430,832.7z M364.3,807.1c-4.2,0-7.5,3.4-7.5,7.5
		c0,4.2,3.4,7.5,7.5,7.5s7.5-3.4,7.5-7.5c0.1-4.1-3.2-7.4-7.3-7.5C364.5,807.1,364.4,807.1,364.3,807.1L364.3,807.1z M940.1,796.2
		c0-4.2-3.4-7.5-7.5-7.5s-7.5,3.4-7.5,7.5c0,4.2,3.4,7.5,7.5,7.5c4.1,0,7.5-3.3,7.5-7.4C940.1,796.3,940.1,796.2,940.1,796.2z
		 M646.9,851.3c0-4.2-3.4-7.5-7.5-7.5c-4.2,0-7.5,3.4-7.5,7.5c-0.1,4.1,3.1,7.4,7.2,7.5c0.1,0,0.1,0,0.2,0
		C643.5,858.8,646.9,855.5,646.9,851.3C646.9,851.3,646.9,851.3,646.9,851.3z M628.4,851.3c0-4.1-3.3-7.5-7.4-7.6
		c-4.1,0-7.5,3.3-7.5,7.4c0,4.1,3.3,7.5,7.4,7.5l0,0c4,0.1,7.4-3,7.5-7C628.4,851.5,628.4,851.4,628.4,851.3L628.4,851.3z
		 M665.1,851.2c0-4.1-3.4-7.4-7.5-7.4c-4.1,0-7.4,3.4-7.4,7.5l0,0c0,4.1,3.4,7.4,7.5,7.4C661.8,858.6,665.1,855.3,665.1,851.2z
		 M610,851.2c0-4.1-3.4-7.5-7.5-7.5c-4.1,0-7.5,3.3-7.5,7.5c0,4.1,3.3,7.5,7.5,7.5l0,0c4,0.1,7.4-3,7.5-7.1
		C610,851.4,610,851.3,610,851.2L610,851.2z M272.7,770.2c-4.1-0.1-7.5,3.2-7.6,7.3s3.2,7.5,7.3,7.6c4.1,0.1,7.5-3.2,7.6-7.3
		c0,0,0-0.1,0-0.1C280.1,773.6,276.8,770.3,272.7,770.2z M584.4,843.7c-4.1,0-7.5,3.4-7.5,7.5c0.1,4.1,3.4,7.4,7.5,7.3
		c4.1-0.1,7.4-3.4,7.3-7.5C591.7,847,588.4,843.8,584.4,843.7z M309.3,788.7c-4.1-0.1-7.5,3.2-7.5,7.3c-0.1,4.1,3.2,7.5,7.3,7.5
		s7.5-3.2,7.5-7.3c0,0,0-0.1,0-0.1C316.7,792,313.4,788.7,309.3,788.7z M676,843.7c-4.1,0-7.4,3.3-7.4,7.4c0,0,0,0,0,0
		c0,4.1,3.4,7.5,7.5,7.5c4.1,0,7.4-3.3,7.4-7.4C683.5,847.1,680.1,843.8,676,843.7L676,843.7z M573.3,851.3c0-4.1-3.2-7.4-7.3-7.5
		c-4.1,0.1-7.4,3.3-7.5,7.4c0,4.1,3.3,7.4,7.4,7.4c4,0.1,7.3-3.1,7.4-7.1C573.2,851.4,573.2,851.3,573.3,851.3L573.3,851.3z
		 M822.5,825.4c-4,0-7.3,3.3-7.3,7.3c-0.1,4.1,3.2,7.5,7.3,7.5c4.1,0.1,7.5-3.2,7.5-7.3c0.1-4.1-3.2-7.5-7.3-7.5
		C822.6,825.4,822.5,825.4,822.5,825.4z M694.3,843.9c-4.1,0-7.4,3.2-7.4,7.3c0,4.1,3.2,7.4,7.3,7.4l0,0c4.1,0,7.3-3.4,7.3-7.4
		C701.4,847.2,698.2,844,694.3,843.9z M426.7,832.8c0.1-4-3.1-7.3-7.2-7.4c0,0,0,0,0,0c-4.1,0-7.4,3.2-7.4,7.3c0,4,3.3,7.3,7.3,7.4
		C423.4,840.1,426.7,836.8,426.7,832.8C426.7,832.8,426.7,832.8,426.7,832.8L426.7,832.8z M547.7,843.9c-4,0-7.3,3.2-7.3,7.3
		c0,0,0,0,0,0c-0.1,3.9,3.1,7.2,7,7.3c0.1,0,0.2,0,0.3,0c4,0,7.3-3.3,7.3-7.3C555,847.1,551.7,843.9,547.7,843.9L547.7,843.9z
		 M980.1,761.8c0.8,2.9,3.2,5,6.2,5.4c3,0.6,6.2-0.7,7.7-3.4c1.7-2.5,1.7-5.9,0-8.4c-0.3-0.6-1-1-1.8-1h-10.6
		C979.8,756.4,979.2,759.2,980.1,761.8L980.1,761.8z M712.8,844c-4-0.1-7.3,3.1-7.4,7.1c-0.1,4,3.1,7.3,7.1,7.4c0.1,0,0.1,0,0.2,0
		c4,0,7.2-3.2,7.2-7.2c0,0,0,0,0,0C719.9,847.3,716.8,844.1,712.8,844z M247,761c0.8,4.1,4.9,6.8,9,6c2-0.4,3.7-1.5,4.8-3.2
		c1.7-2.6,1.8-5.9,0.1-8.5c-0.4-0.7-1.1-1.1-1.9-1h-10.3C247.1,756.1,246.4,758.6,247,761z M896.1,807.4c-4,0-7.3,3.3-7.3,7.3
		c0,0,0,0,0,0c0,4,3.2,7.2,7.2,7.2c0,0,0,0,0,0c4,0,7.3-3.3,7.3-7.3C903.3,810.6,900.1,807.4,896.1,807.4
		C896.1,807.4,896.1,807.4,896.1,807.4L896.1,807.4z M522,851.2c0,4,3.1,7.2,7.1,7.3c4,0.1,7.2-3.1,7.3-7.1c0.1-4-3.1-7.2-7.1-7.3
		C525.4,844,522.1,847.2,522,851.2z M346.2,807.5c-4,0-7.2,3.2-7.2,7.2s3.2,7.2,7.2,7.2c3.9,0,7.1-3.2,7.2-7.1
		c0.1-3.9-3.1-7.2-7-7.3C346.3,807.5,346.2,807.5,346.2,807.5z M723.7,851.2c0,3.9,3.2,7.1,7.1,7.2c3.9,0.1,7.2-3,7.3-6.9
		c0-0.1,0-0.1,0-0.2c0-4-3.2-7.2-7.2-7.2C726.9,844.1,723.8,847.3,723.7,851.2L723.7,851.2z M518.3,851.2c0-3.9-3.3-7.1-7.2-7.1
		c-3.9,0-7.1,3.2-7.1,7.2c0,3.9,3.2,7.1,7.2,7.1C515.1,858.3,518.3,855.1,518.3,851.2z M987.4,770.5c-3.9,0-7.1,3.3-7.1,7.2
		c0.1,3.9,3.3,7.1,7.2,7.1c3.9,0,7.1-3.2,7.1-7.2C994.5,773.7,991.3,770.5,987.4,770.5L987.4,770.5L987.4,770.5z M950.8,789
		c-3.9,0-7.1,3.2-7.1,7.2c0,3.9,3.2,7.1,7.2,7.1c3.9,0,7.1-3.2,7.1-7.2C957.9,792.1,954.7,789,950.8,789z M840.9,825.6
		c-3.9,0-7.2,3.1-7.2,7.1c0,3.9,3.1,7.2,7.1,7.2s7.2-3.1,7.2-7.1c0,0,0-0.1,0-0.1c0.1-3.9-3-7-6.9-7.1
		C841,825.6,841,825.6,840.9,825.6L840.9,825.6z M401,825.7c-3.8-0.1-7,2.9-7.1,6.8c0,0.1,0,0.2,0,0.3c0,3.9,3.2,7.1,7.1,7.1
		c3.9,0,7.1-3.2,7.1-7.1C408.1,828.9,404.9,825.7,401,825.7z M261.4,777.7c0.2-3.8-2.8-6.9-6.5-7.1c-0.1,0-0.2,0-0.3,0
		c-3.8-0.1-7.1,2.9-7.2,6.7c0,0,0,0.1,0,0.1c-0.1,3.9,3,7.1,6.9,7.2c3.8,0.2,7-2.8,7.2-6.6C261.4,777.9,261.4,777.8,261.4,777.7z
		 M291.2,789.1c-3.9,0-7,3.2-7,7.1c0,3.8,3.1,6.9,6.9,7c3.9,0,7-3.1,7.1-7C298.2,792.3,295.1,789.1,291.2,789.1L291.2,789.1z
		 M742.3,851.2c-0.1,3.8,3,7,6.9,7.1c3.8,0.1,7-3,7.1-6.9c0.1-3.8-3-7-6.8-7.1c0,0-0.1,0-0.1,0c-3.8-0.1-6.9,2.9-7,6.7
		C742.3,851.1,742.3,851.1,742.3,851.2L742.3,851.2z M499.6,851.4c0.1-3.8-3-7-6.9-7.1s-7,3-7.1,6.9c-0.1,3.8,3,7,6.9,7.1
		c0,0,0.1,0,0.1,0C496.4,858.2,499.5,855.2,499.6,851.4L499.6,851.4z M1010.9,754.4c-3.2,0-6.4,0-9.6-0.1c-0.5,0-1,0.2-1.2,0.7
		c-1.6,2-2,4.8-1.1,7.2c1,2.8,3.7,4.7,6.7,4.6c2.9,0,5.6-1.7,6.7-4.3c1.2-2.7,0.6-5.9-1.5-8C1011,754.5,1011,754.4,1010.9,754.4
		L1010.9,754.4z M914.3,807.7c-3.8,0-6.9,3-7,6.9c0,3.8,3,6.9,6.9,7s6.9-3,7-6.9C921.1,810.8,918.1,807.7,914.3,807.7z M233.9,766.4
		c3.8,1.1,7.9-1.1,9-4.9c0.6-2.1,0.2-4.4-1-6.2c-0.3-0.6-1.1-1-1.8-0.9h-8.2c-0.3,0-0.6,0-0.9,0.1c-2.8,2.7-2.9,7.2-0.2,10
		C231.6,765.4,232.7,766.1,233.9,766.4z M866,832.8c0-3.8-3-6.8-6.7-6.9c0,0,0,0,0,0c-3.7-0.1-6.8,2.8-6.9,6.5c0,0.1,0,0.2,0,0.4
		c-0.1,3.8,2.9,6.8,6.7,6.9c3.8,0.1,6.8-2.9,6.9-6.7C866,832.9,866,832.9,866,832.8z M767.8,844.4c-3.8,0-6.8,3-6.9,6.7
		c0,3.8,3,6.8,6.7,6.9c3.8,0,6.8-3,6.9-6.7c0,0,0,0,0,0C774.6,847.5,771.6,844.4,767.8,844.4C767.8,844.4,767.8,844.4,767.8,844.4
		L767.8,844.4z M334.6,814.7c0.1-3.8-2.9-6.8-6.7-6.9c-3.8-0.1-6.8,2.9-6.9,6.7c0,0.1,0,0.1,0,0.2c0,3.7,3,6.8,6.7,6.9
		C331.4,821.4,334.5,818.4,334.6,814.7z M382.7,825.9c-3.8,0.1-6.8,3.1-6.7,6.9c0.1,3.7,3,6.7,6.7,6.7c3.7,0,6.7-3,6.7-6.7
		c0-0.1,0-0.1,0-0.2c0.1-3.6-2.8-6.6-6.4-6.7C382.9,825.9,382.8,825.9,382.7,825.9L382.7,825.9z M481.2,851.2
		c-0.1-3.7-3.1-6.7-6.9-6.6c-3.7,0.1-6.7,3.1-6.6,6.9c0.1,3.7,3.1,6.6,6.7,6.6C478.2,858,481.2,855,481.2,851.2
		C481.2,851.2,481.2,851.2,481.2,851.2L481.2,851.2z M962.6,796c-0.1,3.7,2.7,6.7,6.4,6.9c0.1,0,0.1,0,0.2,0
		c3.7,0.1,6.8-2.9,6.9-6.6c0.1-3.7-2.9-6.8-6.6-6.9l0,0C965.7,789.3,962.7,792.3,962.6,796L962.6,796z M1012.6,777.7
		c0-3.7-2.9-6.7-6.6-6.7c0,0,0,0,0,0c-3.6,0-6.6,2.9-6.6,6.5c0,0,0,0.1,0,0.1c-0.1,3.7,2.8,6.7,6.5,6.8c3.7,0.1,6.7-2.8,6.8-6.5
		C1012.6,777.8,1012.6,777.8,1012.6,777.7L1012.6,777.7z M779.3,851.2c0,3.7,3,6.6,6.6,6.6c0,0,0,0,0,0c3.6,0.1,6.6-2.8,6.6-6.4
		c0-0.1,0-0.2,0-0.2c0-3.7-3-6.6-6.6-6.6C782.3,844.6,779.4,847.5,779.3,851.2z M462.6,851.2c0-3.6-2.9-6.6-6.5-6.6
		c-3.6,0-6.6,2.9-6.7,6.5c0,3.6,2.9,6.6,6.5,6.6c3.6,0.2,6.6-2.6,6.7-6.2C462.6,851.4,462.6,851.3,462.6,851.2z M279.1,796.1
		c-0.1-3.7-3.1-6.6-6.7-6.5c-3.7,0.1-6.6,3.1-6.5,6.7c0.1,3.6,3,6.5,6.6,6.5c3.7,0,6.6-3,6.6-6.6
		C279.1,796.1,279.1,796.1,279.1,796.1z M1024.4,754.4h-3.9c-0.5-0.1-0.9,0.2-1.2,0.6c-1.6,1.7-2.2,4.1-1.5,6.3
		c0.8,3.2,3.9,5.4,7.2,5.1c3.7-0.3,6.5-3.6,6.2-7.3c-0.1-1.5-0.7-2.9-1.7-4c-0.4-0.4-1-0.7-1.5-0.7L1024.4,754.4z M932.6,808
		c-3.6,0-6.5,2.9-6.5,6.5c0,3.7,3,6.6,6.6,6.6c3.6-0.1,6.5-3.1,6.4-6.7C939.1,810.9,936.2,808,932.6,808L932.6,808z M871.1,832.7
		c0,3.6,2.9,6.6,6.5,6.6c3.6,0,6.6-2.9,6.6-6.5s-2.9-6.6-6.5-6.6C874.1,826.2,871.1,829.1,871.1,832.7z M236,784.2
		c3.6-0.1,6.5-3,6.5-6.6c0-3.6-2.9-6.5-6.5-6.5c-3.6,0.1-6.5,3.1-6.4,6.7C229.7,781.3,232.5,784.2,236,784.2z M223.9,762.3
		c1.2-2.4,0.8-5.3-1-7.3c-0.3-0.5-0.9-0.8-1.5-0.8c-2.3,0-4.5,0.1-6.9,0c-0.8,0-1.5,0.4-2,1c-1.6,1.9-2,4.7-0.9,7c1,2.4,3.4,4,6,4
		C220.4,766.4,222.9,764.9,223.9,762.3L223.9,762.3z M357.8,832.7c0,3.6,2.9,6.5,6.5,6.5c3.6,0,6.4-3,6.4-6.5s-3-6.4-6.5-6.4
		C360.7,826.3,357.9,829.2,357.8,832.7L357.8,832.7z M309.3,808.1c-3.5-0.1-6.5,2.7-6.6,6.2c-0.2,3.6,2.6,6.6,6.2,6.7
		c3.6,0.2,6.6-2.6,6.7-6.2c0.2-3.6-2.6-6.6-6.2-6.7C309.4,808.1,309.4,808.1,309.3,808.1z M810.8,851.2c-0.1-3.5-2.8-6.3-6.3-6.4
		c-3.5-0.1-6.5,2.8-6.5,6.3c-0.1,3.5,2.8,6.5,6.3,6.5c3.5,0.1,6.5-2.8,6.5-6.3C810.8,851.2,810.8,851.2,810.8,851.2z M437.5,857.6
		c3.5,0.1,6.5-2.8,6.5-6.3c0.1-3.5-2.8-6.5-6.3-6.5c-3.5-0.1-6.5,2.8-6.5,6.3c0,0,0,0.1,0,0.1C431.2,854.7,434,857.5,437.5,857.6
		C437.5,857.6,437.5,857.6,437.5,857.6L437.5,857.6z M993.7,796.1c0-3.5-2.9-6.2-6.3-6.2c-3.5,0-6.2,2.9-6.2,6.3
		c0,3.4,2.8,6.2,6.2,6.2c3.4,0.1,6.2-2.6,6.3-6.1C993.7,796.2,993.7,796.2,993.7,796.1L993.7,796.1z M614.7,869.3
		c0,3.4,2.8,6.2,6.2,6.2c3.4,0,6.2-2.8,6.2-6.2c0-3.4-2.8-6.2-6.2-6.2C617.5,863.2,614.8,865.9,614.7,869.3L614.7,869.3z
		 M602.6,875.6c3.4,0,6.1-2.7,6.2-6.1c0-3.4-2.8-6.2-6.2-6.3c-3.4,0-6.2,2.8-6.2,6.2S599.1,875.6,602.6,875.6L602.6,875.6z
		 M889.9,832.8c0,3.4,2.7,6.1,6.1,6.2c3.4,0,6.2-2.8,6.3-6.2c0-3.4-2.8-6.2-6.2-6.2c0,0,0,0,0,0c-3.3-0.1-6.1,2.6-6.2,5.9
		C889.9,832.6,889.9,832.7,889.9,832.8L889.9,832.8z M828.6,851.3c0-3.4-2.7-6.2-6.1-6.2s-6.2,2.7-6.2,6.1c0,3.4,2.8,6.1,6.2,6.1
		c3.3,0.1,6-2.4,6.2-5.7C828.6,851.5,828.6,851.4,828.6,851.3L828.6,851.3z M1048.4,761.9c1-2.4,0.4-5.2-1.5-7
		c-0.4-0.3-0.8-0.5-1.3-0.6h-5.9c-0.6,0-1.2,0.2-1.5,0.7c-1.9,1.8-2.5,4.6-1.4,7c1,2.3,3.3,3.9,5.9,3.9
		C1045.1,765.8,1047.4,764.3,1048.4,761.9L1048.4,761.9z M651.4,869.3c-0.1,3.4,2.6,6.2,6,6.3c3.4,0.1,6.2-2.6,6.3-6
		c0-0.1,0-0.2,0-0.2c0-3.4-2.7-6.1-6.1-6.1c0,0-0.1,0-0.1,0c-3.3-0.1-6,2.5-6.1,5.7C651.4,869.1,651.4,869.2,651.4,869.3z
		 M633.3,869.4c0,3.4,2.7,6.1,6.1,6.1c0,0,0.1,0,0.1,0c3.4,0,6.2-2.8,6.2-6.2c0-3.4-2.8-6.2-6.2-6.2c-3.4,0-6.2,2.8-6.2,6.2
		C633.3,869.3,633.3,869.4,633.3,869.4z M260.7,796.2c0-3.4-2.7-6.2-6.1-6.2c-3.4,0-6.2,2.7-6.2,6.1c0,3.4,2.7,6.2,6.1,6.2
		c0,0,0.1,0,0.1,0C257.9,802.2,260.6,799.5,260.7,796.2L260.7,796.2z M1030.5,777.7c0-3.4-2.7-6.2-6.1-6.2c-3.4,0-6.2,2.7-6.2,6.1
		c0.1,3.4,2.7,6.1,6.1,6.2C1027.7,783.9,1030.4,781.2,1030.5,777.7C1030.5,777.8,1030.5,777.7,1030.5,777.7L1030.5,777.7z
		 M578.2,869.3c0,3.4,2.8,6.2,6.2,6.2c0,0,0,0,0,0c3.4,0,6.1-2.8,6.1-6.2c0-3.4-2.8-6.1-6.2-6.1C581,863.2,578.3,865.9,578.2,869.3z
		 M676.1,863.2c-3.4,0-6.2,2.7-6.2,6.1c0,3.4,2.7,6.2,6.1,6.2c3.4,0,6.2-2.7,6.2-6.1C682.2,866,679.5,863.3,676.1,863.2L676.1,863.2
		z M346.4,826.6c-3.3-0.2-6.1,2.4-6.3,5.7c0,0,0,0.1,0,0.1c-0.2,3.4,2.4,6.2,5.8,6.4c0,0,0.1,0,0.1,0c3.4,0.1,6.2-2.5,6.4-5.9
		C352.4,829.6,349.8,826.8,346.4,826.6z M565.7,863.3c-3.3,0-6,2.7-6,5.9c0,0,0,0.1,0,0.1c0,3.4,2.8,6.1,6.2,6.1
		c3.4,0,6.1-2.8,6.1-6.2C571.9,865.9,569.1,863.2,565.7,863.3L565.7,863.3z M957,814.8c0.1-3.4-2.6-6.1-6-6.2
		c-3.4-0.1-6.1,2.6-6.2,6c-0.1,3.4,2.6,6.1,6,6.2c0,0,0,0,0,0C954.1,820.8,956.9,818.1,957,814.8C957,814.8,957,814.8,957,814.8z
		 M425.5,851.3c0-3.4-2.7-6.1-6-6.1s-6.1,2.7-6.1,6l0,0c0,3.4,2.7,6.1,6,6.1C422.7,857.3,425.4,854.6,425.5,851.3z M203.6,754.9
		c-0.4-0.3-0.8-0.5-1.3-0.6h-5.6c-0.5,0-1,0.2-1.4,0.6c-1.1,0.9-1.8,2.2-2,3.7c-0.5,3.4,1.8,6.6,5.2,7.1c0.1,0,0.2,0,0.3,0
		c3.4,0.4,6.4-2,6.8-5.4c0-0.1,0-0.2,0-0.3C205.7,758.1,205,756.2,203.6,754.9z M694.3,863.3c-3.3-0.1-6,2.5-6.1,5.8
		c0,0.1,0,0.1,0,0.2c-0.1,3.2,2.4,5.9,5.6,6.1c0.1,0,0.3,0,0.4,0c3.3,0.1,6-2.6,6.1-5.9c0,0,0-0.1,0-0.1
		C700.3,866.1,697.6,863.4,694.3,863.3L694.3,863.3z M291,808.6c-3.3,0-6,2.8-6,6.1s2.8,6,6.1,6c3.3,0,6-2.8,6-6.1c0,0,0,0,0,0
		C297,811.2,294.3,808.6,291,808.6L291,808.6z M223.8,777.7c0-3.3-2.6-6-6-6.1c-3.3-0.1-6,2.5-6.1,5.7c0,0.1,0,0.2,0,0.2
		c0,3.3,2.7,6,6,6C221.1,783.6,223.8,781,223.8,777.7z M547.8,875.4c3.2,0.1,5.9-2.5,6-5.7c0-0.1,0-0.1,0-0.2c0-3.3-2.6-6-6-6.1
		c-3.3,0-6,2.7-6.1,6c0,3.3,2.6,5.9,5.8,6C547.6,875.4,547.7,875.4,547.8,875.4L547.8,875.4z M712.6,863.4c-3.2,0-5.9,2.6-5.9,5.8
		c0,3.2,2.6,5.9,5.8,5.9c0.1,0,0.2,0,0.2,0c3.3,0,5.9-2.6,6-5.9C718.6,866,715.9,863.4,712.6,863.4z M846.9,851.2
		c-0.1-3.2-2.7-5.8-6-5.8c-3.2,0.1-5.8,2.7-5.8,6c0.1,3.2,2.7,5.8,5.9,5.8C844.3,857.1,846.9,854.4,846.9,851.2L846.9,851.2z
		 M523.4,869.3c-0.1,3.2,2.5,5.9,5.8,6c3.2,0.1,5.9-2.5,6-5.8c0.1-3.2-2.5-5.9-5.8-6c0,0-0.1,0-0.1,0
		C526,863.5,523.4,866,523.4,869.3C523.4,869.2,523.4,869.3,523.4,869.3z M914.3,838.5c3.2,0,5.8-2.7,5.8-5.9c0-3.2-2.7-5.8-5.9-5.8
		c-3.2,0-5.8,2.7-5.8,5.9c0,0,0,0,0,0c0,3.2,2.5,5.7,5.7,5.8C914.2,838.5,914.2,838.5,914.3,838.5L914.3,838.5z M395.1,851.3
		c0,3.2,2.6,5.7,5.7,5.8c0,0,0.1,0,0.1,0c3.2,0,5.8-2.6,5.9-5.9c0-3.2-2.7-5.8-5.9-5.8c0,0,0,0,0,0
		C397.7,845.4,395.1,848,395.1,851.3L395.1,851.3z M736.6,869.5c0.1-3.1-2.3-5.8-5.5-5.9c-0.1,0-0.2,0-0.3,0
		c-3.2-0.1-5.8,2.4-5.9,5.6c-0.1,3.2,2.4,5.8,5.6,5.9c0,0,0.1,0,0.1,0C733.9,875.2,736.5,872.7,736.6,869.5z M516.8,869.3
		c0-3.2-2.6-5.8-5.7-5.8s-5.8,2.6-5.8,5.7c0,0,0,0.1,0,0.1c0.1,3.2,2.7,5.7,5.9,5.6c3.1,0,5.6-2.5,5.6-5.6
		C516.8,869.4,516.8,869.3,516.8,869.3L516.8,869.3z M1005.9,790.3c-3.2,0-5.8,2.5-5.8,5.7c0,3.2,2.5,5.8,5.7,5.8c0.1,0,0.1,0,0.2,0
		c3.2,0,5.7-2.7,5.7-5.8C1011.6,792.9,1009.1,790.4,1005.9,790.3z M327.6,827c-3.1,0-5.6,2.5-5.6,5.6c0,0.1,0,0.1,0,0.2
		c0.1,3.1,2.6,5.6,5.8,5.6c3.2,0,5.7-2.5,5.8-5.7c0,0,0-0.1,0-0.1C333.4,829.6,330.8,827,327.6,827C327.6,827,327.6,827,327.6,827
		L327.6,827z M969.3,808.9c-3.1,0-5.6,2.5-5.6,5.6c0,0.1,0,0.1,0,0.2c0.1,3.1,2.5,5.6,5.6,5.6c3.1,0,5.7-2.6,5.7-5.7
		C975,811.5,972.5,808.9,969.3,808.9z M1059.4,754.4c-0.7-0.1-1.5,0.2-2,0.7c-1.8,1.4-2.6,3.8-1.9,6c0.7,2.4,2.8,4,5.2,4.2
		c2.5,0.1,4.8-1.4,5.8-3.8c0.9-2.3,0.1-4.9-1.8-6.4c-0.5-0.5-1.3-0.7-2-0.7L1059.4,754.4L1059.4,754.4z M241.6,796.2
		c0-3.1-2.4-5.6-5.5-5.8c-3.1-0.1-5.6,2.4-5.7,5.5c-0.1,3.1,2.4,5.6,5.5,5.7c0,0,0.1,0,0.1,0c3,0.1,5.5-2.2,5.6-5.2
		C241.6,796.4,241.6,796.3,241.6,796.2z M743.7,869.4c0,3.1,2.5,5.6,5.6,5.6s5.6-2.5,5.6-5.6c0-3.1-2.5-5.6-5.6-5.6
		c-3.1-0.1-5.6,2.4-5.6,5.4C743.7,869.3,743.7,869.3,743.7,869.4L743.7,869.4z M1042.6,772.1c-3,0-5.5,2.4-5.5,5.5
		c0,0.1,0,0.1,0,0.2c0,3.1,2.6,5.6,5.6,5.5c3.1,0,5.6-2.6,5.5-5.6C1048.2,774.5,1045.6,772,1042.6,772.1
		C1042.6,772.1,1042.6,772.1,1042.6,772.1z M487.1,869.4c0,3,2.4,5.5,5.4,5.5c0,0,0.1,0,0.1,0c3,0.1,5.4-2.2,5.5-5.2
		c0-0.1,0-0.3,0-0.4c0-3.1-2.5-5.5-5.6-5.5C489.5,863.9,487.1,866.4,487.1,869.4L487.1,869.4z M864.7,851.3c0.1-3.1-2.4-5.6-5.4-5.7
		c-3.1-0.1-5.6,2.4-5.7,5.4c0,0.1,0,0.2,0,0.2c0,3,2.4,5.5,5.4,5.5c0,0,0.1,0,0.1,0C862.2,856.8,864.7,854.3,864.7,851.3z
		 M272.6,809c-3.1-0.1-5.6,2.4-5.6,5.4c0,0.1,0,0.2,0,0.2c-0.1,2.9,2.3,5.4,5.2,5.4c0.1,0,0.2,0,0.3,0c3.1,0,5.6-2.4,5.6-5.5
		C278.1,811.5,275.7,809,272.6,809L272.6,809z M179.8,754.4c-1.1-0.1-2.2,0.4-2.9,1.2c-1.6,1.7-2.1,4.1-1.2,6.3
		c0.9,2.1,3,3.4,5.2,3.2c2.2,0.1,4.2-1.2,5-3.3c0.9-2,0.5-4.4-1-6.1c-0.7-1-1.9-1.5-3.1-1.3L179.8,754.4L179.8,754.4z M382.9,845.7
		c-3-0.1-5.5,2.3-5.6,5.3s2.3,5.5,5.3,5.6c3,0.1,5.5-2.3,5.6-5.3c0,0,0-0.1,0-0.1C388.2,848.3,385.9,845.8,382.9,845.7z
		 M773.2,869.4c0-3-2.5-5.5-5.5-5.5c-3,0.1-5.4,2.5-5.4,5.5c0,3,2.4,5.4,5.4,5.4C770.7,874.8,773.2,872.4,773.2,869.4L773.2,869.4z
		 M193.9,777.6c0,3,2.4,5.5,5.5,5.5c3,0,5.5-2.4,5.5-5.5c0,0,0,0,0,0c0-3-2.5-5.5-5.5-5.5C196.3,772.1,193.9,774.6,193.9,777.6z
		 M474.4,874.8c3,0,5.4-2.4,5.5-5.4c0-3-2.4-5.4-5.4-5.4c-2.9,0-5.3,2.4-5.4,5.3C469.1,872.3,471.4,874.7,474.4,874.8L474.4,874.8z
		 M938.1,832.7c0-2.9-2.3-5.3-5.2-5.3c-0.1,0-0.2,0-0.3,0c-3,0.1-5.4,2.5-5.3,5.5c0.1,2.9,2.5,5.3,5.4,5.3
		C935.7,838.2,938.2,835.7,938.1,832.7L938.1,832.7z M303.9,832.8c0,2.9,2.3,5.2,5.2,5.3c2.9,0,5.3-2.3,5.3-5.2
		c0-2.9-2.3-5.3-5.2-5.3c0,0,0,0,0,0c-2.8-0.1-5.1,2.1-5.2,4.9C303.9,832.6,303.9,832.7,303.9,832.8L303.9,832.8z M877.8,846.1
		c-2.8-0.1-5.2,2.1-5.3,4.9c0,0,0,0.1,0,0.1c-0.1,2.9,2.2,5.2,5.1,5.3c2.9,0.1,5.2-2.2,5.3-5.1C882.9,848.5,880.7,846.1,877.8,846.1
		C877.8,846.1,877.8,846.1,877.8,846.1z M791,869.4c0-2.8-2.2-5.2-5-5.2c0,0-0.1,0-0.1,0c-2.8,0-5,2.2-5.1,4.9c0,0.1,0,0.1,0,0.2
		c-0.1,2.9,2.2,5.3,5.1,5.3c0,0,0.1,0,0.1,0c2.8,0,5.1-2.2,5.1-5C791,869.6,791,869.5,791,869.4z M1019.2,796.1
		c0,2.9,2.3,5.3,5.2,5.3c2.9,0,5.2-2.3,5.2-5.2c0,0,0,0,0,0c0-2.8-2.3-5.1-5.1-5.1c0,0-0.1,0-0.1,0c-2.8-0.1-5.1,2-5.2,4.8
		C1019.2,796,1019.2,796,1019.2,796.1L1019.2,796.1z M461.2,869.4c0-2.9-2.4-5.2-5.2-5.2c0,0,0,0-0.1,0c-2.8,0-5.1,2.3-5.1,5.1
		c0,0,0,0.1,0,0.1c0,2.9,2.3,5.2,5.2,5.2c0,0,0,0,0,0C458.8,874.5,461.1,872.2,461.2,869.4z M992.7,814.8c0.1-2.9-2.2-5.2-5.1-5.3
		c-2.9-0.1-5.2,2.2-5.3,5.1l0,0c-0.1,2.8,2.2,5.1,5,5.2c0,0,0.1,0,0.1,0C990.2,819.8,992.5,817.6,992.7,814.8z M1079.2,754.4
		c-2.8,0-5.2,2.2-5.2,5.1c0,2.8,2.2,5.2,5.1,5.2c2.8,0,5.2-2.2,5.2-5.1c0,0,0,0,0,0C1084.3,756.7,1082,754.4,1079.2,754.4
		C1079.2,754.4,1079.2,754.4,1079.2,754.4z M364.4,846.1c-2.8-0.1-5.1,2.2-5.2,5c0,0,0,0.1,0,0.1c-0.1,2.8,2.2,5.2,5,5.3
		c2.8,0.1,5.2-2.2,5.3-5c0,0,0-0.1,0-0.1C369.5,848.4,367.2,846.2,364.4,846.1z M254.5,819.6c2.8,0,5.1-2.3,5.1-5.1
		c0-2.8-2.3-5-5.1-5c-2.8,0-5,2.3-5,5.1l0,0c-0.1,2.7,2.1,4.9,4.8,5C254.3,819.6,254.4,819.6,254.5,819.6L254.5,819.6z M217.9,791.1
		c-2.7,0-4.9,2.1-5,4.8c0,0.1,0,0.2,0,0.2c-0.1,2.7,2,4.9,4.7,5c0.1,0,0.2,0,0.4,0c2.8,0,5.1-2.3,5.1-5.1
		C222.9,793.3,220.6,791.1,217.9,791.1L217.9,791.1z M1056.1,777.6c0,2.7,2.1,5,4.9,5.1c2.7,0,5-2.1,5.1-4.9c0-0.1,0-0.1,0-0.2
		c0-2.7-2.3-4.9-5.1-4.9C1058.3,772.8,1056.1,774.9,1056.1,777.6z M809.3,869.4c0-2.7-2.2-4.9-4.9-4.9s-4.9,2.2-4.9,4.9
		c0,2.7,2.3,4.9,5,4.9c2.6,0.1,4.8-2,4.9-4.7C809.3,869.5,809.3,869.5,809.3,869.4z M162.8,754.6c-2.7,0-5,2.2-5,5c0,2.7,2.2,5,5,5
		c0,0,0.1,0,0.1,0c2.7-0.1,4.9-2.3,4.9-5.1C167.7,756.8,165.5,754.6,162.8,754.6z M950.9,827.8c-2.7,0-4.9,2.2-5,4.9
		c0,2.7,2.1,4.9,4.8,5c2.6,0.1,4.9-2,5-4.6c0-0.1,0-0.2,0-0.3c0.2-2.6-1.8-4.8-4.4-5C951.1,827.8,951,827.8,950.9,827.8L950.9,827.8
		z M432.7,869.4c-0.1,2.6,2,4.8,4.6,4.9c0,0,0.1,0,0.1,0c2.7,0.1,4.9-2,5-4.6c0.1-2.7-2-5-4.8-5.1c-2.6-0.1-4.9,2-5,4.6
		C432.7,869.2,432.7,869.3,432.7,869.4z M286.2,832.8c0,2.7,2.2,4.8,4.8,4.8c2.6,0,4.7-2.1,4.8-4.7c0-2.7-2.1-4.8-4.8-4.9
		c-2.6-0.1-4.8,2-4.9,4.6C286.2,832.7,286.2,832.7,286.2,832.8L286.2,832.8z M891.2,851.2c-0.2,2.5,1.8,4.7,4.3,4.9
		c0.2,0,0.3,0,0.5,0c2.7,0,4.8-2.1,4.9-4.8c0-2.7-2.1-4.8-4.8-4.9C893.5,846.4,891.3,848.5,891.2,851.2z M185.7,777.8
		c0.1-2.6-2-4.8-4.6-4.9c0,0-0.1,0-0.1,0c-2.7,0-4.9,2.2-4.9,4.9c0,2.6,2.1,4.7,4.8,4.8C183.4,782.5,185.6,780.5,185.7,777.8z
		 M346.3,846.5c-2.6-0.1-4.8,1.9-4.9,4.5c-0.1,2.6,1.9,4.8,4.5,4.9c2.6,0.1,4.8-1.9,4.9-4.5c0,0,0-0.1,0-0.1
		C350.8,848.7,348.8,846.6,346.3,846.5z M817.9,869.3c0,2.6,2,4.7,4.5,4.8c2.6,0,4.7-2,4.7-4.6c0-2.5-2-4.7-4.5-4.7
		c-2.5-0.2-4.6,1.7-4.7,4.2C817.9,869.1,817.9,869.2,817.9,869.3z M1047.1,796.1c-0.1-2.5-2.1-4.5-4.6-4.4c-2.5,0.1-4.5,2.1-4.4,4.6
		c0.1,2.5,2.1,4.5,4.6,4.4C1045.2,800.6,1047.1,798.6,1047.1,796.1L1047.1,796.1z M423.9,869.4c0-2.5-2-4.6-4.6-4.6c0,0-0.1,0-0.1,0
		c-2.5,0-4.6,2-4.6,4.5c0,2.5,2,4.6,4.5,4.6c0.1,0,0.1,0,0.2,0c2.4,0.2,4.5-1.7,4.6-4.1C423.9,869.6,423.9,869.5,423.9,869.4z
		 M1006,810c-2.5-0.1-4.6,1.9-4.6,4.4c0,0.1,0,0.1,0,0.2c0.1,2.5,2.1,4.5,4.6,4.4c2.5-0.1,4.5-2.1,4.4-4.6
		C1010.3,812,1008.4,810.1,1006,810z M602.6,883.3c-2.5,0-4.5,2-4.5,4.5c0,2.4,2,4.4,4.4,4.5c2.5,0,4.6-1.9,4.6-4.4
		C607.1,885.5,605.1,883.4,602.6,883.3z M643.9,887.8c0-2.4-2-4.4-4.4-4.4c-2.5,0-4.6,2-4.6,4.5c0,2.5,2,4.6,4.5,4.6
		c0.1,0,0.1,0,0.2,0C642,892.3,643.9,890.3,643.9,887.8L643.9,887.8z M620.9,883.3c-2.4,0-4.4,2-4.5,4.4c-0.1,2.5,1.9,4.6,4.3,4.6
		c0,0,0.1,0,0.1,0c2.5,0,4.5-2,4.6-4.5c0.1-2.4-1.9-4.5-4.3-4.5C621.1,883.3,621,883.3,620.9,883.3z M657.6,883.3
		c-2.4-0.1-4.4,1.8-4.5,4.2c0,0.1,0,0.2,0,0.4c0,2.4,2,4.4,4.4,4.4c0,0,0,0,0,0c2.4,0,4.4-2,4.5-4.4
		C662.1,885.4,660.1,883.4,657.6,883.3z M579.9,887.7c-0.1,2.5,1.9,4.5,4.3,4.6c2.5,0.1,4.6-1.8,4.6-4.3c0.1-2.5-1.8-4.6-4.3-4.6
		C582.1,883.3,580,885.2,579.9,887.7z M236,819.1c2.5,0,4.5-2.1,4.4-4.5c0-2.5-2.1-4.5-4.5-4.4c-2.5,0-4.5,2.1-4.4,4.5
		C231.6,817.1,233.6,819.1,236,819.1z M671.6,887.8c-0.1,2.4,1.8,4.4,4.2,4.5c0,0,0,0,0,0c2.4,0.1,4.5-1.7,4.7-4.2
		c0.1-2.4-1.7-4.5-4.2-4.7c-0.1,0-0.1,0-0.2,0c-2.4-0.1-4.4,1.8-4.5,4.2C671.6,887.7,671.6,887.7,671.6,887.8L671.6,887.8z
		 M1093.2,759.5c0,2.4,2,4.4,4.4,4.4c2.4,0,4.3-2,4.3-4.4c0,0,0-0.1,0-0.1c-0.1-2.4-2-4.3-4.4-4.3
		C1095.2,755.2,1093.3,757.1,1093.2,759.5L1093.2,759.5z M565.8,883.5c-2.4,0-4.3,1.9-4.3,4.3c0,2.4,1.9,4.3,4.3,4.4
		c2.4,0.1,4.5-1.9,4.5-4.3C570.3,885.4,568.3,883.5,565.8,883.5L565.8,883.5z M199.6,791.8c-2.4,0-4.4,1.7-4.6,4.1
		c-0.1,2.4,1.8,4.5,4.2,4.6c2.4,0.1,4.4-1.8,4.5-4.2C203.8,793.9,202,791.9,199.6,791.8L199.6,791.8z M964.9,832.8
		c0,2.4,1.9,4.3,4.3,4.3c2.4,0,4.4-1.9,4.4-4.3c0-2.4-1.9-4.4-4.3-4.5C966.9,828.4,964.9,830.3,964.9,832.8z M918.6,851.2
		c0-2.3-1.9-4.3-4.2-4.3c-2.4,0-4.4,1.9-4.4,4.3c0,0,0,0,0,0.1c0,2.4,1.9,4.4,4.3,4.4c2.4,0,4.3-1.9,4.3-4.2
		C918.6,851.3,918.6,851.2,918.6,851.2L918.6,851.2z M840.9,865.1c-2.4,0-4.3,1.9-4.3,4.2c0,0.1,0,0.1,0,0.2c0,2.4,2,4.3,4.4,4.3
		c2.4,0,4.3-2,4.3-4.4l0,0c0.1-2.3-1.6-4.2-3.9-4.3C841.2,865.1,841.1,865.1,840.9,865.1z M543.5,887.8c0,2.4,1.9,4.4,4.3,4.4
		c0,0,0,0,0.1,0c2.3,0,4.2-1.9,4.2-4.2c0,0,0,0,0-0.1c0-2.4-1.9-4.3-4.2-4.3C545.5,883.5,543.5,885.4,543.5,887.8L543.5,887.8z
		 M694.3,883.6c-2.3,0-4.3,1.8-4.3,4.2c0,0,0,0.1,0,0.1c0,2.3,1.9,4.2,4.2,4.2c0,0,0,0,0,0c2.4,0,4.3-1.9,4.3-4.3
		C698.5,885.4,696.6,883.6,694.3,883.6C694.3,883.6,694.3,883.6,694.3,883.6L694.3,883.6z M1083.4,777.8c0.1-2.4-1.7-4.3-4.1-4.4
		c-2.4-0.1-4.3,1.7-4.4,4.1c-0.1,2.3,1.7,4.2,3.9,4.3c0,0,0.1,0,0.1,0c2.2,0.2,4.2-1.5,4.4-3.7
		C1083.4,778,1083.4,777.9,1083.4,777.8z M327.7,847c-2.4,0-4.3,1.9-4.3,4.2c0,2.4,1.9,4.3,4.2,4.3c2.3,0,4.2-1.9,4.2-4.2
		c0,0,0,0,0,0c0.1-2.3-1.7-4.2-3.9-4.3C327.8,847,327.7,847,327.7,847L327.7,847z M268.4,832.8c-0.1,2.2,1.7,4.1,3.9,4.2
		c0.1,0,0.2,0,0.3,0c2.3,0,4.2-1.9,4.2-4.2c0-2.3-1.9-4.2-4.2-4.2c-2.2-0.1-4.1,1.7-4.2,3.9C268.4,832.6,268.4,832.7,268.4,832.8
		L268.4,832.8z M400.9,865.1c-2.4,0-4.3,1.9-4.3,4.2c0,2.4,1.9,4.3,4.2,4.3c2.3,0,4.2-1.8,4.2-4.1c0,0,0-0.1,0-0.1
		c0.1-2.2-1.6-4.2-3.8-4.3C401.1,865.1,401,865.1,400.9,865.1L400.9,865.1z M144.5,755.4c-2.3-0.1-4.3,1.8-4.4,4.1
		c-0.1,2.3,1.7,4.2,4,4.3c2.3,0.1,4.2-1.7,4.3-4c0,0,0-0.1,0-0.1C148.5,757.4,146.8,755.5,144.5,755.4
		C144.5,755.4,144.5,755.4,144.5,755.4z M708.4,888c0.1,2.3,2,4.1,4.3,4.1c2.3,0,4.1-1.9,4.1-4.1c0-0.1,0-0.1,0-0.2
		c-0.1-2.3-2-4.2-4.3-4.1C710.2,883.7,708.4,885.7,708.4,888L708.4,888z M529.2,892c2.3,0,4.1-1.8,4.2-4.1c0.1-2.3-1.8-4.2-4-4.3
		s-4.2,1.8-4.3,4c0,0,0,0.1,0,0.1C525.1,890,526.9,891.9,529.2,892C529.2,892,529.2,892,529.2,892z M166.9,777.7
		c0-2.3-1.9-4.1-4.1-4.1c0,0-0.1,0-0.1,0c-2.2,0-4,1.9-4,4.1c0,2.2,1.8,4,4,4c0,0,0.1,0,0.1,0C165,781.7,166.8,779.9,166.9,777.7
		L166.9,777.7z M730.7,883.8c-2.2,0-4,1.9-4,4.1c0,2.2,1.9,4,4.1,4c2.2,0,4-1.9,4-4.1C734.8,885.6,733,883.8,730.7,883.8
		L730.7,883.8z M863,869.4c0.1-2.1-1.6-3.9-3.8-4c0,0-0.1,0-0.1,0c-2.2,0-4,1.7-4,3.9c0,0.1,0,0.2,0,0.2c0,2.1,1.7,3.9,3.9,3.9
		c0,0,0.1,0,0.1,0C861.3,873.4,863.1,871.6,863,869.4L863,869.4z M515.1,887.8c0-2.1-1.7-3.8-3.9-3.9c-2.2,0-4,1.8-4,4
		c0.1,2.2,1.9,3.9,4,3.8C513.4,891.6,515.1,889.9,515.1,887.8z M753.1,887.9c0.1-2.1-1.6-3.9-3.8-4c-2.1-0.1-3.9,1.6-4,3.8
		c-0.1,2.1,1.6,3.9,3.8,4c0,0,0.1,0,0.1,0c2,0.1,3.7-1.4,3.9-3.4C753.1,888.1,753.1,888,753.1,887.9L753.1,887.9z M1024.4,810.7
		c-2.1-0.1-3.9,1.6-4,3.7s1.6,3.9,3.7,4c0.1,0,0.1,0,0.2,0c2.1,0,3.9-1.8,3.8-3.9C1028.1,812.4,1026.5,810.8,1024.4,810.7z
		 M378.9,869.4c0,2.1,1.7,3.9,3.9,3.9c2.1,0,3.9-1.7,3.9-3.9s-1.7-3.9-3.9-3.9C380.7,865.6,379,867.3,378.9,869.4L378.9,869.4z
		 M932.7,855c2.1,0,3.8-1.7,3.8-3.8c0,0,0-0.1,0-0.1c-0.1-2-1.7-3.7-3.8-3.8c-2.1,0-3.9,1.7-3.9,3.8c0,0,0,0,0,0
		c0,2,1.6,3.7,3.6,3.8C932.6,855,932.6,855,932.7,855L932.7,855z M218,810.8c-2.1,0-3.8,1.6-3.9,3.7c-0.1,2.1,1.6,3.8,3.6,3.9
		c0,0,0.1,0,0.1,0c2.1,0,3.7-1.7,3.8-3.8C221.5,812.5,220,810.9,218,810.8z M983.7,832.8c0,2.1,1.7,3.7,3.8,3.8
		c2.1,0,3.7-1.6,3.8-3.7c0,0,0,0,0-0.1c0-2-1.5-3.6-3.5-3.7c-0.1,0-0.2,0-0.3,0c-1.9-0.1-3.6,1.3-3.8,3.3
		C983.7,832.5,983.7,832.7,983.7,832.8L983.7,832.8z M1064.8,796.2c-0.1-2-1.7-3.7-3.8-3.8c-2.1,0-3.8,1.7-3.8,3.8c0,0,0,0.1,0,0.1
		c0,2,1.7,3.7,3.8,3.7C1063.1,799.9,1064.7,798.2,1064.8,796.2L1064.8,796.2z M180.9,792.4c-2,0-3.6,1.5-3.7,3.5c0,0.1,0,0.2,0,0.3
		c0,2,1.7,3.7,3.8,3.7c2,0,3.7-1.7,3.7-3.8C184.6,794,182.9,792.4,180.9,792.4L180.9,792.4z M492.7,884.1c-2.1,0-3.7,1.6-3.8,3.7
		c0,0,0,0,0,0.1c0,2,1.5,3.6,3.5,3.7c0.1,0,0.2,0,0.3,0c2-0.1,3.6-1.8,3.5-3.9C496.2,885.7,494.6,884.2,492.7,884.1L492.7,884.1z
		 M767.8,884.1c-2.1,0-3.7,1.6-3.8,3.7c0,0,0,0,0,0.1c0,2,1.6,3.6,3.7,3.7c2,0,3.6-1.5,3.7-3.5c0-0.1,0-0.2,0-0.3
		c0.1-1.9-1.4-3.6-3.4-3.6C767.9,884.1,767.9,884.1,767.8,884.1L767.8,884.1z M312.9,851.3c0-2-1.6-3.6-3.6-3.7c0,0-0.1,0-0.1,0
		c-2-0.1-3.6,1.5-3.7,3.4c0,0.1,0,0.1,0,0.2c0,2,1.6,3.6,3.6,3.7c0,0,0.1,0,0.1,0C311.2,854.9,312.9,853.3,312.9,851.3L312.9,851.3z
		 M881.2,869.4c0-2-1.6-3.6-3.6-3.7c0,0-0.1,0-0.1,0c-1.9,0-3.5,1.6-3.5,3.5c0,0.1,0,0.1,0,0.2c0.1,2,1.8,3.5,3.8,3.4
		C879.6,872.8,881.1,871.3,881.2,869.4L881.2,869.4z M250.9,832.8c0,1.9,1.5,3.5,3.4,3.5c0,0,0.1,0,0.1,0c2,0.1,3.6-1.5,3.7-3.4
		c0-0.1,0-0.1,0-0.2c-0.1-2-1.7-3.5-3.7-3.5C252.5,829.2,250.9,830.8,250.9,832.8C250.9,832.8,250.9,832.8,250.9,832.8L250.9,832.8z
		 M1115.9,756c-1.9-0.1-3.4,1.3-3.5,3.2c0,0,0,0.1,0,0.1c-0.1,1.9,1.4,3.6,3.3,3.6c0,0,0.1,0,0.1,0c1.9,0,3.5-1.5,3.5-3.4
		C1119.3,757.6,1117.8,756.1,1115.9,756L1115.9,756z M474.4,884.5c-1.8,0.1-3.3,1.6-3.3,3.4c0,1.9,1.5,3.3,3.4,3.3c0,0,0,0,0,0
		c1.9,0,3.4-1.5,3.4-3.4c0-1.8-1.5-3.3-3.3-3.3C474.5,884.4,474.4,884.4,474.4,884.5z M950.9,847.8c-1.8,0-3.3,1.4-3.3,3.2
		c0,0,0,0.1,0,0.1c0,1.8,1.5,3.3,3.3,3.3c1.8,0,3.3-1.4,3.3-3.2c0,0,0-0.1,0-0.1C954.2,849.3,952.7,847.8,950.9,847.8L950.9,847.8z
		 M1097.7,774.3c-1.8,0-3.3,1.5-3.3,3.3s1.5,3.3,3.3,3.3s3.3-1.5,3.3-3.3v0C1101,775.8,1099.5,774.3,1097.7,774.3L1097.7,774.3z
		 M367.6,869.4c0-1.9-1.5-3.3-3.4-3.3c0,0,0,0,0,0c-1.8,0-3.2,1.5-3.2,3.3c0,0,0,0,0,0.1c0,1.7,1.3,3.2,3.1,3.2c0,0,0.1,0,0.1,0
		C366,872.7,367.6,871.2,367.6,869.4z M789.2,886.4c-0.3-0.8-0.9-1.4-1.7-1.8c-1.5-0.8-3.3-0.3-4.3,1c-1.1,1.3-1,3.1,0.1,4.3
		c2-0.2,4-0.6,6-1C789.5,888.2,789.5,887.3,789.2,886.4L789.2,886.4z M1006,829.7c-1.7,0-3.1,1.4-3.1,3.1c0,0,0,0,0,0.1
		c0.1,1.7,1.5,3,3.2,3c1.7,0,3-1.4,3-3c0,0,0-0.1,0-0.1C1009,831.1,1007.7,829.7,1006,829.7L1006,829.7z M456.1,884.8
		c-1.7,0-3.1,1.3-3.1,2.9c0,0.1,0,0.1,0,0.2c0,1.7,1.4,3,3.1,3c1.7,0,3.1-1.4,3.1-3.1C459.1,886.1,457.7,884.8,456.1,884.8z
		 M1045.7,814.7c0-1.7-1.4-3.1-3.1-3.1c0,0,0,0-0.1,0c-1.7,0.1-3,1.5-2.9,3.2c0.1,1.7,1.5,3,3.2,2.9
		C1044.4,817.6,1045.6,816.3,1045.7,814.7z M291.2,848.3c-1.6-0.1-3,1.1-3.1,2.6c0,0.1,0,0.2,0,0.3c0,1.6,1.2,3,2.9,3.1
		c1.7,0,3.1-1.3,3.1-3C294.1,849.7,292.8,848.4,291.2,848.3L291.2,848.3z M238.9,832.8c0-1.6-1.3-2.9-2.9-2.9c-1.6,0-3,1.3-3,3
		c0,0,0,0,0,0c0.1,1.6,1.4,2.8,3,2.8C237.6,835.6,238.9,834.4,238.9,832.8L238.9,832.8z M1079.3,793.3c-1.6,0-2.9,1.2-3,2.8
		c-0.1,1.6,1.1,2.9,2.6,3c0.1,0,0.2,0,0.2,0c1.6,0,2.9-1.3,2.9-2.9C1082.1,794.6,1080.8,793.3,1079.3,793.3L1079.3,793.3z
		 M200.3,817.2c0.3,0.2,0.8,0.2,1.1-0.1c1-0.8,1.3-2,1-3.2c-0.3-1.2-1.2-2.1-2.4-2.3c-1.1-0.3-2.3,0.2-3,1.1c-0.3,0.5-0.6,1-0.8,1.5
		C197.5,815.3,198.9,816.3,200.3,817.2z M348.8,869.4c0-1.5-1.2-2.7-2.7-2.8c-1.5-0.1-2.8,1.1-2.9,2.6c0,0,0,0,0,0.1
		c-0.1,1.5,1.1,2.7,2.5,2.8c0,0,0.1,0,0.1,0c1.4,0.2,2.7-0.8,2.9-2.2C348.8,869.7,348.8,869.5,348.8,869.4L348.8,869.4z
		 M437.6,885.1c-1.5,0-2.8,1.2-2.8,2.7c0,0,0,0,0,0.1c0,1.4,1.1,2.6,2.5,2.7c0.1,0,0.2,0,0.3,0c1.5,0,2.7-1.2,2.7-2.6
		c0,0,0-0.1,0-0.1C440.2,886.3,439.1,885.2,437.6,885.1L437.6,885.1z M894.5,869.8c1.3-0.4,2.6-0.7,3.9-0.9c0.3,0,0.6-0.3,0.9-0.6
		c-0.5-1.8-2.3-2.8-4.1-2.3c-0.8,0.2-1.4,0.8-1.9,1.4c-0.5,0.6-0.6,1.5-0.3,2.2C893.9,870.1,893.8,870.1,894.5,869.8L894.5,869.8z
		 M274.9,851.2c-0.1-1.2-1.1-2.2-2.3-2.2c-1.3,0-2.3,1.1-2.3,2.4c0,0,0,0,0,0c0.1,1.2,1.1,2.2,2.3,2.2
		C273.9,853.5,274.9,852.5,274.9,851.2z M1134.4,757.3c-1.2-0.1-2.3,0.8-2.4,2c0,0.1,0,0.2,0,0.2c-0.1,1.2,0.9,2.3,2.1,2.4
		c1.3,0.1,2.3-0.9,2.4-2.1c0,0,0-0.1,0-0.1c0.1-1.2-0.7-2.3-1.9-2.4C1134.5,757.3,1134.4,757.3,1134.4,757.3z M1115.9,775.4
		c-1.3,0-2.4,1-2.4,2.3c0,0,0,0,0,0c0,1.3,1,2.3,2.2,2.3c0,0,0.1,0,0.1,0c1.2,0,2.2-0.9,2.2-2.1c0-0.1,0-0.1,0-0.2
		c0.1-1.2-0.7-2.2-1.9-2.3C1116.1,775.4,1116,775.4,1115.9,775.4z M419.5,885.6c-1.2-0.1-2.3,0.8-2.4,2c0,0.1,0,0.2,0,0.2
		c-0.1,1.2,0.8,2.2,2,2.3c0,0,0.1,0,0.1,0c1.2,0.1,2.3-0.8,2.4-2c0-0.1,0-0.2,0-0.2c0.1-1.2-0.8-2.2-2-2.3
		C419.6,885.6,419.5,885.6,419.5,885.6z M327.7,867.2c-1.2,0-2.2,0.9-2.2,2.1c0,1.2,0.9,2.1,2,2.2c1.2,0,2.1-0.9,2.2-2
		c0,0,0-0.1,0-0.1C329.9,868.3,328.9,867.3,327.7,867.2z M586.5,906.6c0-0.1,0.1-0.3,0.1-0.4c0-1.3-1-2.3-2.3-2.3
		c-0.1,0-0.1,0-0.2,0c-1.2,0.1-2.2,1.2-2.1,2.4c0,0.6,0.5,1.1,1.1,1.1h3C586.2,907.1,586.3,906.8,586.5,906.6L586.5,906.6z
		 M565.9,907.7h0.4c0.7,0,1.3-0.4,1.4-1.1c0.2-0.8-0.1-1.6-0.8-2.1c-0.6-0.5-1.5-0.5-2.2-0.2c-0.6,0.4-1,1-1,1.8
		c0,1,0.6,1.8,1.5,1.7C565.6,907.6,565.8,907.7,565.9,907.7L565.9,907.7z M603.8,904c-0.9-0.5-2-0.5-2.8,0.2
		c-0.3,0.3-0.6,0.7-0.8,1.1c-0.3,0.5-0.1,1.2,0.3,1.5c1.3,0.1,2.7,0,4-0.1C604.9,905.4,604.7,904.6,603.8,904L603.8,904z M401,885.9
		c-1-0.1-1.9,0.7-2,1.8c0,0,0,0.1,0,0.1c0,1,0.8,1.9,1.8,1.9c0,0,0,0,0,0c1,0.1,1.9-0.7,2-1.8c0,0,0-0.1,0-0.1
		C402.8,886.8,402,886,401,885.9z M802,887.2c0.2,0,0.6-0.1,0.8-0.1c0.3-0.1,0.6-0.1,0.9-0.2c1-0.1,2-0.2,3.1-0.3
		c0.4,0,0.6-0.6,0.2-0.9c-1.2-1.4-3.2-1.6-4.6-0.4c-0.5,0.4-0.8,0.9-1,1.4c0,0.2,0,0.3,0.1,0.4C801.6,887.2,801.8,887.2,802,887.2z
		 M623.2,906c0.1-0.7-0.2-1.3-0.7-1.8c-0.9-0.9-2.4-0.9-3.3,0c-0.5,0.4-0.7,1.1-0.6,1.8C620.2,906.4,621.7,906.4,623.2,906
		L623.2,906z M547.7,907.2h0.9c0.7,0,0.9-0.3,1-0.9c0.1-0.8-0.2-1.6-0.9-2c-0.5-0.4-1.3-0.4-1.9,0c-0.7,0.3-1.1,1.1-1,1.9
		c0.1,0.7,0.3,1,1.1,1L547.7,907.2z M530.1,904.6c-0.6-0.4-1.4-0.3-2,0.2c-0.2,0.3-0.4,0.6-0.6,0.9c-0.2,0.4,0,0.9,0.3,1.2
		c0.9,0.1,1.8,0.1,2.8,0C531,905.6,530.9,905,530.1,904.6L530.1,904.6z M971.1,849.5c0.1,0,0.1-0.2,0.1-0.3
		c-0.7-0.6-1.7-0.9-2.7-0.7c-1.1,0.2-1.9,1.1-2,2.2C968.1,850.5,969.7,850.1,971.1,849.5L971.1,849.5z M641.6,905.1
		c-0.3-1-1.3-1.7-2.3-1.5c-0.6,0-1.1,0.2-1.5,0.7c-0.4,0.2-0.6,0.6-0.6,1C638.7,905.4,640.1,905.3,641.6,905.1L641.6,905.1z
		 M382.9,886.4c-0.7-0.1-1.4,0.5-1.4,1.2c0,0.1,0,0.1,0,0.2c0,0.8,0.6,1.4,1.3,1.4c0.8,0,1.4-0.6,1.4-1.3c0,0,0-0.1,0-0.1
		C384.2,887.1,383.7,886.5,382.9,886.4C382.9,886.4,382.9,886.4,382.9,886.4z M1061.6,812.2c-0.6-0.1-1.2,0-1.8,0.3
		c-0.9,0.4-1.2,1.4-0.8,2.3c0,0,0,0,0,0c1.3-0.5,2.5-1.1,3.7-1.8C1062.5,812.6,1062.1,812.3,1061.6,812.2L1061.6,812.2z M310.6,869
		c-0.2-0.7-0.9-1.2-1.6-1c-0.3,0.1-0.5,0.2-0.7,0.4c-0.2,0.2-0.2,0.5,0,0.7c0,0,0.1,0.1,0.2,0.1c0.7,0.2,1.3,0.8,2.2,0.6
		C310.6,869.4,310.7,869.2,310.6,869z M512.5,905.9c0.1-0.5-0.1-0.9-0.6-1.1c-0.3-0.2-0.6-0.3-1-0.3c-0.4,0.1-0.7,0.2-1,0.4
		c-0.3,0.2-0.5,0.6-0.3,1C510.6,906,511.6,906,512.5,905.9L512.5,905.9z M655.9,904.4c0.4-0.1,0.9-0.2,1.3-0.2h1.8
		C657.5,903.1,656.9,903.3,655.9,904.4z M1023.1,831c0.3-0.1,0.8-0.1,0.9-0.6C1023.2,830.6,1023.2,830.6,1023.1,831L1023.1,831z
		 M492.7,904.8l-0.1-0.1c-0.1,0-0.1,0.1-0.2,0.1c0.1,0,0.1,0,0.1,0.1c0,0,0,0,0,0C492.6,904.9,492.7,904.9,492.7,904.8L492.7,904.8z
		"/>
	<path id="Trazado_187" class="st4" d="M1168.9,758.8H89.9c-3,0-5.4-2.4-5.4-5.4l0,0c0-3,2.4-5.4,5.4-5.4h1079c3,0,5.4,2.4,5.4,5.4
		l0,0C1174.3,756.4,1171.9,758.8,1168.9,758.8z"/>
	<g id="Grupo_50" transform="translate(436.692 35.442)">
		<path id="Trazado_188" class="st17" d="M322.5,241h-92.7c-9.7,0-17.6-7.9-17.6-17.6v-17.5c0-9.7,7.9-17.6,17.6-17.6h92.7
			c9.7,0,17.6,7.9,17.6,17.6v17.5C340.1,233.1,332.2,241,322.5,241C322.5,241,322.5,241,322.5,241z"/>
		<path id="Trazado_189" class="st17" d="M227.7,233v29.1l33.5-33.5C261.2,228.6,228.4,233,227.7,233z"/>
		<path id="Trazado_190" class="st18" d="M318.6,235.8h-84.8c-8.2,0-14.9-6.7-14.9-14.9v-12.4c0-8.2,6.7-14.9,14.9-14.9h84.8
			c8.2,0,14.9,6.7,14.9,14.9v12.4C333.5,229.1,326.8,235.8,318.6,235.8z"/>
		<path id="Trazado_191" class="st17" d="M281.3,203.9h-51.8c-1.3,0-2.3-1-2.4-2.3c0-1.3,1-2.3,2.3-2.4c0,0,0.1,0,0.1,0h51.8
			c1.3,0,2.3,1,2.3,2.3C283.6,202.9,282.6,203.9,281.3,203.9z"/>
		<path id="Trazado_192" class="st17" d="M324.6,212.7h-96c-0.7,0-1.3-0.6-1.3-1.3l0,0c0-0.7,0.6-1.3,1.3-1.3h96
			c0.7,0,1.3,0.6,1.3,1.3l0,0C325.9,212.1,325.3,212.6,324.6,212.7z"/>
		<path id="Trazado_193" class="st17" d="M324.6,217.5h-96c-0.7,0-1.3-0.6-1.3-1.3l0,0c0-0.7,0.6-1.3,1.3-1.3h96
			c0.7,0,1.3,0.6,1.3,1.3l0,0C325.9,216.9,325.3,217.5,324.6,217.5z"/>
		<g id="Grupo_49" transform="translate(63.326 29.081)">
			<path id="Trazado_194" class="st17" d="M240.1,204.8h-0.6c-1.4,0-2.5-1.1-2.5-2.5l0,0c0-1.4,1.1-2.5,2.5-2.5h0.6
				c1.4,0,2.5,1.1,2.5,2.5l0,0C242.6,203.7,241.5,204.8,240.1,204.8z"/>
			<path id="Trazado_195" class="st17" d="M250.2,204.8h-0.6c-1.4,0-2.5-1.1-2.5-2.5l0,0c0-1.4,1.1-2.5,2.5-2.5h0.6
				c1.4,0,2.5,1.1,2.5,2.5l0,0C252.7,203.7,251.6,204.8,250.2,204.8z"/>
			<path id="Trazado_196" class="st17" d="M260.3,204.8h-0.6c-1.4,0-2.5-1.1-2.5-2.5l0,0c0-1.4,1.1-2.5,2.5-2.5h0.6
				c1.4,0,2.5,1.1,2.5,2.5l0,0C262.8,203.7,261.7,204.8,260.3,204.8C260.3,204.8,260.3,204.8,260.3,204.8z"/>
		</g>
	</g>
	<g id="Grupo_51" transform="translate(188.949 338.089)">
		<path id="Trazado_197" class="st12" d="M313,410.5H115.1c0-7,5.7-12.7,12.7-12.7H313V410.5z"/>
		<path id="Trazado_198" class="st12" d="M313.2,410.5H207.4l44.9-98.8c1.3-2.9,4.1-4.7,7.3-4.8h95.7c1.7,0,3.1,1.3,3.2,3
			c0,0.5-0.1,1-0.3,1.4L313.2,410.5z"/>
		<path id="Trazado_199" class="st7" d="M355.3,307.1H268c-3.2,0-6,1.9-7.3,4.8l-44.9,98.8h97.3l45-99c0.8-1.6,0.1-3.5-1.5-4.2
			C356.3,307.2,355.8,307.1,355.3,307.1z"/>
		<path id="Trazado_200" class="st13" d="M305.3,362.1c-3.7,7.6-9.7,12.4-13.4,10.6c-3.8-1.8-3.8-9.4,0-17.1
			c3.7-7.6,9.7-12.4,13.4-10.6C309,346.7,309,354.3,305.3,362.1z"/>
	</g>
	<g id="Grupo_52" transform="translate(107.504 195.349)">
		<path id="Trazado_201" class="st5" d="M184.8,305.8c0,0-9,45.9-18.9,53.9c-10,8.1,22.9,46.8,34.2,36.8c11.4-10,0.8-31.6,0.8-31.6
			s-6.2-3.8,4.2-27.9c10.4-24.1-17.6-42-17.6-42L184.8,305.8z"/>
		<path id="Trazado_202" class="st6" d="M187.6,295l-2.8,10.8c0,0-1.2,6.4-3.3,14.8c3.9,18.1,11.2,29.9,17.6,37.4
			c0.2-4.2,1.7-10.7,6.1-21C215.5,312.9,187.6,295,187.6,295z"/>
		<path id="Trazado_203" class="st5" d="M241.6,323.3c-6.1,16.6-20.8,30-30.2,26.9c-15.3-5.1-26.4-17-23.8-43.5
			c3.1-31.1,27.1-34.7,41.1-30.7C242.9,280.1,248.3,305,241.6,323.3z"/>
		<path id="Trazado_204" class="st15" d="M164.1,359.7l-14.5,5.6l22.8,29.2l-6.5,11.6c0,0,23.4,17.6,30.6,51.8
			c4.3,20.8,6.5,42,6.4,63.3c0,0,1.8-69.4-1.7-82.5C194.4,413.1,164.1,359.7,164.1,359.7z"/>
		<path id="Trazado_205" class="st15" d="M201.1,365.3c0,0,18,46.3,20.9,59.4c2.9,13.1,3.4,76.8,3.4,76.8s8.3-55.6,5.9-72
			c-2.4-16.5-5.9-31.3-5.9-31.3l-11-8.1c0,0-2.1-22-3.2-22.3C210.1,367.6,201.1,365.3,201.1,365.3z"/>
		<path id="Trazado_206" class="st5" d="M190.5,535.4c35.2-10.6,30.9-15.9,43.7-10c12.7,6.1,28.8,10.2,21.2,12.1
			c-7.5,2-18.8-4.2-18.8-4.2s1.8,9.6-4.6,12.4c-6.4,2.9-34.7,3.9-50.5-0.6S190.5,535.4,190.5,535.4z"/>
		<path id="Trazado_207" class="st1" d="M189.6,533.7h7l-3.5,19.9c0,0-13.8-2-12.7-3.4C181.4,548.7,189.6,533.7,189.6,533.7z"/>
		<path id="Trazado_208" class="st3" d="M123.1,375.7c-13.7,24-18,37.1-29.2,82s-15.7,65.3-3.3,71.2c10.2,4.9,84.5,27.2,93.6,24.4
			c4.1,0.2,10.4-21,10.4-21L127,502.2c0,0,19.6-46.7,23-77.4s-11.6-49-19.1-49L123.1,375.7z"/>
		<path id="Trazado_209" class="st5" d="M194.1,308.9c-3.3,10.4-1.9,12.5-6.4,13.5s-8.7-3.5-10.1-10c-1.3-6.4,1.2-12.4,5.9-13.3
			C187.9,298.1,196.1,302.6,194.1,308.9z"/>
		<path id="Trazado_210" class="st14" d="M248,290c-17.9,31.9-53.5,27.2-75.2,16.3c-17.7-9,50.3-42.8,50.3-42.8L248,290z"/>
		<path id="Trazado_211" class="st14" d="M189.6,263.4c-6.6-20-33.8-15.3-46.2,11.4c-12.4,26.7,6.5,44.5,18,37.9
			C172.7,306.2,189.6,263.4,189.6,263.4z"/>
	</g>
	<g id="Grupo_55" transform="translate(234.478 34.409)">
		<path id="Trazado_212" class="st19" d="M446.2,389.5c2.2-8,3.8-16.1,4.8-24.3l-25.2-11.3c0.1-2.4,0.2-4.8,0.2-7.2
			c0-6.6-0.5-13.2-1.4-19.7l24-13.6c-1.7-8.1-4.1-16.1-7.1-23.8l-27.5,1.7c-3.8-8.2-8.4-16-13.7-23.2l14.9-23.2
			c-5.3-6.4-11.1-12.3-17.4-17.8l-23.6,14.3c-7.1-5.5-14.8-10.3-22.9-14.3l2.4-27.5c-7.7-3.2-15.6-5.8-23.7-7.7l-14.3,23.7
			c-7.7-1.3-15.4-2-23.2-2h-3.7l-10.6-25.4c-8.3,0.7-16.5,2.1-24.6,4.1l-1.7,27.5c-8.6,2.8-16.9,6.4-24.8,10.7L206,212.7
			c-7,4.5-13.6,9.5-19.8,15l11.3,25.2c-6.3,6.4-12,13.5-16.9,21l-27-5.6c-4.1,7.2-7.6,14.7-10.5,22.5l21.7,17
			c-2.6,8.6-4.3,17.5-5.2,26.4l-26.5,7.5c0,1.7-0.1,3.3-0.1,4.9c0,6.7,0.4,13.3,1.2,19.9l27.1,5c1.7,8.9,4.2,17.5,7.6,25.9l-20,19
			c3.6,7.5,7.9,14.6,12.6,21.5l26.3-8.2c5.6,7,11.9,13.5,18.8,19.3l-9,26.1c6.7,4.9,13.8,9.3,21.1,13.2l19.5-19.5
			c8.2,3.7,16.8,6.5,25.7,8.4l4.2,27.3c8,1.2,16,1.8,24.1,1.8h0.7l8.2-26.3c9-0.5,17.9-2.1,26.5-4.5l16.5,22.1
			c7.8-2.7,15.4-6.1,22.8-10l-5-27.1c7.7-4.7,14.9-10.2,21.5-16.4l24.9,11.9c5.7-6,10.9-12.5,15.6-19.3l-17-21.7
			c4.6-7.7,8.4-15.9,11.4-24.4L446.2,389.5z M292.5,412.1c-36.2,0-65.6-29.4-65.6-65.6s29.4-65.6,65.6-65.6s65.6,29.4,65.6,65.6
			C358.1,382.8,328.8,412.1,292.5,412.1z"/>
		<g id="Grupo_53" transform="translate(39.667 151.541)">
			<path id="Trazado_213" class="st18" d="M160,266.5c-0.5,0-1-0.2-1.3-0.7c-3.8-5-7.1-10.4-10-15.9c-0.4-0.9,0-1.9,0.8-2.3
				c0.8-0.4,1.8-0.1,2.3,0.8c2.8,5.4,6.1,10.6,9.7,15.5c0.6,0.8,0.4,1.8-0.3,2.4C160.8,266.4,160.4,266.4,160,266.5z"/>
		</g>
		<g id="Grupo_54" transform="translate(63.157 179.481)">
			<path id="Trazado_214" class="st18" d="M215.2,284.9H215c-20.6-2.7-40.1-10.8-56.6-23.4c-0.8-0.6-0.9-1.7-0.3-2.4
				c0.6-0.8,1.7-0.9,2.4-0.3c16,12.3,35,20.1,55,22.8c0.9,0.1,1.5,1,1.4,1.9C216.8,284.2,216.1,284.8,215.2,284.9z"/>
		</g>
	</g>
	<g id="Grupo_70" transform="translate(350.721 91.379)">
		<rect id="Rectngulo_38" x="178.5" y="210.3" class="st17" width="311.5" height="172.8"/>
		<rect id="Rectngulo_39" x="181.9" y="214" class="st18" width="299.1" height="157.4"/>
		<g id="Grupo_67" transform="translate(5.403 3.814)" class="st20">
			<g id="Grupo_56">
				<path id="Trazado_215" class="st17" d="M465,355.3H181.3c-0.4,0-0.6-0.3-0.7-0.7V212.4c0-0.4,0.3-0.6,0.7-0.7H465
					c0.4,0,0.6,0.3,0.7,0.7v142.1C465.7,355,465.4,355.3,465,355.3z M181.9,353.9h282.3V213.2H181.9V353.9z"/>
			</g>
			<g id="Grupo_57" transform="translate(0 85.097)">
				<path id="Trazado_216" class="st17" d="M465,246.5H181.3c-0.4,0-0.7-0.3-0.7-0.6c0-0.4,0.3-0.7,0.6-0.7c0,0,0,0,0.1,0H465
					c0.4,0,0.6,0.3,0.7,0.7C465.7,246.1,465.4,246.4,465,246.5C465,246.5,465,246.5,465,246.5z"/>
			</g>
			<g id="Grupo_58" transform="translate(0 68.094)">
				<path id="Trazado_217" class="st17" d="M465,239.8H181.3c-0.4,0-0.7-0.3-0.7-0.6c0-0.4,0.3-0.7,0.6-0.7c0,0,0,0,0.1,0H465
					c0.4,0,0.7,0.3,0.7,0.6C465.7,239.5,465.4,239.8,465,239.8C465,239.8,465,239.8,465,239.8z"/>
			</g>
			<g id="Grupo_59" transform="translate(0 51.09)">
				<path id="Trazado_218" class="st17" d="M465,233.1H181.3c-0.4,0-0.7-0.3-0.7-0.6c0-0.4,0.3-0.7,0.6-0.7c0,0,0,0,0.1,0H465
					c0.4,0,0.7,0.3,0.7,0.6C465.7,232.8,465.4,233.1,465,233.1C465,233.1,465,233.1,465,233.1z"/>
			</g>
			<g id="Grupo_60" transform="translate(0 34.086)">
				<path id="Trazado_219" class="st17" d="M465,226.5H181.3c-0.4,0-0.7-0.3-0.7-0.6c0-0.4,0.3-0.7,0.6-0.7c0,0,0,0,0.1,0H465
					c0.4,0,0.7,0.3,0.7,0.6C465.7,226.1,465.4,226.4,465,226.5C465,226.5,465,226.5,465,226.5z"/>
			</g>
			<g id="Grupo_61" transform="translate(0 17.083)">
				<path id="Trazado_220" class="st17" d="M465,219.8H181.3c-0.4,0-0.7-0.3-0.7-0.6c0-0.4,0.3-0.7,0.6-0.7c0,0,0,0,0.1,0H465
					c0.4,0,0.7,0.3,0.7,0.6C465.7,219.5,465.4,219.8,465,219.8C465,219.8,465,219.8,465,219.8z"/>
			</g>
			<g id="Grupo_62" transform="translate(169.876)">
				<path id="Trazado_221" class="st17" d="M247.9,355.3c-0.4,0-0.6-0.3-0.7-0.7V212.4c0-0.4,0.3-0.7,0.6-0.7c0.4,0,0.7,0.3,0.7,0.6
					c0,0,0,0,0,0.1v142.1C248.6,355,248.3,355.3,247.9,355.3z"/>
			</g>
			<g id="Grupo_63" transform="translate(135.869)">
				<path id="Trazado_222" class="st17" d="M234.6,355.3c-0.4,0-0.6-0.3-0.7-0.7V212.4c0-0.4,0.3-0.6,0.7-0.6c0.3,0,0.6,0.3,0.6,0.6
					v142.1C235.2,355,235,355.3,234.6,355.3z"/>
			</g>
			<g id="Grupo_64" transform="translate(101.942)">
				<path id="Trazado_223" class="st17" d="M221.3,355.3c-0.4,0-0.6-0.3-0.7-0.7V212.4c0-0.4,0.3-0.7,0.6-0.7c0.4,0,0.7,0.3,0.7,0.6
					c0,0,0,0,0,0.1v142.1C221.9,355,221.6,355.3,221.3,355.3z"/>
			</g>
			<g id="Grupo_65" transform="translate(67.935)">
				<path id="Trazado_224" class="st17" d="M207.9,355.3c-0.4,0-0.6-0.3-0.7-0.7V212.4c0-0.4,0.3-0.6,0.7-0.6c0.3,0,0.6,0.3,0.6,0.6
					v142.1C208.6,355,208.4,355.3,207.9,355.3z"/>
			</g>
			<g id="Grupo_66" transform="translate(34.007)">
				<path id="Trazado_225" class="st17" d="M194.6,355.3c-0.4,0-0.6-0.3-0.7-0.7V212.4c0-0.4,0.3-0.6,0.7-0.6c0.3,0,0.6,0.3,0.6,0.6
					v142.1C195.3,355,195,355.3,194.6,355.3z"/>
			</g>
		</g>
		<g id="Grupo_68" transform="translate(4.898 3.436)">
			<path id="Trazado_226" class="st21" d="M181.8,356.4c-0.8,0-1.4-0.7-1.4-1.4c0-0.5,0.3-1,0.8-1.2l47.1-23.6l24.3-23.3l22.6-47.1
				c0.1-0.1,0.2-0.3,0.3-0.4l25.7-22.9c0.3-0.3,0.8-0.4,1.2-0.3c0.4,0.1,0.8,0.4,1,0.8l21.6,46.5l25.7,45.7l19.3-22.2
				c0.5-0.5,1.3-0.6,1.9-0.1c0,0,0.1,0.1,0.1,0.1l22,22.1l23-68.9c0.1-0.2,0.2-0.3,0.3-0.6l47.2-47.3c0.5-0.5,1.4-0.5,2,0
				c0.5,0.5,0.5,1.4,0,2l-47,47.1L396,331.9c-0.2,0.4-0.5,0.8-1,0.9c-0.5,0.1-1,0-1.3-0.3l-22.6-22.7l-19.7,22.6
				c-0.3,0.4-0.8,0.5-1.2,0.4c-0.5,0-0.9-0.3-1.1-0.7l-26.7-47.6v-0.1l-20.9-44.9L277.5,261l-22.6,47.1c-0.1,0.1-0.2,0.3-0.3,0.4
				l-24.7,23.7c-0.1,0.1-0.2,0.2-0.3,0.2l-47.1,23.7C182.3,356.3,182,356.4,181.8,356.4z"/>
		</g>
		<g id="Grupo_69" transform="translate(4.867 3.403)">
			<path id="Trazado_227" class="st17" d="M181.8,356.4c-0.4,0-0.7-0.2-1-0.4c-0.5-0.5-0.6-1.4,0-2c0,0,0,0,0,0l69.4-71
				c0.5-0.5,1.3-0.6,1.8-0.1c0,0,0.1,0.1,0.1,0.1l24.2,22.8l46.3-46.5c0.5-0.5,1.3-0.6,1.8-0.1c0,0,0.1,0.1,0.1,0.1l23.7,22.8
				l21.7-22.7c0.3-0.3,0.6-0.4,1-0.4c0.4,0,0.8,0.1,1,0.4l45.9,46l46.5-93c0.4-0.7,1.2-1,1.9-0.7c0.7,0.3,1,1.2,0.7,1.9l-47.2,94.8
				c-0.2,0.4-0.6,0.7-1,0.8c-0.4,0.1-0.9-0.1-1.2-0.3L371,262.2l-21.7,22.7c-0.3,0.3-0.6,0.4-1,0.4c-0.4,0-0.7-0.1-1-0.3l-23.6-22.8
				l-46.3,46.5c-0.5,0.5-1.3,0.6-1.8,0.1c0,0-0.1-0.1-0.1-0.1l-24.2-22.8L182.9,356C182.6,356.2,182.2,356.4,181.8,356.4z"/>
		</g>
	</g>
	<g id="Grupo_73" transform="translate(263.161 42.116)">
		<path id="Trazado_228" class="st17" d="M226.7,347.4H192V201.9c0-6,4.9-10.9,11-11h85.2c6,0,10.9,4.9,11,11v73.2
			C298.9,315,266.6,347.3,226.7,347.4z"/>
		<path id="Trazado_229" class="st18" d="M226.7,343h-33.5V204c0-5.7,4.6-10.4,10.4-10.4c0,0,0,0,0,0H285c5.7,0,10.4,4.6,10.4,10.4
			c0,0,0,0,0,0v70.3C295.3,312.3,264.6,343,226.7,343z"/>
		<path id="Trazado_230" class="st17" d="M253.2,312.4v-2.7c0.1-2-1.3-3.7-3.3-3.9H147.5c-2,0.2-3.5,1.9-3.3,3.9v2.7
			c0,19.1,13.4,34.6,29.9,34.6h104.7C262.2,346.9,253,333.2,253.2,312.4z"/>
		<path id="Trazado_231" class="st18" d="M250.7,315.1v-2.2c0-1.7-1.4-3.1-3.1-3.1c0,0,0,0,0,0h-95.9c-1.7,0-3.1,1.4-3.1,3.1
			c0,0,0,0,0,0v2.2c0,15.4,12.5,28,27.9,28c0,0,0,0,0.1,0h102.2C263.3,343,250.7,335.5,250.7,315.1z"/>
		<g id="Grupo_71" transform="translate(45.369 12.236)">
			<path id="Trazado_232" class="st17" d="M239.2,243.8h-73c-2.3,0-4.2-1.9-4.2-4.2c0,0,0,0,0,0V200c0-2.3,1.9-4.2,4.2-4.2
				c0,0,0,0,0,0h73c2.3,0,4.2,1.9,4.2,4.2c0,0,0,0,0,0v39.6C243.4,241.9,241.5,243.8,239.2,243.8
				C239.2,243.8,239.2,243.8,239.2,243.8z M166.2,197.1c-1.5,0-2.8,1.2-2.8,2.7c0,0,0,0,0,0.1v39.7c0,1.5,1.2,2.8,2.7,2.8
				c0,0,0,0,0.1,0h73c1.5,0,2.8-1.2,2.8-2.7c0,0,0,0,0-0.1V200c0-1.5-1.2-2.8-2.7-2.8c0,0,0,0-0.1,0h-73V197.1z"/>
		</g>
		<path id="Trazado_233" class="st17" d="M260.3,275.2h-80.2c-1.2,0-2.1-0.9-2.2-2s0.9-2.1,2-2.2c0,0,0.1,0,0.1,0h80.2
			c1.2,0,2.1,0.9,2.1,2.1c0,0,0,0,0,0C262.4,274.3,261.5,275.2,260.3,275.2z"/>
		<path id="Trazado_234" class="st17" d="M260.3,282.8h-80.2c-1.2,0-2.1-0.9-2.2-2c0-1.2,0.9-2.1,2-2.2c0,0,0.1,0,0.1,0h80.2
			c1.2,0,2.1,0.9,2.2,2c0,1.2-0.9,2.1-2,2.2C260.4,282.8,260.3,282.8,260.3,282.8z"/>
		<path id="Trazado_235" class="st17" d="M260.3,290.1h-80.2c-1.2,0-2.1-0.9-2.2-2c0-1.2,0.9-2.1,2-2.2c0,0,0.1,0,0.1,0h80.2
			c1.2,0,2.1,0.9,2.2,2c0,1.2-0.9,2.1-2,2.2C260.4,290.1,260.3,290.1,260.3,290.1z"/>
		<g id="Grupo_72" transform="translate(83.905 16.765)">
			<path id="Trazado_236" class="st17" d="M179.6,201.7h-0.4c-1.2,0-2.1-0.9-2.1-2.1c0,0,0,0,0,0l0,0c0-1.2,0.9-2.1,2.1-2.1
				c0,0,0,0,0,0h0.4c1.2,0,2.1,0.9,2.1,2.1c0,0,0,0,0,0l0,0c0,1.1-0.8,2.1-2,2.1C179.7,201.7,179.7,201.7,179.6,201.7z"/>
			<path id="Trazado_237" class="st17" d="M188.2,201.7h-0.4c-1.2,0-2.1-0.9-2.1-2.1c0,0,0,0,0,0l0,0c0-1.2,0.9-2.1,2.1-2.1
				c0,0,0,0,0,0h0.4c1.2,0,2.1,0.9,2.1,2.1c0,0,0,0,0,0l0,0c0,1.1-0.8,2.1-2,2.1C188.3,201.7,188.3,201.7,188.2,201.7z"/>
			<path id="Trazado_238" class="st17" d="M196.9,201.7h-0.4c-1.2,0-2.1-0.9-2.1-2.1c0,0,0,0,0,0l0,0c0-1.2,0.9-2.1,2.1-2.1
				c0,0,0,0,0,0h0.4c1.2,0,2.1,0.9,2.1,2.1c0,0,0,0,0,0l0,0C199,200.8,198,201.7,196.9,201.7C196.9,201.7,196.9,201.7,196.9,201.7z"
				/>
		</g>
		<rect id="Rectngulo_40" x="215.4" y="232" class="st17" width="10.8" height="17.8"/>
		<rect id="Rectngulo_41" x="245.2" y="233.4" class="st17" width="10.8" height="16.4"/>
		<rect id="Rectngulo_42" x="262.4" y="226.1" class="st17" width="10.8" height="23.7"/>
		<rect id="Rectngulo_43" x="230" y="239" class="st17" width="10.8" height="10.8"/>
	</g>
	<g id="Grupo_75" transform="translate(750.622 137.781)">
		<path id="Trazado_239" class="st17" d="M373.8,272.4h38.5c0,21.3-17.2,38.5-38.5,38.5s-38.5-17.2-38.5-38.5s17.2-38.5,38.5-38.5
			c0,0,0,0,0,0V272.4z"/>
		<g id="Grupo_74" transform="translate(4.608)">
			<path id="Trazado_240" class="st21" d="M414.1,267c0-21.3-17.2-38.5-38.5-38.5V267H414.1z"/>
			<path id="Trazado_241" class="st21" d="M337.2,267c0,21.3,17.2,38.5,38.5,38.5C354.5,305.4,337.3,288.2,337.2,267z"/>
			<path id="Trazado_242" class="st21" d="M375.6,228.6c-21.3,0-38.5,17.2-38.5,38.5C337.2,245.9,354.4,228.7,375.6,228.6z"/>
			<path id="Trazado_243" class="st21" d="M375.6,305.5c21.3,0,38.5-17.2,38.5-38.5C414,288.2,396.8,305.4,375.6,305.5z"/>
		</g>
	</g>
	<circle id="Elipse_34" class="st21" cx="657.6" cy="332.1" r="3.4"/>
	<circle id="Elipse_35" class="st17" cx="607" cy="378.7" r="3.4"/>
	<circle id="Elipse_36" class="st17" cx="679.3" cy="355.1" r="3.4"/>
	<circle id="Elipse_37" class="st17" cx="726.6" cy="355.1" r="3.4"/>
	<circle id="Elipse_38" class="st21" cx="773.9" cy="355.1" r="3.4"/>
	<g id="Grupo_77" transform="translate(260.622 135.51)">
		<circle id="Elipse_39" class="st22" cx="169.1" cy="253.5" r="18.4"/>
		<g id="Grupo_76" transform="translate(13.096 14.269)">
			<path id="Trazado_244" class="st18" d="M154.3,245.7L154.3,245.7c-0.3,0-0.6-0.1-0.8-0.3l-5-5.6c-0.4-0.4-0.4-1.1,0-1.4
				c0.4-0.4,1.1-0.4,1.4,0c0,0,0,0,0.1,0.1l4.3,4.9l10-9.7c0.4-0.4,1-0.4,1.4,0c0.4,0.4,0.4,1,0,1.4l-10.7,10.4
				C154.9,245.5,154.6,245.6,154.3,245.7z"/>
		</g>
	</g>
	<g id="Grupo_78" transform="translate(92.57 59.994)">
		<rect id="Rectngulo_44" x="77.3" y="218.3" class="st17" width="12.3" height="66.8"/>
		<rect id="Rectngulo_45" x="129.2" y="237.7" class="st17" width="12.3" height="47.3"/>
		<rect id="Rectngulo_46" x="155.2" y="218.3" class="st17" width="12.3" height="66.8"/>
		<rect id="Rectngulo_47" x="181" y="261.5" class="st17" width="12.3" height="23.7"/>
		<rect id="Rectngulo_48" x="103.3" y="198" class="st17" width="12.3" height="87.2"/>
		<rect id="Rectngulo_49" x="207.1" y="237.7" class="st17" width="12.3" height="47.3"/>
	</g>
	<g id="Grupo_79" transform="translate(633.901 44.818)">
		<rect id="Rectngulo_50" x="289.5" y="239.5" class="st17" width="12.3" height="35.4"/>
		<rect id="Rectngulo_51" x="446.5" y="251.1" class="st17" width="12.3" height="23.9"/>
		<rect id="Rectngulo_52" x="341.4" y="192" class="st17" width="12.3" height="83"/>
		<rect id="Rectngulo_53" x="367.3" y="237.7" class="st17" width="12.3" height="37.3"/>
		<rect id="Rectngulo_54" x="393.3" y="227.1" class="st17" width="12.3" height="47.8"/>
		<rect id="Rectngulo_55" x="315.4" y="216.1" class="st17" width="12.3" height="58.8"/>
		<rect id="Rectngulo_56" x="419.3" y="202.5" class="st17" width="12.3" height="72.4"/>
	</g>
	<g id="Grupo_85" transform="translate(29.482 169.722)">
		<g>
			<defs>
				<path id="SVGID_1_" d="M101.3,241c-26.9,0-48.8,21.8-48.8,48.8c0,26.9,21.8,48.8,48.8,48.8s48.8-21.8,48.8-48.8
					C150.1,262.8,128.3,241,101.3,241z M101.3,315.5c-14.2,0-25.8-11.5-25.8-25.8S87.1,264,101.3,264s25.8,11.5,25.8,25.8
					C127.1,304,115.6,315.5,101.3,315.5C101.4,315.5,101.4,315.5,101.3,315.5z"/>
			</defs>
			<clipPath id="SVGID_2_">
				<use xlink:href="#SVGID_1_"  style="overflow:visible;"/>
			</clipPath>
			<g id="Grupo_80" class="st23">
				<path id="Trazado_245" class="st1" d="M145.4,316.6l-44-26.9l-8,51C114,343.9,134.5,334.4,145.4,316.6z"/>
			</g>
		</g>
		<g>
			<defs>
				<path id="SVGID_3_" d="M101.3,241c-26.9,0-48.8,21.8-48.8,48.8c0,26.9,21.8,48.8,48.8,48.8s48.8-21.8,48.8-48.8
					C150.1,262.8,128.3,241,101.3,241z M101.3,315.5c-14.2,0-25.8-11.5-25.8-25.8S87.1,264,101.3,264s25.8,11.5,25.8,25.8
					C127.1,304,115.6,315.5,101.3,315.5C101.4,315.5,101.4,315.5,101.3,315.5z"/>
			</defs>
			<clipPath id="SVGID_4_">
				<use xlink:href="#SVGID_3_"  style="overflow:visible;"/>
			</clipPath>
			<g id="Grupo_81" class="st24">
				<path id="Trazado_247" class="st22" d="M145.3,316.6l0.2-0.4c9.2-15.6,9.7-34.8,1.1-50.8c-15.6,8.2-6.3,3.2-45.5,24.4
					C145.5,316.8,138.6,312.6,145.3,316.6z"/>
			</g>
		</g>
		<g>
			<defs>
				<path id="SVGID_5_" d="M101.3,241c-26.9,0-48.8,21.8-48.8,48.8c0,26.9,21.8,48.8,48.8,48.8s48.8-21.8,48.8-48.8
					C150.1,262.8,128.3,241,101.3,241z M101.3,315.5c-14.2,0-25.8-11.5-25.8-25.8S87.1,264,101.3,264s25.8,11.5,25.8,25.8
					C127.1,304,115.6,315.5,101.3,315.5C101.4,315.5,101.4,315.5,101.3,315.5z"/>
			</defs>
			<clipPath id="SVGID_6_">
				<use xlink:href="#SVGID_5_"  style="overflow:visible;"/>
			</clipPath>
			<g id="Grupo_82" class="st25">
				<path id="Trazado_249" class="st17" d="M52.9,271.9l48.4,17.8l45.5-24.6C125.4,225.9,68.3,230.6,52.9,271.9z"/>
			</g>
		</g>
		<g>
			<defs>
				<path id="SVGID_7_" d="M101.3,241c-26.9,0-48.8,21.8-48.8,48.8c0,26.9,21.8,48.8,48.8,48.8s48.8-21.8,48.8-48.8
					C150.1,262.8,128.3,241,101.3,241z M101.3,315.5c-14.2,0-25.8-11.5-25.8-25.8S87.1,264,101.3,264s25.8,11.5,25.8,25.8
					C127.1,304,115.6,315.5,101.3,315.5C101.4,315.5,101.4,315.5,101.3,315.5z"/>
			</defs>
			<clipPath id="SVGID_8_">
				<use xlink:href="#SVGID_7_"  style="overflow:visible;"/>
			</clipPath>
			<g id="Grupo_83" class="st26">
				<path id="Trazado_251" class="st21" d="M93.4,340.8l8-51L52.9,272C41.4,302.8,61.8,335.8,93.4,340.8z"/>
			</g>
		</g>
		<g>
			<defs>
				<path id="SVGID_9_" d="M101.3,241c-26.9,0-48.8,21.8-48.8,48.8c0,26.9,21.8,48.8,48.8,48.8s48.8-21.8,48.8-48.8
					C150.1,262.8,128.3,241,101.3,241z M101.3,315.5c-14.2,0-25.8-11.5-25.8-25.8S87.1,264,101.3,264s25.8,11.5,25.8,25.8
					C127.1,304,115.6,315.5,101.3,315.5C101.4,315.5,101.4,315.5,101.3,315.5z"/>
			</defs>
			<clipPath id="SVGID_10_">
				<use xlink:href="#SVGID_9_"  style="overflow:visible;"/>
			</clipPath>
			<g id="Grupo_84" class="st27">
				<path id="Trazado_253" class="st28" d="M147.7,316.1c8.8-15.5,9.3-34.3,1.3-50.2l0,0l-0.8-1.5v-0.1l-0.7-1.2l0,0
					c-14.7-25.5-47.4-34.2-72.9-19.5c-10.2,5.9-18.2,15.1-22.7,26l0,0l-0.7,1.8l-0.6,1.7l0,0c-4.9,14.5-3.2,30.3,4.5,43.5
					c7.8,13.4,21,22.8,36.2,25.7l0,0l1.7,0.2l1.7,0.2l0,0c2.2,0.2,4.4,0.4,6.5,0.4c18,0,34.7-9.1,44.6-24.1l0,0l0.3-0.6l0.6-0.9
					c0.1-0.1,0.2-0.3,0.2-0.4v-0.1l0,0L147.7,316.1L147.7,316.1z M142.5,269.5c1-0.6,2.2-1.1,3.5-1.9c7.3,14.8,6.8,32.2-1.3,46.6
					l-0.3-0.2c-1.8-1.1-2.5-1.5-6.2-3.8l-33.5-20.6l27.9-15C136.7,272.6,138.4,271.7,142.5,269.5z M55.1,270.9
					c10.5-25.5,39.7-37.7,65.2-27.2c10.1,4.1,18.5,11.4,24,20.8l-13.4,7.3c-2.8,1.4-6.6,3.5-13.2,7.1c-4.2,2.2-9.4,5.1-16,8.7
					l-0.4,0.2L100,287l-0.1,0.4l-21.2-7.9L55.1,270.9z M58.2,314.8c-7.2-12.3-8.8-27.1-4.3-40.6l31.9,11.7l13.6,5l-7.4,47.9
					C77.8,336,65.5,327.3,58.2,314.8z M95.4,339.3l7.3-46.8l19,11.6c7.6,4.6,12.1,7.4,14.8,9.1l6.5,4
					C132.7,333.1,114.2,341.6,95.4,339.3L95.4,339.3z"/>
			</g>
		</g>
	</g>
	<path id="Trazado_255" class="st17" d="M99.8,570.4c0,8.5-6.9,15.4-15.4,15.4s-15.4-6.9-15.4-15.4c0-8.5,6.9-15.4,15.4-15.4
		C92.9,555,99.8,561.9,99.8,570.4C99.8,570.4,99.8,570.4,99.8,570.4z"/>
	<path id="Trazado_256" class="st18" d="M95.7,571.1c0,4.3-3.5,7.7-7.7,7.7s-7.7-3.5-7.7-7.7c0-4.3,3.5-7.7,7.7-7.7
		C92.3,563.3,95.7,566.8,95.7,571.1C95.8,571,95.8,571.1,95.7,571.1z"/>
	<path id="Trazado_257" class="st17" d="M1118.4,570.2L1118.4,570.2c-16.1-0.1-29.1-13.1-29.2-29.2l0,0
		c0.1-16.1,13.1-29.1,29.2-29.2l0,0c16.1,0.1,29.1,13.1,29.2,29.2l0,0C1147.7,557.1,1134.6,570.2,1118.4,570.2
		C1118.5,570.2,1118.5,570.2,1118.4,570.2z"/>
	<g id="Grupo_86" transform="translate(764.606 247.509)">
		<path id="Trazado_258" class="st18" d="M390.8,333.3h-38.2c-6.5,0-11.8-5.3-11.8-11.8v-38.2c0-6.5,5.3-11.8,11.8-11.8h38.2
			c6.5,0,11.8,5.3,11.8,11.8v38.2C402.6,328,397.3,333.3,390.8,333.3z M352.6,274.9c-4.6,0-8.4,3.8-8.4,8.4c0,0,0,0,0,0v38.2
			c0,4.6,3.8,8.4,8.4,8.4c0,0,0,0,0,0h38.2c4.6,0,8.4-3.8,8.4-8.4c0,0,0,0,0,0v-38.2c0-4.6-3.8-8.4-8.4-8.4c0,0,0,0,0,0L352.6,274.9
			z"/>
	</g>
	<path id="Trazado_259" class="st17" d="M465.5,572.3l-9.7-11.3c-1.5-1.7-1.3-4.2,0.4-5.7c0,0,0,0,0,0l11.3-9.7
		c1.7-1.5,4.2-1.3,5.7,0.4c0,0,0,0,0,0l9.7,11.3c1.5,1.7,1.3,4.2-0.4,5.7c0,0,0,0,0,0l-11.3,9.7c-1.6,1.5-4.1,1.4-5.6-0.3
		C465.6,572.4,465.6,572.4,465.5,572.3z"/>
	<path id="Trazado_260" class="st17" d="M523.9,581.7c0,4.8-3.9,8.6-8.6,8.6c-4.8,0-8.6-3.9-8.6-8.6c0-4.8,3.9-8.6,8.6-8.6
		C520.1,573.1,523.9,577,523.9,581.7z"/>
	<path id="Trazado_261" class="st17" d="M1260,555.1c0,4.8-3.9,8.6-8.6,8.6c-4.8,0-8.6-3.9-8.6-8.6s3.9-8.6,8.6-8.6l0,0
		C1256.1,546.5,1259.9,550.3,1260,555.1z"/>
	<path id="Trazado_262" class="st17" d="M1038.4,380.4c0,4.8-3.9,8.6-8.6,8.6s-8.6-3.9-8.6-8.6c0-4.8,3.9-8.6,8.6-8.6
		C1034.5,371.8,1038.4,375.6,1038.4,380.4z"/>
	<circle id="Elipse_40" class="st17" cx="1195" cy="486.5" r="6.6"/>
	<g id="Grupo_88" transform="translate(558.26 116.964)">
		<path id="Trazado_263" class="st17" d="M398.5,287.1H268.9c-5,0-9-4.1-9.1-9.1v-48.7c0-5,4.1-9,9.1-9.1h129.5c5,0,9,4.1,9.1,9.1
			V278C407.5,283,403.5,287.1,398.5,287.1z"/>
		<path id="Trazado_264" class="st18" d="M396.3,283.9h-125c-4,0-7.3-3.3-7.3-7.3v-31.4c0-4,3.3-7.3,7.3-7.3h125
			c4,0,7.3,3.3,7.3,7.3v31.4C403.6,280.6,400.3,283.9,396.3,283.9C396.3,283.9,396.3,283.9,396.3,283.9z"/>
		<g id="Grupo_87" transform="translate(4.37 3.496)">
			<path id="Trazado_265" class="st18" d="M264.8,227h-0.6c-1.5,0-2.6-1.2-2.7-2.7l0,0c0-1.5,1.2-2.6,2.7-2.7h0.6
				c1.5,0,2.6,1.2,2.7,2.7l0,0C267.4,225.8,266.2,227,264.8,227z"/>
			<path id="Trazado_266" class="st18" d="M275.3,227h-0.6c-1.5,0-2.6-1.2-2.7-2.7l0,0c0-1.5,1.2-2.6,2.7-2.7h0.6
				c1.5,0,2.6,1.2,2.7,2.7l0,0C277.9,225.8,276.8,227,275.3,227z"/>
			<path id="Trazado_267" class="st18" d="M285.8,227h-0.6c-1.5,0-2.6-1.2-2.7-2.7l0,0c0-1.5,1.2-2.6,2.7-2.7h0.6
				c1.5,0,2.6,1.2,2.7,2.7l0,0C288.4,225.8,287.3,227,285.8,227z"/>
		</g>
		<path id="Trazado_268" class="st17" d="M397.8,248H324c-1.2,0-2.2-1-2.2-2.2c0-1.2,1-2.2,2.2-2.2h73.8c1.2,0,2.2,1,2.2,2.2
			C400,247,399,248,397.8,248C397.8,248,397.8,248,397.8,248z"/>
		<path id="Trazado_269" class="st17" d="M342.3,282h-73.8c-1.2,0-2.2-1-2.2-2.2c0-1.2,1-2.2,2.2-2.2c0,0,0,0,0,0h73.8
			c1.2,0,2.2,1,2.2,2.2C344.5,281,343.5,282,342.3,282z"/>
		<path id="Trazado_270" class="st17" d="M354.4,282h-4.8c-1.2,0-2.2-1-2.2-2.2l0,0c0-1.2,1-2.2,2.2-2.2h4.8c1.2,0,2.2,1,2.2,2.2
			l0,0C356.7,281,355.7,282,354.4,282z"/>
		<path id="Trazado_271" class="st17" d="M366,282h-4.8c-1.2,0-2.2-1-2.2-2.2l0,0c0-1.2,1-2.2,2.2-2.2h4.8c1.2,0,2.2,1,2.2,2.2l0,0
			C368.2,281,367.2,282,366,282z"/>
		<path id="Trazado_272" class="st17" d="M398.6,257.6H276.2c-0.9,0-1.5-0.7-1.5-1.5c0-0.9,0.7-1.5,1.5-1.5h122.3
			c0.8,0,1.5,0.7,1.5,1.5C400.1,256.9,399.4,257.5,398.6,257.6z"/>
		<path id="Trazado_273" class="st17" d="M398.6,264.1H276.2c-0.9,0-1.5-0.7-1.5-1.5s0.7-1.5,1.5-1.5h122.3c0.8,0,1.5,0.7,1.5,1.5
			C400,263.4,399.4,264,398.6,264.1z"/>
	</g>
	<circle id="Elipse_41" class="st17" cx="88" cy="335.6" r="16.9"/>
	<path id="Trazado_274" class="st17" d="M324.6,385.5H202.7c-1.2,0-2.2-1-2.2-2.2c0-1.2,1-2.2,2.2-2.2c0,0,0,0,0,0h121.9
		c1.2,0,2.2,1,2.2,2.2C326.8,384.5,325.8,385.5,324.6,385.5C324.6,385.5,324.6,385.5,324.6,385.5z"/>
	<path id="Trazado_275" class="st17" d="M324.6,396.9H202.7c-1.2,0-2.2-1-2.2-2.2c0-1.2,1-2.2,2.2-2.2h121.9c1.2,0,2.2,1,2.2,2.2
		C326.8,395.9,325.8,396.8,324.6,396.9z"/>
	<g id="Grupo_92" transform="translate(411.108 209.212)">
		<path id="Trazado_276" class="st19" d="M371,349.2c0.4-3.2,0.5-6.3,0.6-9.5c0-1.7-0.1-3.4-0.1-5.1l-15.7-5.1
			c-1-6.5-2.8-12.8-5.5-18.8l10.4-12.8c-2.4-4.2-5.2-8.3-8.3-12.1l-15.7,5.1c-4.6-4.7-9.8-8.7-15.6-11.9l0.9-16.5
			c-4.4-2-9-3.6-13.7-4.9l-9.7,13.4c-3.8-0.7-7.7-1-11.6-1c-2.7,0-5.3,0.1-8,0.4l-9-13.9c-4.8,0.9-9.4,2.3-13.9,4.1v16.6
			c-5.9,2.9-11.3,6.7-16.1,11.2l-15.5-6c-3.3,3.5-6.3,7.4-8.8,11.5l9.7,13.4c-3,5.8-5.2,12-6.5,18.5l-15.9,4.2
			c-0.4,3.2-0.5,6.3-0.6,9.5c0,1.7,0.1,3.4,0.1,5.1l15.7,5.1c1,6.5,2.8,12.8,5.5,18.8l-10.4,12.8c2.4,4.2,5.2,8.3,8.3,12.1l15.7-5.1
			c4.6,4.7,9.8,8.7,15.6,11.9l-0.9,16.5c4.4,2,9,3.6,13.7,4.9l9.7-13.4c3.8,0.7,7.7,1,11.6,1c2.7,0,5.3-0.1,8-0.4l9,13.9
			c4.8-0.9,9.4-2.3,13.9-4.1v-16.6c5.9-2.9,11.3-6.7,16.1-11.2l15.5,6c3.3-3.5,6.3-7.4,8.8-11.5l-9.7-13.4c3-5.8,5.2-12,6.5-18.5
			L371,349.2z M286.8,372.8c-18.4,0-33.3-14.9-33.3-33.3c0-18.4,14.9-33.3,33.3-33.3c18.4,0,33.3,14.9,33.3,33.3c0,0,0,0,0,0
			C320.1,357.9,305.2,372.8,286.8,372.8L286.8,372.8z"/>
		<g id="Grupo_89" transform="translate(92.126 44.981)">
			<path id="Trazado_277" class="st18" d="M240,333.1c-0.4,0-0.8-0.2-1.1-0.4c-0.7-0.6-0.8-1.7-0.2-2.4c8.3-10,12.9-22.6,12.8-35.6
				c0-6.2-1-12.3-3-18.1c-0.3-0.9,0.2-1.9,1.1-2.2c0.9-0.3,1.9,0.2,2.2,1.1c6.7,19.5,2.8,41.2-10.4,57.1
				C241.1,332.8,240.6,333,240,333.1z"/>
		</g>
		<g id="Grupo_90" transform="translate(74.45 19.705)">
			<path id="Trazado_278" class="st18" d="M252.8,279.8c-0.4,0-0.9-0.1-1.2-0.4c-5.5-5.2-12-9.2-19.1-11.8c-0.9-0.4-1.3-1.4-0.9-2.3
				c0.4-0.8,1.3-1.2,2.1-0.9c7.6,2.7,14.5,7,20.4,12.5c0.7,0.6,0.7,1.7,0.1,2.4C253.8,279.6,253.3,279.8,252.8,279.8z"/>
		</g>
		<g id="Grupo_91" transform="translate(50.26 17.242)">
			<path id="Trazado_279" class="st18" d="M223.6,268.4c-1,0-1.7-0.8-1.7-1.8c0-0.8,0.5-1.4,1.3-1.6c4.7-1.2,9.6-1.8,14.5-1.8
				c0.9,0,1.7,0.7,1.7,1.7c0,0.9-0.7,1.7-1.7,1.7c-4.6,0-9.2,0.6-13.7,1.7C223.9,268.4,223.8,268.4,223.6,268.4z"/>
		</g>
	</g>
</g>
</svg>
