<?xml version="1.0" encoding="utf-8"?>
<!-- Generator: Adobe Illustrator 24.0.1, SVG Export Plug-In . SVG Version: 6.00 Build 0)  -->
<svg version="1.1" id="Capa_1" xmlns="http://www.w3.org/2000/svg" xmlns:xlink="http://www.w3.org/1999/xlink" x="0px" y="0px"
	 viewBox="0 0 129 105" style="enable-background:new 0 0 129 105;" xml:space="preserve">
<style type="text/css">
	.st0{fill:none;stroke:#00D8FF;stroke-width:2;}
</style>
<path id="Icon_open-calculator" class="st0" d="M38.2,24.1c-0.4,0-0.7,0.2-0.7,0.6c0,0,0,0.1,0,0.1v60.9c0,0.4,0.3,0.7,0.7,0.7
	c0,0,0,0,0,0h53.1c0.4,0,0.7-0.3,0.7-0.7l0,0V24.8c0-0.4-0.2-0.7-0.6-0.7c0,0-0.1,0-0.1,0H38.2z M45.3,31.9h39v15.6h-39V31.9z
	 M45.3,55.3h7.8v7.8h-7.8V55.3z M60.9,55.3h7.8v7.8h-7.8V55.3z M76.5,55.3h7.8v23.4h-7.8V55.3z M45.3,71h7.8v7.8h-7.8V71z M60.9,71
	h7.8v7.8h-7.8V71z"/>
</svg>
